<?xml version="1.0" encoding="utf-8" ?>
<svg baseProfile="full" height="300mm" version="1.1" viewBox="0,0,200,300" width="200mm" xmlns="http://www.w3.org/2000/svg" xmlns:ev="http://www.w3.org/2001/xml-events" xmlns:xlink="http://www.w3.org/1999/xlink"><defs /><rect fill="#222222" height="300" width="200" x="0" y="0" /><text fill="#FFFFFF" style="font-size:12px; font-family:Arial; font-weight:bold;" x="10" y="20">Over 5km Runs</text><text fill="#FFFFFF" style="font-size:4px; font-family:Arial" x="10" y="280">Runner</text><text fill="#FFFFFF" style="font-size:9px; font-family:Arial" x="10" y="290">saveole</text><text fill="#FFFFFF" style="font-size:4px; font-family:Arial" x="65" y="280">SPECIAL TRACKS</text><rect fill="yellow" height="2.6" width="2.6" x="65" y="283" /><text fill="#FFFFFF" style="font-size:3px; font-family:Arial" x="70" y="285.5">Over 20.0 km</text><rect fill="red" height="2.6" width="2.6" x="65" y="287" /><text fill="#FFFFFF" style="font-size:3px; font-family:Arial" x="70" y="289.5">Over 40.0 km</text><text fill="#FFFFFF" style="font-size:4px; font-family:Arial" x="120" y="280">STATISTICS</text><text fill="#FFFFFF" style="font-size:3px; font-family:Arial" x="120" y="285">Number: 2</text><text fill="#FFFFFF" style="font-size:3px; font-family:Arial" x="120" y="290">Weekly: 1.0</text><text fill="#FFFFFF" style="font-size:3px; font-family:Arial" x="141" y="285">Total: 14.4 km</text><text fill="#FFFFFF" style="font-size:3px; font-family:Arial" x="141" y="290">Avg: 7.2 km</text><text fill="#FFFFFF" style="font-size:3px; font-family:Arial" x="167" y="285">Min: 6.1 km</text><text fill="#FFFFFF" style="font-size:3px; font-family:Arial" x="167" y="290">Max: 8.4 km</text><polyline fill="none" points="79.8738738738466,70.98899284671643 79.36936936946586,71.03063997684512 80.09009009017609,71.53040521105868 81.85585585585795,71.98852280949359 84.05405405396596,71.90522873855662 87.22522522532381,70.32263819038053 88.34234234225005,73.52946008334402 89.6756756757386,74.6539241852588 93.74774774769321,75.82003186317161 96.70270270272158,75.15368502290221 99.4414414416533,76.3197912859905 104.30630630627275,84.7739629628777 108.37837837846018,88.23054475610843 109.49549549561925,90.22951857966837 111.90990990982391,92.4783525361272 115.7657657659147,93.81098908741842 119.40540540544316,96.47624925675336 121.17117117112502,96.18473726554657 124.48648648662493,97.10091711441055 125.53153153159656,99.18313646584284 132.73873873869888,103.47247515848721 139.11711711715907,105.13822571802302 142.64864864875562,102.47302158985985 144.95495495502837,97.93380611794419 145.60360360355116,100.26588636919041 145.13513513514772,102.01493789383676 149.49549549538642,102.09822587639792 149.81981981988065,103.09768035451998 151.47747747739777,103.84726962164859 153.92792792781256,107.09547401906457 153.49549549561925,108.84449654832133 152.45045045064762,109.67736180961947 154.0,108.38641993692727 153.27927927928977,108.76120992959477 153.81981981988065,107.13711749896174 151.36936936946586,103.80562580926926 150.07207207218744,103.22261199375498 149.24324324331246,102.01493789383676 145.20720720710233,102.05658188724192 145.13513513514772,97.93380611794419 142.97297297301702,102.13986986145028 140.91891891905107,104.05548862044816 138.64864864875562,105.13822571802302 136.52252252260223,104.01384482914 133.09909909917042,103.47247515848721 125.42342342343181,99.14149218192324 123.801801801892,96.64282744468073 121.45945945940912,96.05980349195306 119.33333333325572,96.3096710012178 115.65765765774995,93.60276491049444 111.72972972970456,92.02025772593333 109.6396396397613,90.10458299994934 108.45045045041479,88.02231775829569 104.1261261261534,84.31585958454525 101.27927927928977,79.85973650432425 99.8378378378693,76.36143787717447 96.19819819834083,74.77886445150943 94.07207207218744,75.36191852629418 91.76576576568186,75.02874487038935 83.26126126130112,76.81955010237289 77.85585585585795,78.81857930409024 75.33333333325572,83.6911723385856 72.52252252260223,96.05980349195306 69.02702702721581,100.0160212595365 64.45045045041479,100.39081886719214 49.45945945940912,98.01709492568625 47.72972972970456,90.97913126263302 46.0,79.23504250001861 56.126126125920564,78.52705481654266 58.79279279289767,77.56918718997622 66.97297297301702,76.61131733591901 71.90990991005674,74.19580955136917 73.6396396397613,72.73816868982976 74.82882882887498,72.90475647797575 77.27927927905694,74.7372177002253 79.62162162153982,73.65440069069155 79.58558558556251,72.15511090087239 80.63063063076697,72.238404921256 80.77477477467619,72.73816868982976" stroke="#4DD2FF" stroke-linecap="round" stroke-linejoin="round" stroke-width="0.5"><title>2026-01-10 8.4km</title><desc>1768033403000</desc></polyline><polyline fill="none" points="117.42727272724733,196.90527650591685 113.8272727271542,193.87942487339024 116.85454545496032,191.13723837409634 117.6727272728458,192.5556117054075 123.89090909110382,193.40663467143895 131.33636363688856,191.04268007574137 135.10000000009313,201.3494783405913 141.31818181835115,202.2950504742912 112.43636363651603,210.80515665112762 109.3272727271542,213.07450521952705 104.33636363688856,223.9483906964888 97.54545454494655,253.16542195924558 91.32727272761986,259.7840401066351 86.90909090917557,261.39141173131065 80.11818181816489,261.39141173131065 46.0,256.1910817808821 80.60909090889618,261.6750652602641 87.89090909110382,261.39141173131065 91.32727272761986,259.7840401066351 97.54545454494655,253.16542195924558 104.99090909119695,221.86817890708335 110.47272727265954,212.50716859370004 122.3363636364229,208.25213292980334 142.21818181825802,203.9970779052237 148.6000000005588,205.03720425470965 153.1818181821145,202.0113789344323 154.0,197.94541074335575 150.40000000037253,187.07122290146071 140.41818181844428,179.69561482797144 140.50000000046566,158.3249347397359 133.29999999981374,158.89230423950357 131.1727272728458,161.1617787957657 129.86363636376336,185.36916466336697 134.77272727293894,202.2004933039425 112.92727272724733,207.11745348281693 109.57272727275267,203.52429281827062 111.86363636376336,201.3494783405913 124.95454545458779,201.72770730877528 128.71818181825802,200.30934788950253 132.31818181835115,196.71616106596775 129.70000000018626,189.6243044497096 119.88181818230078,189.34062906645704 118.89999999990687,187.73313360178145 114.56363636348397,186.69298800523393 111.61818181816489,187.07122290146071 109.4909090907313,190.7590051224106 113.50000000046566,196.05425672413548 117.01818181807175,197.66173788439482 116.69090909091756,198.89098631881643" stroke="#4DD2FF" stroke-linecap="round" stroke-linejoin="round" stroke-width="0.5"><title>2025-11-16 6.1km</title><desc>1763283912000</desc></polyline></svg>