<?xml version="1.0" encoding="utf-8" ?>
<svg baseProfile="full" height="300mm" version="1.1" viewBox="0,0,200,300" width="200mm" xmlns="http://www.w3.org/2000/svg" xmlns:ev="http://www.w3.org/2001/xml-events" xmlns:xlink="http://www.w3.org/1999/xlink"><defs /><rect fill="#222222" height="300" width="200" x="0" y="0" /><text fill="#FFFFFF" style="font-size:12px; font-family:Arial; font-weight:bold;" x="10" y="20">Over 5km Runs</text><text fill="#FFFFFF" style="font-size:4px; font-family:Arial" x="10" y="280">Runner</text><text fill="#FFFFFF" style="font-size:9px; font-family:Arial" x="10" y="290">saveole</text><text fill="#FFFFFF" style="font-size:4px; font-family:Arial" x="65" y="280">SPECIAL TRACKS</text><rect fill="yellow" height="2.6" width="2.6" x="65" y="283" /><text fill="#FFFFFF" style="font-size:3px; font-family:Arial" x="70" y="285.5">Over 20.0 km</text><rect fill="red" height="2.6" width="2.6" x="65" y="287" /><text fill="#FFFFFF" style="font-size:3px; font-family:Arial" x="70" y="289.5">Over 40.0 km</text><text fill="#FFFFFF" style="font-size:4px; font-family:Arial" x="120" y="280">STATISTICS</text><text fill="#FFFFFF" style="font-size:3px; font-family:Arial" x="120" y="285">Number: 7</text><text fill="#FFFFFF" style="font-size:3px; font-family:Arial" x="120" y="290">Weekly: 1.4</text><text fill="#FFFFFF" style="font-size:3px; font-family:Arial" x="141" y="285">Total: 51.3 km</text><text fill="#FFFFFF" style="font-size:3px; font-family:Arial" x="141" y="290">Avg: 7.3 km</text><text fill="#FFFFFF" style="font-size:3px; font-family:Arial" x="167" y="285">Min: 6.1 km</text><text fill="#FFFFFF" style="font-size:3px; font-family:Arial" x="167" y="290">Max: 9.2 km</text><polyline fill="none" points="56.956199876673054,70.9843771445303 57.20604565081885,70.05861630929576 60.05428747687256,70.23219681069895 60.43738433072576,69.84646214684471 61.30351634795079,69.7500283580739 66.55027760646772,67.14629749089363 66.98334361508023,66.58697285376547 63.08574953727657,60.955060263411724 63.23565700184554,60.24141554116795 61.76989512646105,58.601951258198824 60.05428747687256,55.40013300233113 58.438618136919104,53.953510603212635 57.922270203591324,53.857068716781214 57.68908081430709,53.43272383254953 56.23997532390058,52.93122410630167 55.0240592227201,51.793200567233725 53.40838988276664,51.25311920499371 51.84268969774712,51.19525325333234 51.4762492289301,51.40742832289834 50.09376927826088,51.156675942387665 49.02776064159116,51.38813969005423 48.49475632334361,51.156675942387665 45.3300431832904,51.851066336079384 44.73041332513094,51.5810259301652 43.26465144980466,51.754623378205 42.58173966687173,52.1211063566152 41.06600863666972,52.14039491474978 39.98334361508023,52.58403120962612 39.06724244292127,52.06324067033711 38.35101789026521,52.08252923440887 34.96977174584754,53.04695493032341 33.82048118452076,52.796204722166294 31.638494756422006,53.33628168073483 29.939543491695076,53.39414697770553 28.42381246149307,54.30070098748547 27.091301665757783,54.647890734806424 26.641579272109084,55.091521151785855 24.659469463396817,55.57372694721562 21.578038248117082,58.17761701262498 19.662553979083896,59.277026506431866 19.162862430675887,59.89423605472257 17.630475015495904,60.08711362583563 17.36397285631392,60.569306693651015 15.331893892784137,61.417963509389665 15.44848858739715,61.90015318665246 15.115360888419673,62.17017886941903 13.0,59.45061689529393 15.348550277703907,59.95209934673039 17.297347316576634,59.31560216212529 23.893275755806826,54.51287257543299 24.959284392476548,54.377854319725884 27.924120913085062,52.69976224597485 30.905613818729762,51.73533478072204 34.836520666314755,51.40742832289834 36.568784700881224,50.88663454564812 37.851326341798995,51.098809961244115 40.049969154875726,50.80947979007033 40.14990746456897,50.52014917654742 41.282541641034186,49.999352957485826 43.66440468846122,49.999352957485826 45.69648365210742,49.55571060338116 46.862430598412175,49.71002110543486 47.462060456571635,49.43997764434607 48.29487970395712,49.61357705637056 49.510795805137604,49.0156228554697 50.693399136303924,49.150644936962635 51.909315237542614,49.49784413272573 52.10919185687089,49.845042691449635 55.94016039487906,50.86734585973318 55.50709438620834,52.27541476675833 57.63911165948957,53.39414697770553 60.10425663169008,55.41942122633918 60.753855644667055,56.268101134191966 60.82048118446255,57.05891307767888 61.76989512646105,58.54408755348413 62.53608883405104,59.142011649382766 64.36829117831076,61.996590974740684 65.4176434300025,62.9223912400339 65.101172116003,64.09892254327133 67.0,66.64483409970126 66.18383713759249,67.37774168493343 61.32017273287056,69.90432239655638 59.55459592846455,70.25148352330143 57.17273288097931,70.17433666126453" stroke="#4DD2FF" stroke-linecap="round" stroke-linejoin="round" stroke-width="0.5"><title>2026-05-21 9.2km</title><desc>1779317412000</desc></polyline><polyline fill="none" points="169.2107023410499,78.54324326568167 169.45150501665194,77.91587666326086 174.1170568561647,78.12499899187242 175.35117056849413,77.39307028229814 176.52508361195214,77.39307028229814 187.0,71.88612786860904 180.04682274232619,61.98735024634516 179.80602006684057,61.22053157398477 180.2575250834925,60.558277700678445 175.68227424740326,54.458510677010054 175.77257525071036,53.51739407796413 174.89966555172578,51.879147894651396 170.1438127089059,47.76606970245484 163.70234113698825,44.245514332462335 154.0100334447343,43.68779926528805 147.2073578594718,44.87294269585982 146.63545150496066,44.559228657977656 138.56856187281664,45.60494099825155 134.38461538462434,45.5003699081426 133.48160535120405,46.09293899612385 133.81270903011318,46.68550705740927 133.69230769225396,42.78151034130133 133.15050167229492,42.74665302707581 133.0,43.61808481786284 134.44481605349574,43.82722811732674 138.56856187281664,43.19979783537565 138.38795986608602,42.81636765206349 140.0133779263124,41.979791214107536 144.52842809353024,41.805504198768176 148.50167224067263,41.03864027536474 150.51839464879595,41.24778515228536 151.66220735781826,40.75978024062351 153.107023411314,41.00378278348944 155.36454849492293,39.92319877183763 157.71237458183896,40.23691706248792 159.63879598653875,40.794637757353485 159.96989966544788,41.45692990129464 166.83277591969818,43.2346551035298 166.2006688961992,45.953511067840736 170.1438127089059,47.90549689184991 175.1705685617635,52.08828614227241 175.86287625401746,53.447681634366745 175.80267558514606,54.493366797687486 177.54849498323165,57.35155659890734 179.0836120400345,58.501796973869205 182.36454849492293,63.62554801435908 184.08026755833998,65.01975270058028 184.08026755833998,65.78656285564648 183.41806020052172,66.3442418888153 183.53846153838094,67.32017800884205 186.96989966544788,72.02554522603168 176.73578595311847,77.6370466928056 175.47157190623693,77.67190045159077 173.9966555183055,78.50838959572138 169.33110367879272,77.98558412038255 168.75919732428156,79.79797301910003 168.2173913042061,80.07680122816237" stroke="#4DD2FF" stroke-linecap="round" stroke-linejoin="round" stroke-width="0.5"><title>2026-05-20 6.5km</title><desc>1779229838000</desc></polyline><polyline fill="none" points="13.0,143.4444406493567 34.07317073165905,126.92872245944454 34.71769590023905,127.48034180313698 38.55682407878339,127.57768629398197 40.01401141670067,127.02606711894623 34.43746756610926,116.7722661482403 38.837052413029596,113.91671849551494 40.96678775292821,113.20282758132089 43.48884276067838,111.22339440253563 45.59055526717566,114.33856237438158 47.299948105821386,115.31204611595604 48.36481577565428,118.52452134870691 49.653866113047116,120.21186909591779 51.026984950643964,120.92574429750675 57.0518941358896,130.69269429243286 58.53710430720821,137.6689037687902 62.09600415150635,142.21146965792286 59.77010897756554,143.4444406493567 59.26569797610864,144.48272830879432 59.91022314480506,144.61251402818016 67.0,139.22636222909205 65.76699532952625,138.83699832801358 64.14167099120095,135.3651491656783 62.51634665275924,133.38585373360547 62.12402698490769,132.08794841211056 64.08562532428186,131.01717254010146 63.24494032165967,129.45967393615865 61.59159314993303,130.3357678380853 59.77010897756554,129.81660137232393 56.79968863504473,126.57179178672959 52.540217955363914,120.17942018504255 52.20394395419862,118.91391008393839 54.137519460287876,117.4861490605399 54.1655422935728,116.99941088477499 53.01660612341948,116.35042549332138 51.30721328489017,117.74574245000258 50.46652828226797,117.38880148489261 49.56979761272669,115.73388814635109 49.90607161389198,113.49487405773834 47.69226777367294,112.1968876674946 46.879605604568496,110.05519855616149 44.91800726519432,108.2379964987631 41.75142708863132,103.50024236945319 40.65853658528067,103.72739657358034 37.2117280747043,99.24918379687006 34.12921639834531,96.8477973791305 31.270887389662676,95.38748597181984 30.34613388683647,97.26966387205175 34.57758173311595,99.86575306311715 39.36948624800425,104.31150664019515 39.4815775816096,105.70687635085778 40.99481058632955,108.33534687195788 42.28386092360597,109.27639894429012 45.56253243377432,114.30611286507337 47.18785677209962,115.57164127769647 48.36481577565428,118.49207226597355 48.53295277629513,120.69860236151726 49.709911779966205,121.9965540994308 41.359107420779765,126.60424004629022" stroke="#4DD2FF" stroke-linecap="round" stroke-linejoin="round" stroke-width="0.5"><title>2026-05-13 7.6km</title><desc>1778624699000</desc></polyline><polyline fill="none" points="167.38837485702243,129.92580413151882 168.34072255180217,131.2063977836806 169.13946577953175,136.61329697928159 170.67551044817083,137.53815292951185 170.98271938203834,140.09927969958517 174.36201765353326,144.36778257164406 171.6585790363606,146.18188049210585 171.32064920919947,146.67986650785315 171.78146260988433,147.0 180.04538292821962,140.9174134588393 179.89177846116945,140.52613233480952 178.87798897980247,140.73955845684395 176.81968912365846,136.50658267355175 175.314365348313,134.76357772949268 174.88427284092177,133.30513833501027 176.97329359059222,132.09569616778754 176.20527125603985,130.49495744562591 175.744457855355,130.28152506158222 173.93192514625844,131.27754173785797 172.21155511715915,130.67281766602537 169.17018667294178,127.36460273590637 168.40216433850583,125.40811678976752 164.34700641280506,120.10776341418386 163.94763479882386,118.86270229215734 166.19026001542807,117.0840358439309 165.97521376179066,116.40814021747792 164.8078198133735,115.76781683793524 162.22726476972457,117.26190289648366 161.21347528835759,115.6966697232856 162.25798566325102,113.38438060323824 161.9507767293835,112.5661823230621 159.15517543209717,111.67683419125387 158.41787399118766,109.22222159101511 155.929481627536,106.83874066537828 152.45802067616023,101.751555298717 151.44423119456042,102.17845482256962 151.4135103013832,101.32465525285807 150.2768372463761,100.96890481581795 149.0480015113717,98.83439457925851 146.98970165499486,96.73544678508188 141.06056923337746,93.0 139.9546170718968,95.06339459493756 144.9928435855545,98.05173755553551 149.0787224045489,101.68040532732266 149.84674473910127,104.24179516092408 151.56711476820055,107.08776182189467 153.01099675672594,108.15499333789921 157.06615468254313,114.13142953213537 156.66678306856193,115.16306590108434 154.20911159843672,111.42781630824902 153.25676390400622,111.2855202954961 143.39535712997895,116.0879786745354 143.51824070338625,114.949624143861 142.5351721154293,113.52667576062959 140.75336029950995,107.79924986170954 141.85931246122345,107.58580360200722 143.97905410418753,114.38044548651669 147.69628220272716,121.35282009592629 150.2153954594396,127.75589860952459 148.67935079080053,128.5029167868488 143.39535712997895,128.2539109053905 142.84238104929682,129.89023201851523 141.7057079942897,131.34868567736703" stroke="#4DD2FF" stroke-linecap="round" stroke-linejoin="round" stroke-width="0.5"><title>2026-05-12 7.1km</title><desc>1778538486000</desc></polyline><polyline fill="none" points="32.42175217345357,194.175039854832 33.58763645589352,203.62501289509237 45.246479261666536,202.95001526689157 48.16118996590376,163.12503352807835 37.668231438845396,155.0250079454854 31.255867894738913,161.7750299507752 39.41705786064267,205.6500053643249 47.57824782654643,196.87503352575004 47.57824782654643,162.45003177504987 38.83411571756005,154.35000536497682 31.255867894738913,159.7500240718946 30.672925751656294,197.55003177234903 39.41705786064267,205.6500053643249 48.16118996590376,198.22502995003015 48.74413210526109,162.45003177504987 32.42175217345357,157.72501757135615 37.668231438845396,207.0 46.99530568346381,198.22502995003015 48.16118996590376,161.7750299507752 40.58294213935733,154.35000536497682 31.255867894738913,160.42502609966323 31.83881003409624,199.57502609910443 40.58294213935733,205.6500053643249 48.16118996590376,162.45003177504987 40.58294213935733,153.67500271787867 31.255867894738913,159.7500240718946 37.668231438845396,205.6500053643249 47.57824782654643,200.2500240718946 49.910016387701035,165.15003837551922 40.58294213935733,154.35000536497682 31.83881003409624,159.7500240718946 38.251173578202724,206.3250027159229 48.74413210526109,198.22502995003015 48.16118996590376,159.07502197334543 40.0,153.0 30.672925751656294,161.7750299507752 31.83881003409624,198.22502995003015 40.0,207.0 49.327074248343706,161.7750299507752 42.331768561154604,153.67500271787867 33.0046943128109,160.42502609966323 37.08528929576278,206.3250027159229 48.16118996590376,197.55003177234903 48.74413210526109,161.10002805944532 42.91471070051193,153.67500271787867 30.672925751656294,160.42502609966323 30.672925751656294,197.55003177234903 40.58294213935733,205.6500053643249 48.74413210526109,193.50004126364365 47.57824782654643,161.10002805944532 38.251173578202724,153.0 30.672925751656294,161.7750299507752 31.255867894738913,198.90002806019038 41.16588427871466,206.3250027159229 48.74413210526109,159.7500240718946 40.0,153.67500271787867 30.672925751656294,160.42502609966323 31.83881003409624,198.22502995003015 41.16588427871466,205.6500053643249 47.57824782654643,160.42502609966323 38.83411571756005,153.67500271787867 30.672925751656294,160.42502609966323 32.42175217345357,198.22502995003015 42.331768561154604,205.6500053643249 47.57824782654643,159.7500240718946 38.83411571756005,154.35000536497682 31.255867894738913,162.45003177504987 32.42175217345357,198.90002806019038 41.748826421797276,204.97500794380903 47.57824782654643,159.7500240718946 38.83411571756005,153.67500271787867 31.255867894738913,162.45003177504987 30.672925751656294,196.87503352575004 43.49765283986926,206.3250027159229 46.99530568346381,160.42502609966323 39.41705786064267,153.67500271787867 30.089983612298965,161.10002805944532 37.668231438845396,205.6500053643249 46.99530568346381,198.90002806019038 48.16118996590376,164.47503682877868 38.83411571756005,154.35000536497682 30.089983612298965,161.10002805944532 31.83881003409624,198.90002806019038 42.91471070051193,206.3250027159229 48.16118996590376,159.7500240718946 37.668231438845396,153.67500271787867 30.089983612298965,162.45003177504987 32.42175217345357,199.57502609910443 42.91471070051193,204.30001045344397 48.16118996590376,159.7500240718946 40.58294213935733,153.0 31.83881003409624,160.42502609966323 31.255867894738913,197.55003177234903 40.0,205.6500053643249 47.57824782654643,198.90002806019038 49.327074248343706,160.42502609966323 40.58294213935733,153.0 30.672925751656294,161.7750299507752 37.668231438845396,205.6500053643249 47.57824782654643,199.57502609910443 48.74413210526109,162.45003177504987 41.748826421797276,154.35000536497682 31.255867894738913,158.40001980774105 37.08528929576278,205.6500053643249 47.57824782654643,199.57502609910443 48.74413210526109,163.8000352117233 41.748826421797276,154.35000536497682 31.255867894738913,161.10002805944532 30.672925751656294,197.55003177234903 38.83411571756005,204.97500794380903 48.16118996590376,197.55003177234903 48.74413210526109,164.47503682877868 41.16588427871466,154.35000536497682 30.672925751656294,162.45003177504987 37.668231438845396,205.6500053643249 47.57824782654643,196.87503352575004 48.16118996590376,164.47503682877868 42.331768561154604,155.0250079454854 30.672925751656294,160.42502609966323 38.251173578202724,205.6500053643249 47.57824782654643,200.2500240718946 49.327074248343706,163.12503352807835 41.748826421797276,153.67500271787867 31.255867894738913,159.7500240718946 38.251173578202724,205.6500053643249 48.16118996590376,198.90002806019038 48.16118996590376,162.45003177504987 39.41705786064267,154.35000536497682 31.83881003409624,160.42502609966323 38.251173578202724,205.6500053643249 48.16118996590376,197.55003177234903 49.327074248343706,162.45003177504987 33.0046943128109,157.0500152669847 30.089983612298965,183.37505415873602 30.672925751656294,158.40001980774105 42.91471070051193,155.70001045428216 48.74413210526109,165.15003837551922 49.910016387701035,198.90002806019038 36.50234715640545,205.6500053643249 30.089983612298965,160.42502609966323 42.91471070051193,154.35000536497682 49.910016387701035,166.5000412641093 50.49295852705836,198.22502995003015 36.50234715640545,206.3250027159229 30.089983612298965,158.40001980774105 42.331768561154604,154.35000536497682 49.910016387701035,165.15003837551922 46.99530568346381,203.62501289509237 32.42175217345357,202.2750175697729 29.507041472941637,169.8750472809188 30.089983612298965,157.72501757135615 45.246479261666536,155.70001045428216 48.74413210526109,200.9250219729729 38.83411571756005,206.3250027159229 30.672925751656294,196.20003521163017 29.507041472941637,159.7500240718946 39.41705786064267,153.0 48.74413210526109,165.82503985380754 48.16118996590376,199.57502609910443 35.33646287769079,204.97500794380903 30.672925751656294,189.4500482780859 30.672925751656294,157.72501757135615 45.829421404749155,156.3750128946267 48.16118996590376,200.9250219729729 33.58763645589352,204.30001045344397 31.255867894738913,183.37505415873602" stroke="#4DD2FF" stroke-linecap="round" stroke-linejoin="round" stroke-width="0.5"><title>2026-01-14 6.3km</title><desc>1768393184000</desc></polyline><polyline fill="none" points="149.9369369369233,170.4944964233582 149.68468468473293,170.51531998842256 150.04504504508805,170.76520260552934 150.92792792792898,170.9942614047468 152.02702702698298,170.9526143692783 153.6126126126619,170.16131909519027 154.17117117112502,171.764730041672 154.8378378378693,172.3269620926294 156.8738738738466,172.9100159315858 158.3513513513608,172.5768425114511 159.72072072082665,173.15989564299525 162.15315315313637,177.38698148143885 164.1891891892301,179.11527237805421 164.74774774780963,180.11475928983418 165.95495495491195,181.2391762680636 167.88288288295735,181.9054945437092 169.70270270272158,183.23812462837668 170.5855855855625,183.0923686327733 172.24324324331246,183.55045855720527 172.76576576579828,184.59156823292142 176.36936936934944,186.7362375792436 179.55855855857953,187.5691128590115 181.3243243243778,186.23651079492993 182.47747747751419,183.9669030589721 182.80180180177558,185.1329431845952 182.56756756757386,186.00746894691838 184.7477477476932,186.04911293819896 184.90990990994032,186.54884017726 185.73873873869888,186.9236348108243 186.96396396390628,188.54773700953228 186.74774774780963,189.42224827416067 186.2252252253238,189.83868090480973 187.0,189.19320996846363 186.63963963964488,189.38060496479739 186.90990990994032,188.56855874948087 185.68468468473293,186.90281290463463 185.03603603609372,186.6113059968775 184.62162162165623,186.00746894691838 182.60360360355116,186.02829094362096 182.56756756757386,183.9669030589721 181.4864864865085,186.06993493072514 180.45945945952553,187.02774431022408 179.3243243243778,187.5691128590115 178.26126126130112,187.00692241457 176.5495495495852,186.7362375792436 172.7117117117159,184.57074609096162 171.900900900946,183.32141372234037 170.72972972970456,183.02990174597653 169.66666666662786,183.1548355006089 167.82882882887498,181.80138245524722 165.86486486485228,181.01012886296667 164.81981981988065,180.05229149997467 164.2252252252074,179.01115887914784 162.0630630630767,177.15792979227263 160.63963963964488,174.92986825216212 159.91891891893465,173.18071893858723 158.09909909917042,172.38943222575472 157.03603603609372,172.6809592631471 155.88288288284093,172.51437243519467 151.63063063065056,173.40977505118644 148.92792792792898,174.40928965204512 147.66666666662786,176.8455861692928 146.26126126130112,183.02990174597653 144.5135135136079,185.00801062976825 142.2252252252074,185.19540943359607 134.72972972970456,184.00854746284313 133.86486486485228,180.4895656313165 133.0,174.6175212500093 138.06306306296028,174.26352740827133 139.39639639644884,173.7845935949881 143.4864864865085,173.3056586679595 145.95495495502837,172.09790477568458 146.81981981988065,171.36908434491488 147.4144144144375,171.45237823898788 148.63963963952847,172.36860885011265 149.8108108107699,171.82720034534577 149.79279279278126,171.0775554504362 150.3153153153835,171.119202460628 150.3873873873381,171.36908434491488" stroke="#4DD2FF" stroke-linecap="round" stroke-linejoin="round" stroke-width="0.5"><title>2026-01-10 8.4km</title><desc>1768033403000</desc></polyline><polyline fill="none" points="48.713636363623664,233.45263825295842 46.9136363635771,231.93971243669512 48.42727272748016,230.56861918704817 48.8363636364229,231.27780585270375 51.94545454555191,231.70331733571948 55.66818181844428,230.5213400378707 57.550000000046566,235.67473917029565 60.659090909175575,236.1475252371456 46.21818181825802,240.4025783255638 44.6636363635771,241.53725260976353 42.16818181844428,246.9741953482444 38.772727272473276,261.5827109796228 35.66363636380993,264.89202005331754 33.45454545458779,265.6957058656553 30.059090909082443,265.6957058656553 13.0,263.09554089044104 30.30454545444809,265.83753263013205 33.94545454555191,265.6957058656553 35.66363636380993,264.89202005331754 38.772727272473276,261.5827109796228 42.49545454559848,245.93408945354167 45.23636363632977,241.25358429685002 51.16818181821145,239.12606646490167 61.10909090912901,236.99853895261185 64.3000000002794,237.51860212735482 66.59090909105726,236.00568946721614 67.0,233.97270537167788 65.20000000018626,228.53561145073036 60.20909090922214,224.84780741398572 60.25000000023283,214.16246736986795 56.64999999990687,214.4461521197518 55.5863636364229,215.58088939788286 54.93181818188168,227.6845823316835 57.38636363646947,236.10024665197125 46.463636363623664,238.55872674140846 44.786363636376336,236.7621464091353 45.93181818188168,235.67473917029565 52.477272727293894,235.86385365438764 54.35909090912901,235.15467394475127 56.159090909175575,233.35808053298388 54.85000000009313,229.8121522248548 49.94090909115039,229.67031453322852 49.449999999953434,228.86656680089072 47.28181818174198,228.34649400261696 45.80909090908244,228.53561145073036 44.74545454536565,230.3795025612053 46.75000000023283,233.02712836206774 48.509090909035876,233.8308689421974 48.34545454545878,234.44549315940822" stroke="#4DD2FF" stroke-linecap="round" stroke-linejoin="round" stroke-width="0.5"><title>2025-11-16 6.1km</title><desc>1763283912000</desc></polyline></svg>