<?xml version="1.0" encoding="utf-8" ?>
<svg baseProfile="full" height="300mm" version="1.1" viewBox="0,0,200,300" width="200mm" xmlns="http://www.w3.org/2000/svg" xmlns:ev="http://www.w3.org/2001/xml-events" xmlns:xlink="http://www.w3.org/1999/xlink"><defs /><rect fill="#222222" height="300" width="200" x="0" y="0" /><text fill="#FFFFFF" style="font-size:12px; font-family:Arial; font-weight:bold;" x="10" y="20">Over 5km Runs</text><text fill="#FFFFFF" style="font-size:4px; font-family:Arial" x="10" y="280">Runner</text><text fill="#FFFFFF" style="font-size:9px; font-family:Arial" x="10" y="290">saveole</text><text fill="#FFFFFF" style="font-size:4px; font-family:Arial" x="65" y="280">SPECIAL TRACKS</text><rect fill="yellow" height="2.6" width="2.6" x="65" y="283" /><text fill="#FFFFFF" style="font-size:3px; font-family:Arial" x="70" y="285.5">Over 20.0 km</text><rect fill="red" height="2.6" width="2.6" x="65" y="287" /><text fill="#FFFFFF" style="font-size:3px; font-family:Arial" x="70" y="289.5">Over 40.0 km</text><text fill="#FFFFFF" style="font-size:4px; font-family:Arial" x="120" y="280">STATISTICS</text><text fill="#FFFFFF" style="font-size:3px; font-family:Arial" x="120" y="285">Number: 6</text><text fill="#FFFFFF" style="font-size:3px; font-family:Arial" x="120" y="290">Weekly: 1.2</text><text fill="#FFFFFF" style="font-size:3px; font-family:Arial" x="141" y="285">Total: 42.1 km</text><text fill="#FFFFFF" style="font-size:3px; font-family:Arial" x="141" y="290">Avg: 7.0 km</text><text fill="#FFFFFF" style="font-size:3px; font-family:Arial" x="167" y="285">Min: 6.1 km</text><text fill="#FFFFFF" style="font-size:3px; font-family:Arial" x="167" y="290">Max: 8.4 km</text><polyline fill="none" points="62.2809364546556,94.72432435420342 62.60200668871403,93.88783555102418 68.82274247496389,94.16666532249656 70.46822742465883,93.19076037636842 72.0334448160138,93.19076037636842 86.0,85.84817049148842 76.72909698984586,72.64980032845051 76.40802675578743,71.62737543197 77.01003344450146,70.74437026758096 70.90969899646007,62.611347569327336 71.0301003344357,61.3565254372661 69.86622073571198,59.172197192849126 63.52508361195214,53.688092936587054 54.93645484931767,48.99401910993038 42.01337792631239,48.25039902035496 32.943143812706694,49.83059026111732 32.18060200661421,49.41230487727444 21.424749163910747,50.80658799764933 15.846153846243396,50.66715987751377 14.64214046811685,51.457251994812395 15.08361204015091,52.24734274318325 14.923076923005283,47.042013788362965 14.20066889631562,46.99553736942471 14.0,48.15744642377831 15.92642140458338,48.43630415640655 21.424749163910747,47.59973044716753 21.183946488192305,47.08849020276102 23.351170568494126,45.97305495213368 29.371237458195537,45.74067226497573 34.668896320974454,44.718187033809954 37.35785953165032,44.99704686968471 38.88294314383529,44.34637365414528 40.80936454841867,44.67171037796652 43.81939799338579,43.23093169578351 46.94983277586289,43.64922274998389 49.51839464879595,44.392850343108876 49.95986622059718,45.275906535069225 59.110367893008515,47.6462068046676 58.267558528343216,51.27134809043491 63.52508361195214,53.87399585577077 70.2274247489404,59.451048189686844 71.15050167194568,61.26357551247929 71.0702341136057,62.65782239692635 73.39799331105314,66.46874213186675 75.44481605337933,68.00239596512984 79.81939799338579,74.83406401911634 82.10702341119759,76.69300360075431 82.10702341119759,77.71541714083287 81.2240802673623,78.45898918504827 81.38461538450792,79.76023734509363 85.95986622059718,86.03406030137558 72.31438127090223,93.51606225705473 70.62876254157163,93.56253393541556 68.66220735758543,94.67785279426607 62.44147157180123,93.98077882715734 61.678929765708745,96.39729735878063 60.95652173901908,96.76906830418739" stroke="#4DD2FF" stroke-linecap="round" stroke-linejoin="round" stroke-width="0.5"><title>2026-05-20 6.5km</title><desc>1779229838000</desc></polyline><polyline fill="none" points="114.0,101.25925419913256 142.0975609754678,79.23829661257332 142.9569278669078,79.97378907087841 148.07576543837786,80.10358172529959 150.01868188893422,79.36808949193801 142.58329008799046,65.6963548643107 148.44940321729518,61.88895799400052 151.28905033716,60.93710344177089 154.65179034741595,58.297859203390544 157.45407368964516,62.45141649918514 159.73326414101757,63.749394821265014 161.15308770094998,68.03269513160922 162.87182148406282,70.28249212788069 164.702646600781,71.23432573003811 172.7358588478528,84.25692572322441 174.7161390762776,93.55853835839662 179.46133886859752,99.61529287724989 176.36014530342072,101.25925419913256 175.6875973015558,102.6436377450591 176.5469641929958,102.81668537089718 186.0,95.6351496388088 184.35599377262406,95.11599777071388 182.188894654857,90.48686555426684 180.0217955368571,87.84780497816973 179.49870264646597,86.11726454948075 182.1141670991201,84.68956338678254 180.99325376213528,82.61289858154487 178.7887908667326,83.78102378410404 176.36014530342072,83.08880182975554 172.39958484680392,78.76238904896309 166.72029060707428,70.23922691339976 166.27192527218722,68.55188011191785 168.8500259469729,66.64819874739624 168.88738972484134,65.99921451305272 167.35547483130358,65.13390065776184 165.07628437969834,66.99432326667011 163.95537104294635,66.51840197984711 162.75973015022464,64.31185086179175 163.2080954851117,61.32649874367053 160.2563570314087,59.595850223326124 159.172807472758,56.74026474155835 156.55734302010387,54.31732866502716 152.3352361181751,48.00032315927092 150.87804878037423,48.30319543145015 146.28230409952812,42.33224506251281 142.17228853120469,39.13039650549763 138.36118318606168,37.183314629102824 137.12817851570435,39.69288516274537 142.77010897756554,43.15433741750894 149.1593149972614,49.08200885358383 149.3087701087352,50.94250180115341 151.32641411502846,54.44712916261051 153.0451478981413,55.70186525903409 157.4167099117767,62.4081504867936 159.58380902954377,64.0955217035953 161.15308770094998,67.98942968796473 161.3772703683935,70.93146981534665 162.94654903979972,72.6620721325744 151.81214322778396,78.80565339504392" stroke="#4DD2FF" stroke-linecap="round" stroke-linejoin="round" stroke-width="0.5"><title>2026-05-13 7.6km</title><desc>1778624699000</desc></polyline><polyline fill="none" points="59.85116647579707,163.23440550867235 61.12096340209246,164.94186371157411 62.185954372631386,172.1510626390227 64.2340139306616,173.3842039060255 64.64362584240735,176.7990395994275 69.14935687114485,182.49037676217267 65.54477204824798,184.90917398946476 65.09419894521125,185.5731553437654 65.70861681294627,186.0 76.72717723739333,177.88988461176632 76.52237128140405,177.3681764463836 75.17065197299235,177.65274460910587 72.42625216464512,172.0087768980593 70.41915379744023,169.68477030599024 69.84569712099619,167.74018444665126 72.6310581206344,166.12759489036398 71.60702834115364,163.9932765941776 70.99261047365144,163.70870008209022 68.57590019470081,165.03672231716337 66.28207348915748,164.2304235546908 62.226915563689545,159.81947031454183 61.202885784441605,157.210822386347 55.7960085500963,150.14368455222575 55.263513064943254,148.48360305620008 58.253680020337924,146.11204779191758 57.96695168199949,145.2108536232845 56.4104264175985,144.3570891172567 52.96968635939993,146.3492038619588 51.6179670507554,144.26222629769472 53.01064755069092,141.179174137651 52.60103563894518,140.08824309738702 48.873567242641,138.9024455883191 47.89049865468405,135.62962878801045 44.57264216989279,132.45165422049467 39.94402756798081,125.66874039827962 38.59230825910345,126.23793976340676 38.55134706827812,125.09954033713439 37.03578299493529,124.6252064210712 35.39733534818515,121.77919277231558 32.65293553983793,118.9805957134522 24.747425644192845,114.0 23.272822762373835,116.75119279325008 29.99045811383985,120.73565007402794 35.43829653924331,125.57387376975385 36.46232631849125,128.98906021454604 38.756153024034575,132.7836824291735 40.681329008657485,134.20665778385592 46.08820624300279,142.1752393761999 45.55571075784974,143.55075453477912 42.278815464349464,138.57042174434173 41.00901853828691,138.38069372731843 27.860476172994822,144.7839715660375 28.02432093769312,143.2661655251577 26.713562820339575,141.36890101415338 24.337813732447103,133.73233314894605 25.812416614731774,133.44773813601932 28.638738805195317,142.50726064867922 33.59504293673672,151.80376012786292 36.95386061235331,160.3411981460231 34.90580105409026,161.33722238245537 27.860476172994822,161.00521454052068 27.123174732318148,163.18697602467728 25.607610658742487,165.13158090313664" stroke="#4DD2FF" stroke-linecap="round" stroke-linejoin="round" stroke-width="0.5"><title>2026-05-12 7.1km</title><desc>1778538486000</desc></polyline><polyline fill="none" points="139.89566956087947,168.900053139776 141.45018193870783,181.50001719314605 156.9953056834638,180.60002035554498 160.88158662244678,127.50004470348358 146.89097525179386,116.70001059398055 138.3411571905017,125.70003993436694 149.22274380922318,184.20000715181231 160.10433043539524,172.5000447006896 160.10433043539524,126.60004236642271 148.44548762217164,115.80000715237111 138.3411571905017,123.00003209523857 137.56390100345016,173.40004236251116 149.22274380922318,184.20000715181231 160.88158662244678,174.3000399330631 161.65884280577302,126.60004236642271 139.89566956087947,120.30002342816442 146.89097525179386,186.0 159.32707424461842,174.3000399330631 160.88158662244678,125.70003993436694 150.77725618705153,115.80000715237111 138.3411571905017,123.90003479924053 139.11841337382793,176.10003479849547 150.77725618705153,184.20000715181231 160.88158662244678,126.60004236642271 150.77725618705153,114.90000362321734 138.3411571905017,123.00003209523857 146.89097525179386,184.20000715181231 160.10433043539524,177.00003209523857 163.2133551798761,130.2000511670485 150.77725618705153,115.80000715237111 139.11841337382793,123.00003209523857 147.6682314351201,185.10000362060964 161.65884280577302,174.3000399330631 160.88158662244678,122.10002929717302 149.9999999962747,114.0 137.56390100345016,125.70003993436694 139.11841337382793,174.3000399330631 149.9999999962747,186.0 162.43609899654984,125.70003993436694 153.10902474820614,114.90000362321734 140.672925747931,123.90003479924053 146.11371906101704,185.10000362060964 160.88158662244678,173.40004236251116 161.65884280577302,124.80003741197288 153.88628093525767,114.90000362321734 137.56390100345016,123.90003479924053 137.56390100345016,173.40004236251116 150.77725618705153,184.20000715181231 161.65884280577302,168.0000550178811 160.10433043539524,124.80003741197288 147.6682314351201,114.0 137.56390100345016,125.70003993436694 138.3411571905017,175.20003741327673 151.55451237037778,185.10000362060964 161.65884280577302,123.00003209523857 149.9999999962747,114.90000362321734 137.56390100345016,123.90003479924053 139.11841337382793,174.3000399330631 151.55451237037778,184.20000715181231 160.10433043539524,123.90003479924053 148.44548762217164,114.90000362321734 137.56390100345016,123.90003479924053 139.89566956087947,174.3000399330631 153.10902474820614,184.20000715181231 160.10433043539524,123.00003209523857 148.44548762217164,115.80000715237111 138.3411571905017,126.60004236642271 139.89566956087947,175.20003741327673 152.3317685574293,183.30001059081405 160.10433043539524,123.00003209523857 148.44548762217164,114.90000362321734 138.3411571905017,126.60004236642271 137.56390100345016,172.5000447006896 154.6635371223092,185.10000362060964 159.32707424461842,123.90003479924053 149.22274380922318,114.90000362321734 136.78664481267333,124.80003741197288 146.89097525179386,184.20000715181231 159.32707424461842,175.20003741327673 160.88158662244678,129.3000491047278 148.44548762217164,115.80000715237111 136.78664481267333,124.80003741197288 139.11841337382793,175.20003741327673 153.88628093525767,185.10000362060964 160.88158662244678,123.00003209523857 146.89097525179386,114.90000362321734 136.78664481267333,126.60004236642271 139.89566956087947,176.10003479849547 153.88628093525767,182.40001393761486 160.88158662244678,123.00003209523857 150.77725618705153,114.0 139.11841337382793,123.90003479924053 138.3411571905017,173.40004236251116 149.9999999962747,184.20000715181231 160.10433043539524,175.20003741327673 162.43609899654984,123.90003479924053 150.77725618705153,114.0 137.56390100345016,125.70003993436694 146.89097525179386,184.20000715181231 160.10433043539524,176.10003479849547 161.65884280577302,126.60004236642271 152.3317685574293,115.80000715237111 138.3411571905017,121.20002641063184 146.11371906101704,184.20000715181231 160.10433043539524,176.10003479849547 161.65884280577302,128.40004694834352 152.3317685574293,115.80000715237111 138.3411571905017,124.80003741197288 137.56390100345016,173.40004236251116 148.44548762217164,183.30001059081405 160.88158662244678,173.40004236251116 161.65884280577302,129.3000491047278 151.55451237037778,115.80000715237111 137.56390100345016,126.60004236642271 146.89097525179386,184.20000715181231 160.10433043539524,172.5000447006896 160.88158662244678,129.3000491047278 153.10902474820614,116.70001059398055 137.56390100345016,123.90003479924053 147.6682314351201,184.20000715181231 160.10433043539524,177.00003209523857 162.43609899654984,127.50004470348358 152.3317685574293,114.90000362321734 138.3411571905017,123.00003209523857 147.6682314351201,184.20000715181231 160.88158662244678,175.20003741327673 160.88158662244678,126.60004236642271 149.22274380922318,115.80000715237111 139.11841337382793,123.90003479924053 147.6682314351201,184.20000715181231 160.88158662244678,173.40004236251116 162.43609899654984,126.60004236642271 140.672925747931,119.40002035535872 136.78664481267333,154.50007221102715 137.56390100345016,121.20002641063184 153.88628093525767,117.60001393873245 161.65884280577302,130.2000511670485 163.2133551798761,175.20003741327673 145.3364628739655,184.20000715181231 136.78664481267333,123.90003479924053 153.88628093525767,115.80000715237111 163.2133551798761,132.00005501881242 163.9906113706529,174.3000399330631 145.3364628739655,185.10000362060964 136.78664481267333,121.20002641063184 153.10902474820614,115.80000715237111 163.2133551798761,130.2000511670485 159.32707424461842,181.50001719314605 139.89566956087947,179.70002342574298 136.0093886293471,136.50006304122508 136.78664481267333,120.30002342816442 156.9953056834638,117.60001393873245 161.65884280577302,177.90002929698676 148.44548762217164,185.10000362060964 137.56390100345016,171.60004694852978 136.0093886293471,123.00003209523857 149.22274380922318,114.0 161.65884280577302,131.1000531380996 160.88158662244678,176.10003479849547 143.78195049986243,183.30001059081405 137.56390100345016,162.60006437078118 137.56390100345016,120.30002342816442 157.77256187051535,118.50001719221473 160.88158662244678,177.90002929698676 141.45018193870783,182.40001393761486 138.3411571905017,154.50007221102715" stroke="#4DD2FF" stroke-linecap="round" stroke-linejoin="round" stroke-width="0.5"><title>2026-01-14 6.3km</title><desc>1768393184000</desc></polyline><polyline fill="none" points="36.58258258260321,217.32599523110548 36.24624624627177,217.353759984544 36.726726726745255,217.68693680735305 37.9039039039053,217.992348539643 39.36936936934944,217.93681915901834 41.48348348343279,216.88175879357732 42.2282282281667,219.01964005554328 43.11711711715907,219.76928279016283 45.83183183183428,220.54668790876167 47.80180180177558,220.1024566819251 49.627627627691254,220.8798608572979 52.87087087077089,226.51597530857543 55.58558558556251,228.82036317070015 56.330330330412835,230.15301238640677 57.939939939882606,231.6522350240557 60.510510510532185,232.54065939158318 62.93693693703972,234.31749950448284 64.11411411408335,234.12315817701165 66.32432432437781,234.73394474291126 67.02102102094796,236.12209097720915 71.82582582568284,238.98165010564844 76.07807807810605,240.09215047868202 78.43243243242614,238.31534772654413 79.9699699699413,235.28920407861006 80.40240240236744,236.84392424608814 80.09009009017609,238.00995859588147 82.99699699692428,238.0654839175986 83.21321321313735,238.73178690299392 84.31831831834279,239.23151308106026 85.95195195195265,241.39698267934727 85.66366366366856,242.56299769884208 84.96696696709841,243.11824120639358 86.0,242.25761329126544 85.51951951952651,242.5074732863868 85.87987987988163,241.42474499929813 84.24624624627177,239.20375053948374 83.38138138141949,238.81507466247422 82.82882882887498,238.00995859588147 80.13813813810702,238.03772125815158 80.09009009017609,235.28920407861006 78.64864864863921,238.09324657428078 77.27927927928977,239.37032574694604 75.76576576579828,240.09215047868202 74.34834834840149,239.34256321939756 72.066066066036,238.98165010564844 66.94894894899335,236.09432812125306 65.867867867928,234.42855162976775 64.30630630627275,234.03986899461597 62.888888888875954,234.2064473341452 60.43843843846116,232.40184327363386 57.819819819764234,231.34683848393615 56.42642642650753,230.06972199992742 55.63363363360986,228.68154517217772 52.75075075076893,226.2105730563344 50.85285285289865,223.23982433619676 49.89189189195167,220.90762525142054 47.465465465560555,219.85257630096748 46.04804804804735,220.24127901750035 44.51051051041577,220.01916324690683 38.840840840828605,221.21303340155282 35.23723723727744,222.54571953602135 33.555555555503815,225.794114892371 31.681681681773625,234.03986899461597 29.35135135136079,236.67734750633826 26.300300300354138,236.927212578099 16.306306306272745,235.3447299504187 15.153153153136373,230.65275417506928 14.0,222.82336166664027 20.750750750652514,222.351369877666 22.528528528520837,221.71279145998415 27.981981982011348,221.07421155725024 31.27327327337116,219.4638730342267 32.42642642650753,218.4921124598768 33.21921921917237,218.60317098529777 34.852852852782235,219.8248118001211 36.41441441443749,219.10293379376526 36.39039039041381,218.10340726721915 37.08708708710037,218.15893661414157 37.183183183078654,218.4921124598768" stroke="#4DD2FF" stroke-linecap="round" stroke-linejoin="round" stroke-width="0.5"><title>2026-01-10 8.4km</title><desc>1768033403000</desc></polyline><polyline fill="none" points="161.61818181793205,221.2701843372779 159.2181818180252,219.2529499156517 161.23636363632977,217.4248255827697 161.78181818150915,218.3704078036244 165.9272727270145,218.93775644764537 170.890909090871,217.36178671719972 173.39999999990687,224.232985560433 177.5454545454122,224.8633669828414 158.29090909077786,230.53677110077115 156.2181818180252,232.04967014637077 152.89090909110382,239.29892713105073 148.3636363632977,258.7769479728304 144.2181818180252,263.18936007109005 141.27272727247328,264.2609411542071 136.74545454536565,264.2609411542071 114.0,260.79405452060746 137.07272727251984,264.45004350686213 141.9272727270145,264.2609411542071 144.2181818180252,263.18936007109005 148.3636363632977,258.7769479728304 153.32727272738703,237.9121192714083 156.98181818169542,231.67144572915277 164.89090909063816,228.83475528657436 178.14545454527251,225.9980519368546 182.4000000001397,226.69146950315917 185.4545454545878,224.67425262299366 186.0,221.96360716223717 183.5999999998603,214.7141486009932 176.9454545455519,209.79707655200036 177.0,195.54995649319608 172.1999999997206,195.92820282635512 170.78181818174198,197.4411858638632 169.90909090894274,213.57944310893072 173.18181818164885,224.8003288693144 158.61818181793205,228.07830232189735 156.38181818160228,225.6828618788859 157.90909090894274,224.232985560433 166.63636363623664,224.4851382058696 169.14545454550534,223.53956525970716 171.5454545454122,221.14410737733124 169.80000000004657,216.41620296647307 163.25454545463435,216.2270860443241 162.5999999998603,215.15542240120703 159.7090909089893,214.46199200348929 157.74545454513282,214.7141486009932 156.32727272692136,217.17267008160707 159.0,220.70283781614853 161.34545454522595,221.77449192292988 161.12727272720076,222.59399087924976" stroke="#4DD2FF" stroke-linecap="round" stroke-linejoin="round" stroke-width="0.5"><title>2025-11-16 6.1km</title><desc>1763283912000</desc></polyline></svg>