<?xml version="1.0" encoding="utf-8" ?>
<svg baseProfile="full" height="300mm" version="1.1" viewBox="0,0,200,300" width="200mm" xmlns="http://www.w3.org/2000/svg" xmlns:ev="http://www.w3.org/2001/xml-events" xmlns:xlink="http://www.w3.org/1999/xlink"><defs /><rect fill="#222222" height="300" width="200" x="0" y="0" /><text fill="#FFFFFF" style="font-size:12px; font-family:Arial; font-weight:bold;" x="10" y="20">Over 5km Runs</text><text fill="#FFFFFF" style="font-size:4px; font-family:Arial" x="10" y="280">Runner</text><text fill="#FFFFFF" style="font-size:9px; font-family:Arial" x="10" y="290">saveole</text><text fill="#FFFFFF" style="font-size:4px; font-family:Arial" x="65" y="280">SPECIAL TRACKS</text><rect fill="yellow" height="2.6" width="2.6" x="65" y="283" /><text fill="#FFFFFF" style="font-size:3px; font-family:Arial" x="70" y="285.5">Over 20.0 km</text><rect fill="red" height="2.6" width="2.6" x="65" y="287" /><text fill="#FFFFFF" style="font-size:3px; font-family:Arial" x="70" y="289.5">Over 40.0 km</text><text fill="#FFFFFF" style="font-size:4px; font-family:Arial" x="120" y="280">STATISTICS</text><text fill="#FFFFFF" style="font-size:3px; font-family:Arial" x="120" y="285">Number: 3</text><text fill="#FFFFFF" style="font-size:3px; font-family:Arial" x="120" y="290">Weekly: 1.0</text><text fill="#FFFFFF" style="font-size:3px; font-family:Arial" x="141" y="285">Total: 20.8 km</text><text fill="#FFFFFF" style="font-size:3px; font-family:Arial" x="141" y="290">Avg: 6.9 km</text><text fill="#FFFFFF" style="font-size:3px; font-family:Arial" x="167" y="285">Min: 6.1 km</text><text fill="#FFFFFF" style="font-size:3px; font-family:Arial" x="167" y="290">Max: 8.4 km</text><polyline fill="none" points="43.632628262043,96.26255978271365 45.381454683840275,110.43751934263855 62.86971889808774,109.42502290010452 67.24178495258093,49.68755029235035 51.50234716013074,37.53751191869378 41.883801840245724,47.66254492662847 54.12558678910136,113.47500804625452 66.36737174168229,100.31255028862506 66.36737174168229,48.67504766304046 53.251173581928015,36.525008046999574 41.883801840245724,44.62503610737622 41.009388633072376,101.32504765875638 54.12558678910136,113.47500804625452 67.24178495258093,102.33754492551088 68.11619815975428,48.67504766304046 43.632628262043,41.58752635773271 51.50234716013074,115.5 65.49295852705836,102.33754492551088 67.24178495258093,47.66254492662847 55.87441321089864,36.525008046999574 41.883801840245724,45.63753914926201 42.75821505114436,104.36253914888948 55.87441321089864,113.47500804625452 67.24178495258093,48.67504766304046 55.87441321089864,35.512504076585174 41.883801840245724,44.62503610737622 51.50234716013074,113.47500804625452 66.36737174168229,105.37503610830754 69.86502458155155,52.725057563744485 55.87441321089864,36.525008046999574 42.75821505114436,44.62503610737622 52.37676036730409,114.48750407435 68.11619815975428,102.33754492551088 67.24178495258093,43.612532960250974 55.0,34.5 41.009388633072376,47.66254492662847 42.75821505114436,102.33754492551088 55.0,115.5 68.9906113743782,47.66254492662847 58.49765284359455,35.512504076585174 44.50704146921635,45.63753914926201 50.6279339492321,114.48750407435 67.24178495258093,101.32504765875638 68.11619815975428,46.65004208870232 59.37206605449319,35.512504076585174 41.009388633072376,45.63753914926201 41.009388633072376,101.32504765875638 55.87441321089864,113.47500804625452 68.11619815975428,95.25006189569831 66.36737174168229,46.65004208870232 52.37676036730409,34.5 41.009388633072376,47.66254492662847 41.883801840245724,103.35004209075123 56.748826418071985,114.48750407435 68.11619815975428,44.62503610737622 55.0,35.512504076585174 41.009388633072376,45.63753914926201 42.75821505114436,102.33754492551088 56.748826418071985,113.47500804625452 66.36737174168229,45.63753914926201 53.251173581928015,35.512504076585174 41.009388633072376,45.63753914926201 43.632628262043,102.33754492551088 58.49765284359455,113.47500804625452 66.36737174168229,44.62503610737622 53.251173581928015,36.525008046999574 41.883801840245724,48.67504766304046 43.632628262043,103.35004209075123 57.62323963269591,112.46251191571355 66.36737174168229,44.62503610737622 53.251173581928015,35.512504076585174 41.883801840245724,48.67504766304046 41.009388633072376,100.31255028862506 60.24647926539183,114.48750407435 65.49295852705836,45.63753914926201 54.12558678910136,35.512504076585174 40.13497541844845,46.65004208870232 51.50234716013074,113.47500804625452 65.49295852705836,103.35004209075123 67.24178495258093,51.71255524363369 53.251173581928015,36.525008046999574 40.13497541844845,46.65004208870232 42.75821505114436,103.35004209075123 59.37206605449319,114.48750407435 67.24178495258093,44.62503610737622 51.50234716013074,35.512504076585174 40.13497541844845,48.67504766304046 43.632628262043,104.36253914888948 59.37206605449319,111.45001567993313 67.24178495258093,44.62503610737622 55.87441321089864,34.5 42.75821505114436,45.63753914926201 41.883801840245724,101.32504765875638 55.0,113.47500804625452 66.36737174168229,103.35004209075123 68.9906113743782,45.63753914926201 55.87441321089864,34.5 41.009388633072376,47.66254492662847 51.50234716013074,113.47500804625452 66.36737174168229,104.36253914888948 68.11619815975428,48.67504766304046 57.62323963269591,36.525008046999574 41.883801840245724,42.60002971161157 50.6279339492321,113.47500804625452 66.36737174168229,104.36253914888948 68.11619815975428,50.700052817352116 57.62323963269591,36.525008046999574 41.883801840245724,46.65004208870232 41.009388633072376,101.32504765875638 53.251173581928015,112.46251191571355 67.24178495258093,101.32504765875638 68.11619815975428,51.71255524363369 56.748826418071985,36.525008046999574 41.009388633072376,48.67504766304046 51.50234716013074,113.47500804625452 66.36737174168229,100.31255028862506 67.24178495258093,51.71255524363369 58.49765284359455,37.53751191869378 41.009388633072376,45.63753914926201 52.37676036730409,113.47500804625452 66.36737174168229,105.37503610830754 68.9906113743782,49.68755029235035 57.62323963269591,35.512504076585174 41.883801840245724,44.62503610737622 52.37676036730409,113.47500804625452 67.24178495258093,103.35004209075123 67.24178495258093,48.67504766304046 54.12558678910136,36.525008046999574 42.75821505114436,45.63753914926201 52.37676036730409,113.47500804625452 67.24178495258093,101.32504765875638 68.9906113743782,48.67504766304046 44.50704146921635,40.57502290047705 40.13497541844845,80.06258123833686 41.009388633072376,42.60002971161157 59.37206605449319,38.55001568142325 68.11619815975428,52.725057563744485 69.86502458155155,103.35004209075123 49.75352073460817,113.47500804625452 40.13497541844845,45.63753914926201 59.37206605449319,36.525008046999574 69.86502458155155,54.75006189662963 70.73943779245019,102.33754492551088 49.75352073460817,114.48750407435 40.13497541844845,42.60002971161157 58.49765284359455,36.525008046999574 69.86502458155155,52.725057563744485 65.49295852705836,110.43751934263855 43.632628262043,108.41252635419369 39.2605622112751,59.81257092114538 40.13497541844845,41.58752635773271 62.86971889808774,38.55001568142325 68.11619815975428,106.38753295969218 53.251173581928015,114.48750407435 41.009388633072376,99.30005281791091 39.2605622112751,44.62503610737622 54.12558678910136,34.5 68.11619815975428,53.73755978047848 67.24178495258093,104.36253914888948 48.00469431653619,112.46251191571355 41.009388633072376,89.17507241759449 41.009388633072376,41.58752635773271 63.74413210526109,39.56251934263855 67.24178495258093,106.38753295969218 45.381454683840275,111.45001567993313 41.883801840245724,80.06258123833686" stroke="#4DD2FF" stroke-linecap="round" stroke-linejoin="round" stroke-width="0.5"><title>2026-01-14 6.3km</title><desc>1768393184000</desc></polyline><polyline fill="none" points="129.90540540544316,60.7417446350446 129.52702702698298,60.77297998263384 130.06756756757386,61.147803908301285 131.39189189195167,61.49139210712747 133.04054054059088,61.42892155391746 135.41891891893465,60.241978642792674 136.25675675668754,62.64709506253712 137.25675675680395,63.49044313895865 140.3108108107699,64.3650238973787 142.52702702698298,63.86526376719121 144.58108108118176,64.7398434645147 148.22972972970456,71.080472222151 151.28378378378693,73.67290856709587 152.12162162165623,75.17213893475127 153.93243243242614,76.85876440210268 156.8243243243778,77.85824181558564 159.55405405408237,79.85718694256502 160.87837837834377,79.63855294918176 163.3648648649687,80.32568783580791 164.1486486486392,81.88735234938213 169.55405405396596,85.10435636888724 174.3378378378693,86.3536692885391 176.9864864865085,84.35476619240944 178.71621621621307,80.95035458845086 179.20270270272158,82.69941477690008 178.8513513514772,84.01120342037757 182.12162162153982,84.07366940731299 182.36486486485228,84.82326026589726 183.60810810816474,85.38545221622917 185.44594594591763,87.82160551429843 185.12162162165623,89.13337241124827 184.33783783798572,89.75802135720733 185.5,88.78981495270273 184.95945945952553,89.07090744719608 185.3648648649687,87.85283812423586 183.52702702698298,85.35421935695922 182.55405405408237,84.91695899530896 181.93243243254256,84.01120342037757 178.90540540544316,84.04243641544599 178.8513513514772,80.95035458845086 177.22972972982097,84.10490239609499 175.6891891892301,85.5416164653434 173.9864864865085,86.3536692885391 172.39189189195167,85.51038362184772 169.8243243243778,85.10435636888724 164.06756756769028,81.85611913644243 162.8513513513608,79.98212058350327 161.09459459455684,79.54485261897207 159.5,79.7322532509279 156.74324324331246,77.70207368288538 153.79729729727842,76.51519329444272 152.22972972982097,75.07843724996201 151.3378378378693,73.51673831872176 148.09459459455684,70.73689468842349 145.95945945952553,67.39480237825774 144.87837837846018,64.77107840788085 142.14864864875562,63.584148338617524 140.55405405408237,64.02143889473518 138.8243243242614,63.77155865277746 132.44594594591763,65.11466257678694 128.39189189195167,66.61393447805312 126.49999999988358,70.26837925394648 124.39189189195167,79.54485261897207 121.77027027029544,82.51201594466693 118.3378378378693,82.79311415040866 107.09459459455684,81.01282119425014 105.79729729727842,75.73434844697476 104.5,66.9262818749994 112.09459459455684,66.39529111242155 114.09459459467325,65.67689039249672 120.22972972982097,64.95848800195381 123.93243243254256,63.1468571635196 125.22972972982097,62.053626517386874 126.12162162153982,62.178567358496366 127.95945945940912,63.552913275168976 129.71621621621307,62.74080051801866 129.6891891892301,61.61633317565429 130.47297297301702,61.678803690942004 130.58108108106535,62.053626517386874" stroke="#4DD2FF" stroke-linecap="round" stroke-linejoin="round" stroke-width="0.5"><title>2026-01-10 8.4km</title><desc>1768033403000</desc></polyline><polyline fill="none" points="68.07045454531908,215.17895737936487 65.37045454536565,212.90956865501357 67.64090909087099,210.85292878054315 68.25454545440152,211.91670877905563 72.91818181821145,212.55497600353556 78.50227272743359,210.78201005677693 81.32499999995343,218.51210875541437 85.98863636376336,219.22128785564564 64.3272727271542,225.60386748827295 61.99545454536565,227.30587891460164 58.25227272743359,235.46129302232293 53.15909090870991,257.374066469376 48.49545454559848,262.33803007996175 45.18181818164885,263.54355879843934 40.088636363623664,263.54355879843934 14.5,259.643311335647 40.45681818155572,263.75629894516896 45.91818181821145,263.54355879843934 48.49545454559848,262.33803007996175 53.15909090870991,257.374066469376 58.743181818397716,233.9011341802543 62.854545454494655,226.88037644524593 71.75227272720076,223.68909969733795 86.6636363635771,220.49780842888867 91.45000000018626,221.27790319098858 94.88636363646947,219.00853420078056 95.5,215.9590580574586 92.80000000004657,207.80341717606643 85.3136363637168,202.27171112096403 85.375,186.24370105477283 79.9749999998603,186.66922817961313 78.37954545463435,188.37133409676608 77.3977272727061,206.52687349746702 81.07954545458779,219.15036997786956 64.69545454531908,222.8380901120836 62.17954545444809,220.14321961364476 63.897727272706106,218.51210875541437 73.71590909082443,218.7957804815378 76.5386363635771,217.7320109170978 79.23863636376336,215.0371207994176 77.2750000001397,209.71822833723854 69.91136363637634,209.50547179981368 69.17500000004657,208.29985020129243 65.92272727261297,207.51974100386724 63.71363636339083,207.80341717606643 62.118181817932054,210.5692538417643 65.12500000023283,214.54069254308706 67.76363636367023,215.7463034132379 67.51818181807175,216.66823973908322" stroke="#4DD2FF" stroke-linecap="round" stroke-linejoin="round" stroke-width="0.5"><title>2025-11-16 6.1km</title><desc>1763283912000</desc></polyline></svg>