<?xml version="1.0" encoding="utf-8" ?>
<svg baseProfile="full" height="300mm" version="1.1" viewBox="0,0,200,300" width="200mm" xmlns="http://www.w3.org/2000/svg" xmlns:ev="http://www.w3.org/2001/xml-events" xmlns:xlink="http://www.w3.org/1999/xlink"><defs /><rect fill="#222222" height="300" width="200" x="0" y="0" /><text fill="#FFFFFF" style="font-size:12px; font-family:Arial; font-weight:bold;" x="10" y="20">Over 5km Runs</text><text fill="#FFFFFF" style="font-size:4px; font-family:Arial" x="10" y="280">Runner</text><text fill="#FFFFFF" style="font-size:9px; font-family:Arial" x="10" y="290">saveole</text><text fill="#FFFFFF" style="font-size:4px; font-family:Arial" x="65" y="280">SPECIAL TRACKS</text><rect fill="yellow" height="2.6" width="2.6" x="65" y="283" /><text fill="#FFFFFF" style="font-size:3px; font-family:Arial" x="70" y="285.5">Over 20.0 km</text><rect fill="red" height="2.6" width="2.6" x="65" y="287" /><text fill="#FFFFFF" style="font-size:3px; font-family:Arial" x="70" y="289.5">Over 40.0 km</text><text fill="#FFFFFF" style="font-size:4px; font-family:Arial" x="120" y="280">STATISTICS</text><text fill="#FFFFFF" style="font-size:3px; font-family:Arial" x="120" y="285">Number: 5</text><text fill="#FFFFFF" style="font-size:3px; font-family:Arial" x="120" y="290">Weekly: 1.2</text><text fill="#FFFFFF" style="font-size:3px; font-family:Arial" x="141" y="285">Total: 35.5 km</text><text fill="#FFFFFF" style="font-size:3px; font-family:Arial" x="141" y="290">Avg: 7.1 km</text><text fill="#FFFFFF" style="font-size:3px; font-family:Arial" x="167" y="285">Min: 6.1 km</text><text fill="#FFFFFF" style="font-size:3px; font-family:Arial" x="167" y="290">Max: 8.4 km</text><polyline fill="none" points="14.0,101.25925419913256 42.097560975467786,79.23829661257332 42.95692786690779,79.97378907087841 48.07576543837786,80.10358172529959 50.018681888934225,79.36808949193801 42.58329008799046,65.6963548643107 48.449403217295185,61.88895799400052 51.289050337160006,60.93710344177089 54.651790347415954,58.297859203390544 57.454073689645156,62.45141649918514 59.73326414101757,63.749394821265014 61.15308770094998,68.03269513160922 62.87182148406282,70.28249212788069 64.70264660078101,71.23432573003811 72.7358588478528,84.25692572322441 74.71613907627761,93.55853835839662 79.46133886859752,99.61529287724989 76.36014530342072,101.25925419913256 75.6875973015558,102.6436377450591 76.5469641929958,102.81668537089718 86.0,95.6351496388088 84.35599377262406,95.11599777071388 82.188894654857,90.48686555426684 80.0217955368571,87.84780497816973 79.49870264646597,86.11726454948075 82.1141670991201,84.68956338678254 80.99325376213528,82.61289858154487 78.7887908667326,83.78102378410404 76.36014530342072,83.08880182975554 72.39958484680392,78.76238904896309 66.72029060707428,70.23922691339976 66.27192527218722,68.55188011191785 68.85002594697289,66.64819874739624 68.88738972484134,65.99921451305272 67.35547483130358,65.13390065776184 65.07628437969834,66.99432326667011 63.955371042946354,66.51840197984711 62.75973015022464,64.31185086179175 63.2080954851117,61.32649874367053 60.2563570314087,59.595850223326124 59.172807472757995,56.74026474155835 56.55734302010387,54.31732866502716 52.33523611817509,48.00032315927092 50.87804878037423,48.30319543145015 46.28230409952812,42.33224506251281 42.172288531204686,39.13039650549763 38.36118318606168,37.183314629102824 37.12817851570435,39.69288516274537 42.77010897756554,43.15433741750894 49.15931499726139,49.08200885358383 49.30877010873519,50.94250180115341 51.326414115028456,54.44712916261051 53.045147898141295,55.70186525903409 57.41670991177671,62.4081504867936 59.58380902954377,64.0955217035953 61.15308770094998,67.98942968796473 61.37727036839351,70.93146981534665 62.94654903979972,72.6620721325744 51.81214322778396,78.80565339504392" stroke="#4DD2FF" stroke-linecap="round" stroke-linejoin="round" stroke-width="0.5"><title>2026-05-13 7.6km</title><desc>1778624699000</desc></polyline><polyline fill="none" points="159.85116647579707,83.23440550867235 161.12096340209246,84.94186371157411 162.1859543726314,92.15106263902271 164.2340139306616,93.3842039060255 164.64362584240735,96.79903959942749 169.14935687114485,102.49037676217267 165.54477204824798,104.90917398946476 165.09419894521125,105.5731553437654 165.70861681294627,106.0 176.72717723739333,97.88988461176632 176.52237128140405,97.36817644638359 175.17065197299235,97.65274460910587 172.42625216464512,92.0087768980593 170.41915379744023,89.68477030599024 169.8456971209962,87.74018444665126 172.6310581206344,86.12759489036398 171.60702834115364,83.99327659417759 170.99261047365144,83.70870008209022 168.5759001947008,85.03672231716337 166.28207348915748,84.23042355469079 162.22691556368954,79.81947031454183 161.2028857844416,77.21082238634699 155.7960085500963,70.14368455222575 155.26351306494325,68.48360305620008 158.25368002033792,66.11204779191758 157.9669516819995,65.21085362328449 156.4104264175985,64.35708911725669 152.96968635939993,66.34920386195881 151.6179670507554,64.26222629769472 153.01064755069092,61.17917413765099 152.60103563894518,60.08824309738702 148.873567242641,58.9024455883191 147.89049865468405,55.62962878801045 144.5726421698928,52.451654220494675 139.9440275679808,45.668740398279624 138.59230825910345,46.23793976340676 138.55134706827812,45.099540337134385 137.0357829949353,44.6252064210712 135.39733534818515,41.77919277231558 132.65293553983793,38.9805957134522 124.74742564419284,34.0 123.27282276237383,36.751192793250084 129.99045811383985,40.735650074027944 135.4382965392433,45.573873769753845 136.46232631849125,48.98906021454604 138.75615302403457,52.783682429173496 140.68132900865749,54.20665778385592 146.0882062430028,62.1752393761999 145.55571075784974,63.55075453477912 142.27881546434946,58.57042174434173 141.0090185382869,58.38069372731843 127.86047617299482,64.78397156603751 128.02432093769312,63.2661655251577 126.71356282033958,61.36890101415338 124.3378137324471,53.732333148946054 125.81241661473177,53.447738136019325 128.63873880519532,62.50726064867922 133.59504293673672,71.80376012786292 136.9538606123533,80.34119814602309 134.90580105409026,81.33722238245537 127.86047617299482,81.00521454052068 127.12317473231815,83.18697602467728 125.60761065874249,85.13158090313664" stroke="#4DD2FF" stroke-linecap="round" stroke-linejoin="round" stroke-width="0.5"><title>2026-05-12 7.1km</title><desc>1778538486000</desc></polyline><polyline fill="none" points="39.89566956087947,168.900053139776 41.45018193870783,181.50001719314605 56.99530568346381,180.60002035554498 60.881586622446775,127.50004470348358 46.89097525179386,116.70001059398055 38.34115719050169,125.70003993436694 49.222743809223175,184.20000715181231 60.10433043539524,172.5000447006896 60.10433043539524,126.60004236642271 48.44548762217164,115.80000715237111 38.34115719050169,123.00003209523857 37.563901003450155,173.40004236251116 49.222743809223175,184.20000715181231 60.881586622446775,174.3000399330631 61.65884280577302,126.60004236642271 39.89566956087947,120.30002342816442 46.89097525179386,186.0 59.327074244618416,174.3000399330631 60.881586622446775,125.70003993436694 50.777256187051535,115.80000715237111 38.34115719050169,123.90003479924053 39.118413373827934,176.10003479849547 50.777256187051535,184.20000715181231 60.881586622446775,126.60004236642271 50.777256187051535,114.90000362321734 38.34115719050169,123.00003209523857 46.89097525179386,184.20000715181231 60.10433043539524,177.00003209523857 63.21335517987609,130.2000511670485 50.777256187051535,115.80000715237111 39.118413373827934,123.00003209523857 47.668231435120106,185.10000362060964 61.65884280577302,174.3000399330631 60.881586622446775,122.10002929717302 49.99999999627471,114.0 37.563901003450155,125.70003993436694 39.118413373827934,174.3000399330631 49.99999999627471,186.0 62.436098996549845,125.70003993436694 53.10902474820614,114.90000362321734 40.672925747931004,123.90003479924053 46.113719061017036,185.10000362060964 60.881586622446775,173.40004236251116 61.65884280577302,124.80003741197288 53.88628093525767,114.90000362321734 37.563901003450155,123.90003479924053 37.563901003450155,173.40004236251116 50.777256187051535,184.20000715181231 61.65884280577302,168.0000550178811 60.10433043539524,124.80003741197288 47.668231435120106,114.0 37.563901003450155,125.70003993436694 38.34115719050169,175.20003741327673 51.55451237037778,185.10000362060964 61.65884280577302,123.00003209523857 49.99999999627471,114.90000362321734 37.563901003450155,123.90003479924053 39.118413373827934,174.3000399330631 51.55451237037778,184.20000715181231 60.10433043539524,123.90003479924053 48.44548762217164,114.90000362321734 37.563901003450155,123.90003479924053 39.89566956087947,174.3000399330631 53.10902474820614,184.20000715181231 60.10433043539524,123.00003209523857 48.44548762217164,115.80000715237111 38.34115719050169,126.60004236642271 39.89566956087947,175.20003741327673 52.331768557429314,183.30001059081405 60.10433043539524,123.00003209523857 48.44548762217164,114.90000362321734 38.34115719050169,126.60004236642271 37.563901003450155,172.5000447006896 54.66353712230921,185.10000362060964 59.327074244618416,123.90003479924053 49.222743809223175,114.90000362321734 36.78664481267333,124.80003741197288 46.89097525179386,184.20000715181231 59.327074244618416,175.20003741327673 60.881586622446775,129.3000491047278 48.44548762217164,115.80000715237111 36.78664481267333,124.80003741197288 39.118413373827934,175.20003741327673 53.88628093525767,185.10000362060964 60.881586622446775,123.00003209523857 46.89097525179386,114.90000362321734 36.78664481267333,126.60004236642271 39.89566956087947,176.10003479849547 53.88628093525767,182.40001393761486 60.881586622446775,123.00003209523857 50.777256187051535,114.0 39.118413373827934,123.90003479924053 38.34115719050169,173.40004236251116 49.99999999627471,184.20000715181231 60.10433043539524,175.20003741327673 62.436098996549845,123.90003479924053 50.777256187051535,114.0 37.563901003450155,125.70003993436694 46.89097525179386,184.20000715181231 60.10433043539524,176.10003479849547 61.65884280577302,126.60004236642271 52.331768557429314,115.80000715237111 38.34115719050169,121.20002641063184 46.113719061017036,184.20000715181231 60.10433043539524,176.10003479849547 61.65884280577302,128.40004694834352 52.331768557429314,115.80000715237111 38.34115719050169,124.80003741197288 37.563901003450155,173.40004236251116 48.44548762217164,183.30001059081405 60.881586622446775,173.40004236251116 61.65884280577302,129.3000491047278 51.55451237037778,115.80000715237111 37.563901003450155,126.60004236642271 46.89097525179386,184.20000715181231 60.10433043539524,172.5000447006896 60.881586622446775,129.3000491047278 53.10902474820614,116.70001059398055 37.563901003450155,123.90003479924053 47.668231435120106,184.20000715181231 60.10433043539524,177.00003209523857 62.436098996549845,127.50004470348358 52.331768557429314,114.90000362321734 38.34115719050169,123.00003209523857 47.668231435120106,184.20000715181231 60.881586622446775,175.20003741327673 60.881586622446775,126.60004236642271 49.222743809223175,115.80000715237111 39.118413373827934,123.90003479924053 47.668231435120106,184.20000715181231 60.881586622446775,173.40004236251116 62.436098996549845,126.60004236642271 40.672925747931004,119.40002035535872 36.78664481267333,154.50007221102715 37.563901003450155,121.20002641063184 53.88628093525767,117.60001393873245 61.65884280577302,130.2000511670485 63.21335517987609,175.20003741327673 45.3364628739655,184.20000715181231 36.78664481267333,123.90003479924053 53.88628093525767,115.80000715237111 63.21335517987609,132.00005501881242 63.990611370652914,174.3000399330631 45.3364628739655,185.10000362060964 36.78664481267333,121.20002641063184 53.10902474820614,115.80000715237111 63.21335517987609,130.2000511670485 59.327074244618416,181.50001719314605 39.89566956087947,179.70002342574298 36.009388629347086,136.50006304122508 36.78664481267333,120.30002342816442 56.99530568346381,117.60001393873245 61.65884280577302,177.90002929698676 48.44548762217164,185.10000362060964 37.563901003450155,171.60004694852978 36.009388629347086,123.00003209523857 49.222743809223175,114.0 61.65884280577302,131.1000531380996 60.881586622446775,176.10003479849547 43.78195049986243,183.30001059081405 37.563901003450155,162.60006437078118 37.563901003450155,120.30002342816442 57.77256187051535,118.50001719221473 60.881586622446775,177.90002929698676 41.45018193870783,182.40001393761486 38.34115719050169,154.50007221102715" stroke="#4DD2FF" stroke-linecap="round" stroke-linejoin="round" stroke-width="0.5"><title>2026-01-14 6.3km</title><desc>1768393184000</desc></polyline><polyline fill="none" points="136.5825825826032,137.32599523110548 136.24624624627177,137.353759984544 136.72672672674526,137.68693680735305 137.9039039039053,137.992348539643 139.36936936934944,137.93681915901834 141.4834834834328,136.88175879357732 142.2282282281667,139.01964005554328 143.11711711715907,139.76928279016283 145.83183183183428,140.54668790876167 147.80180180177558,140.1024566819251 149.62762762769125,140.8798608572979 152.8708708707709,146.51597530857543 155.5855855855625,148.82036317070015 156.33033033041283,150.15301238640677 157.9399399398826,151.6522350240557 160.51051051053219,152.54065939158318 162.93693693703972,154.31749950448284 164.11411411408335,154.12315817701165 166.3243243243778,154.73394474291126 167.02102102094796,156.12209097720915 171.82582582568284,158.98165010564844 176.07807807810605,160.09215047868202 178.43243243242614,158.31534772654413 179.9699699699413,155.28920407861006 180.40240240236744,156.84392424608814 180.0900900901761,158.00995859588147 182.99699699692428,158.0654839175986 183.21321321313735,158.73178690299392 184.3183183183428,159.23151308106026 185.95195195195265,161.39698267934727 185.66366366366856,162.56299769884208 184.96696696709841,163.11824120639358 186.0,162.25761329126544 185.5195195195265,162.5074732863868 185.87987987988163,161.42474499929813 184.24624624627177,159.20375053948374 183.3813813814195,158.81507466247422 182.82882882887498,158.00995859588147 180.13813813810702,158.03772125815158 180.0900900901761,155.28920407861006 178.6486486486392,158.09324657428078 177.27927927928977,159.37032574694604 175.76576576579828,160.09215047868202 174.3483483484015,159.34256321939756 172.066066066036,158.98165010564844 166.94894894899335,156.09432812125306 165.867867867928,154.42855162976775 164.30630630627275,154.03986899461597 162.88888888887595,154.2064473341452 160.43843843846116,152.40184327363386 157.81981981976423,151.34683848393615 156.42642642650753,150.06972199992742 155.63363363360986,148.68154517217772 152.75075075076893,146.2105730563344 150.85285285289865,143.23982433619676 149.89189189195167,140.90762525142054 147.46546546556056,139.85257630096748 146.04804804804735,140.24127901750035 144.51051051041577,140.01916324690683 138.8408408408286,141.21303340155282 135.23723723727744,142.54571953602135 133.55555555550382,145.794114892371 131.68168168177363,154.03986899461597 129.3513513513608,156.67734750633826 126.30030030035414,156.927212578099 116.30630630627275,155.3447299504187 115.15315315313637,150.65275417506928 114.0,142.82336166664027 120.75075075065251,142.351369877666 122.52852852852084,141.71279145998415 127.98198198201135,141.07421155725024 131.27327327337116,139.4638730342267 132.42642642650753,138.4921124598768 133.21921921917237,138.60317098529777 134.85285285278223,139.8248118001211 136.4144144144375,139.10293379376526 136.3903903904138,138.10340726721915 137.08708708710037,138.15893661414157 137.18318318307865,138.4921124598768" stroke="#4DD2FF" stroke-linecap="round" stroke-linejoin="round" stroke-width="0.5"><title>2026-01-10 8.4km</title><desc>1768033403000</desc></polyline><polyline fill="none" points="61.618181817932054,221.2701843372779 59.21818181802519,219.2529499156517 61.23636363632977,217.4248255827697 61.78181818150915,218.3704078036244 65.9272727270145,218.93775644764537 70.89090909087099,217.36178671719972 73.39999999990687,224.232985560433 77.54545454541221,224.8633669828414 58.29090909077786,230.53677110077115 56.21818181802519,232.04967014637077 52.89090909110382,239.29892713105073 48.3636363632977,258.7769479728304 44.21818181802519,263.18936007109005 41.272727272473276,264.2609411542071 36.74545454536565,264.2609411542071 14.0,260.79405452060746 37.07272727251984,264.45004350686213 41.9272727270145,264.2609411542071 44.21818181802519,263.18936007109005 48.3636363632977,258.7769479728304 53.327272727387026,237.9121192714083 56.98181818169542,231.67144572915277 64.89090909063816,228.83475528657436 78.14545454527251,225.9980519368546 82.4000000001397,226.69146950315917 85.45454545458779,224.67425262299366 86.0,221.96360716223717 83.5999999998603,214.7141486009932 76.94545454555191,209.79707655200036 77.0,195.54995649319608 72.1999999997206,195.92820282635512 70.78181818174198,197.4411858638632 69.90909090894274,213.57944310893072 73.18181818164885,224.8003288693144 58.618181817932054,228.07830232189735 56.381818181602284,225.6828618788859 57.909090908942744,224.232985560433 66.63636363623664,224.4851382058696 69.14545454550534,223.53956525970716 71.54545454541221,221.14410737733124 69.80000000004657,216.41620296647307 63.25454545463435,216.2270860443241 62.5999999998603,215.15542240120703 59.70909090898931,214.46199200348929 57.745454545132816,214.7141486009932 56.327272726921365,217.17267008160707 59.0,220.70283781614853 61.34545454522595,221.77449192292988 61.12727272720076,222.59399087924976" stroke="#4DD2FF" stroke-linecap="round" stroke-linejoin="round" stroke-width="0.5"><title>2025-11-16 6.1km</title><desc>1763283912000</desc></polyline></svg>