<?xml version="1.0" encoding="utf-8" ?>
<svg baseProfile="full" height="300mm" version="1.1" viewBox="0,0,200,300" width="200mm" xmlns="http://www.w3.org/2000/svg" xmlns:ev="http://www.w3.org/2001/xml-events" xmlns:xlink="http://www.w3.org/1999/xlink"><defs /><rect fill="#222222" height="300" width="200" x="0" y="0" /><text fill="#FFFFFF" style="font-size:12px; font-family:Arial; font-weight:bold;" x="10" y="20">Over 5km Runs</text><text fill="#FFFFFF" style="font-size:4px; font-family:Arial" x="10" y="280">Runner</text><text fill="#FFFFFF" style="font-size:9px; font-family:Arial" x="10" y="290">saveole</text><text fill="#FFFFFF" style="font-size:4px; font-family:Arial" x="65" y="280">SPECIAL TRACKS</text><rect fill="yellow" height="2.6" width="2.6" x="65" y="283" /><text fill="#FFFFFF" style="font-size:3px; font-family:Arial" x="70" y="285.5">Over 20.0 km</text><rect fill="red" height="2.6" width="2.6" x="65" y="287" /><text fill="#FFFFFF" style="font-size:3px; font-family:Arial" x="70" y="289.5">Over 40.0 km</text><text fill="#FFFFFF" style="font-size:4px; font-family:Arial" x="120" y="280">STATISTICS</text><text fill="#FFFFFF" style="font-size:3px; font-family:Arial" x="120" y="285">Number: 9</text><text fill="#FFFFFF" style="font-size:3px; font-family:Arial" x="120" y="290">Weekly: 1.5</text><text fill="#FFFFFF" style="font-size:3px; font-family:Arial" x="141" y="285">Total: 68.9 km</text><text fill="#FFFFFF" style="font-size:3px; font-family:Arial" x="141" y="290">Avg: 7.7 km</text><text fill="#FFFFFF" style="font-size:3px; font-family:Arial" x="167" y="285">Min: 6.1 km</text><text fill="#FFFFFF" style="font-size:3px; font-family:Arial" x="167" y="290">Max: 10.4 km</text><polyline fill="none" points="54.163305879046675,55.107872726832284 52.78301618859405,53.474001500420854 51.29537063342286,50.66796951851575 49.20959954557475,48.83869649248663 45.69752911099931,46.867322509380756 42.384833853982855,46.600918909185566 34.13376881566364,47.5244496485393 31.31184322637273,47.50668948816019 29.103379721636884,48.270374749365146 27.784436239744537,48.41245535889175 27.247656915627886,48.18157430952124 25.714001704007387,48.39469528905465 25.14654927578522,48.71437626951956 23.459528543055058,48.803176437853836 22.07923885260243,49.62013586277317 20.913660891761538,49.90429476494319 19.05793808575254,50.82780799693137 18.567168418026995,50.774528520400054 18.337120136304293,51.21852366019448 17.309571144578513,51.73355660503148 15.83726214140188,53.172088836101466 15.177790400455706,53.367444149189396 13.582788980391342,54.7171657835861 13.0,54.84148172415735 13.50610621983651,54.73492520912259 15.28514626523247,53.31416544919193 15.74524282879429,53.24312715715496 15.99062766256975,52.72809867373144 18.766543595585972,50.75676869129529 21.9105367793818,49.691175631814986 23.520874751440715,48.71437626951956 25.131212723674253,48.76765637594508 27.002272081794217,48.199334401128 27.953138313023373,48.48349562023941 28.505254189192783,48.16381421616825 29.14938937802799,48.21709449090122 29.486793524527457,47.93293283734238 30.80573700647801,47.64877072042145 31.526554955984466,47.73757143173134 32.46208463504445,47.43564882861392 33.16756603238173,47.63101057270251 35.099971599003766,47.5777301187627 35.69809713144787,47.20476648499607 37.33910820784513,47.29356742258824 40.71314967342187,46.6364394127595 45.406134620832745,46.849562282062834 46.663731894339435,47.275807238635025 46.78642431128537,47.63101057270251 47.70661743823439,48.234854578826344 49.07157057657605,48.76765637594508 51.724794092646334,51.111964929805254 51.893496165866964,52.0532314604352 52.70633342798101,53.438482390585705 53.5958534507663,54.20214165651123 55.35955694405129,56.90156154277793 56.09571144566871,57.452095991538954 56.90854870778276,59.28127860717359 57.50667424022686,60.098188913660124 58.16614598123124,60.48888379367418 61.003408122691326,64.69767764832068 61.754899176361505,66.15386114045396 62.12297642719932,67.66330679738894 62.337688156811055,68.95964381066733 62.061630218755454,69.4391084828676 62.214995739923324,70.8419790234475 62.32235160464188,71.14386108139297 62.7824481682037,71.2148920778709 63.07384265837027,72.67102112725843 62.736438511812594,73.39908109081443 64.13206475437619,72.61774832759693 67.0,70.38027604132367 66.89264413522324,70.22045549337054 66.4478841238888,70.38027604132367 65.3743254757137,68.1960492026119 64.62283442210173,67.30814428940357 64.39278614032082,66.59781710231618 65.4663447883795,66.02955326843949 65.06759443343617,65.17715404398041 63.96336268109735,65.58559585922922 63.165861971036065,65.33697921609564 62.07696677080821,63.98733982289559 61.72422607213957,63.845271910438896 59.30105083779199,60.24025988046196 59.423743254796136,59.86732334563567 58.9789832434617,59.45886812997924 60.06787844363134,58.588677739244304 59.94518602674361,58.109183218330145 59.393070150515996,57.87831501555047 58.18148253340041,58.60643677027838 57.64470320928376,57.754001241206424 57.76739562628791,57.18570857222949 55.97301902878098,58.109183218330145 56.15705765411258,58.251255806550034 55.98835558077553,58.19797859954997 55.8656631638878,58.535400635460974 57.56802044872893,60.89733659545891 57.52201079239603,61.18147711038182 52.399602385703474,63.91630588116823 50.60522578808013,64.28923375242448 48.657483669463545,64.0938906812662 48.28940641862573,65.05284547545307 47.81397330301115,65.51456256875827" stroke="#4DD2FF" stroke-linecap="round" stroke-linejoin="round" stroke-width="0.5"><title>2026-05-28 10.4km</title><desc>1779920511000</desc></polyline><polyline fill="none" points="125.4698517298093,65.23334586138662 123.40593080723193,61.97804197150981 122.65864909382071,61.42175061996386 121.53772652382031,59.81467811726907 121.53772652382031,59.07294803811237 120.79044481052551,58.00155534160149 118.6731466227211,56.106000507614226 116.78714991756715,55.3848608492699 114.527512355824,53.65411517342727 110.595387149835,53.32444765038963 107.90873146627564,53.44807303455309 104.67051070835441,54.045594658804475 96.96639209229033,54.56069808975735 93.8883031301666,55.40546487523534 92.64283360785339,55.137612374237506 90.57891268539242,55.735129004577175 88.58616144978441,55.817544952908065 86.8780889621703,56.827137593441876 82.69686985167209,58.393026408259175 77.00329489295837,62.80217449358315 76.25601317954715,62.67855482941377 75.0283360790927,63.564494085585466 73.07116968696937,64.34741391788702 73.0,64.7800788404129 73.51598023076076,65.23334586138662 73.71169686992653,66.09867098880932 74.42339373973664,66.01625923138636 74.6191103789024,65.50118498706433 74.45897858322132,64.82128497523081 73.96079077431932,64.71826962246269 73.6583196046995,64.1619858105696 75.09950576606207,63.60570046816429 76.23822075792123,62.69915811200917 77.02108731470071,62.719761392479995 77.53706754534505,62.081058720475994 79.10280065902043,61.00968196534086 79.60098846792243,60.94787159464613 79.9212520592846,60.35037037087022 81.48698517295998,59.25838081302936 82.50115321250632,58.92872242894373 83.03492586489301,58.24880031400244 84.95650741353165,57.61008351696364 85.56144975288771,57.11559170750843 86.70016474463046,56.88894922393956 88.4616144974716,55.817544952908065 90.32981878088322,55.735129004577175 92.7673805601662,55.137612374237506 93.60362438217271,55.36425682117988 95.04481054365169,55.220028566152905 97.14431630971376,54.47828162899532 97.89159802312497,54.68432271790516 99.13706754532177,54.27224033008679 99.8131795716472,54.56069808975735 102.0906095552491,54.41646926139947 102.64217462926172,54.045594658804475 104.02998352551367,53.86015710231732 104.93739703460597,54.12801129590662 108.6382207578281,53.345051886339206 110.70214168040548,53.32444765038963 114.81219110370148,53.7777403559885 116.73377265234012,55.24063260885305 118.94003294885624,56.33264386888186 121.48434925859328,58.722685665867175 121.53772652382031,59.6086422571243 122.569686985109,61.25692325887212 123.42372322885785,61.936835257161874 125.30971993401181,64.92430027548107 127.0,66.67555234959582" stroke="#4DD2FF" stroke-linecap="round" stroke-linejoin="round" stroke-width="0.5"><title>2026-05-23 7.2km</title><desc>1779492268000</desc></polyline><polyline fill="none" points="176.95619987667305,70.9843771445303 177.20604565081885,70.05861630929576 180.05428747687256,70.23219681069895 180.43738433072576,69.84646214684471 181.3035163479508,69.7500283580739 186.55027760646772,67.14629749089363 186.98334361508023,66.58697285376547 183.08574953727657,60.955060263411724 183.23565700184554,60.24141554116795 181.76989512646105,58.601951258198824 180.05428747687256,55.40013300233113 178.4386181369191,53.953510603212635 177.92227020359132,53.857068716781214 177.6890808143071,53.43272383254953 176.23997532390058,52.93122410630167 175.0240592227201,51.793200567233725 173.40838988276664,51.25311920499371 171.84268969774712,51.19525325333234 171.4762492289301,51.40742832289834 170.09376927826088,51.156675942387665 169.02776064159116,51.38813969005423 168.4947563233436,51.156675942387665 165.3300431832904,51.851066336079384 164.73041332513094,51.5810259301652 163.26465144980466,51.754623378205 162.58173966687173,52.1211063566152 161.06600863666972,52.14039491474978 159.98334361508023,52.58403120962612 159.06724244292127,52.06324067033711 158.3510178902652,52.08252923440887 154.96977174584754,53.04695493032341 153.82048118452076,52.796204722166294 151.638494756422,53.33628168073483 149.93954349169508,53.39414697770553 148.42381246149307,54.30070098748547 147.09130166575778,54.647890734806424 146.64157927210908,55.091521151785855 144.65946946339682,55.57372694721562 141.57803824811708,58.17761701262498 139.6625539790839,59.277026506431866 139.1628624306759,59.89423605472257 137.6304750154959,60.08711362583563 137.36397285631392,60.569306693651015 135.33189389278414,61.417963509389665 135.44848858739715,61.90015318665246 135.11536088841967,62.17017886941903 133.0,59.45061689529393 135.3485502777039,59.95209934673039 137.29734731657663,59.31560216212529 143.89327575580683,54.51287257543299 144.95928439247655,54.377854319725884 147.92412091308506,52.69976224597485 150.90561381872976,51.73533478072204 154.83652066631475,51.40742832289834 156.56878470088122,50.88663454564812 157.851326341799,51.098809961244115 160.04996915487573,50.80947979007033 160.14990746456897,50.52014917654742 161.2825416410342,49.999352957485826 163.66440468846122,49.999352957485826 165.69648365210742,49.55571060338116 166.86243059841217,49.71002110543486 167.46206045657163,49.43997764434607 168.29487970395712,49.61357705637056 169.5107958051376,49.0156228554697 170.69339913630392,49.150644936962635 171.90931523754261,49.49784413272573 172.1091918568709,49.845042691449635 175.94016039487906,50.86734585973318 175.50709438620834,52.27541476675833 177.63911165948957,53.39414697770553 180.10425663169008,55.41942122633918 180.75385564466706,56.268101134191966 180.82048118446255,57.05891307767888 181.76989512646105,58.54408755348413 182.53608883405104,59.142011649382766 184.36829117831076,61.996590974740684 185.4176434300025,62.9223912400339 185.101172116003,64.09892254327133 187.0,66.64483409970126 186.1838371375925,67.37774168493343 181.32017273287056,69.90432239655638 179.55459592846455,70.25148352330143 177.1727328809793,70.17433666126453" stroke="#4DD2FF" stroke-linecap="round" stroke-linejoin="round" stroke-width="0.5"><title>2026-05-21 9.2km</title><desc>1779317412000</desc></polyline><polyline fill="none" points="49.21070234104991,168.54324326568167 49.451505016651936,167.91587666326086 54.11705685616471,168.12499899187242 55.351170568494126,167.39307028229814 56.52508361195214,167.39307028229814 67.0,161.88612786860904 60.046822742326185,151.98735024634516 59.806020066840574,151.22053157398477 60.25752508349251,150.55827770067845 55.68227424740326,144.45851067701005 55.77257525071036,143.51739407796413 54.899665551725775,141.8791478946514 50.1438127089059,137.76606970245484 43.70234113698825,134.24551433246234 34.01003344473429,133.68779926528805 27.207357859471813,134.87294269585982 26.635451504960656,134.55922865797766 18.568561872816645,135.60494099825155 14.38461538462434,135.5003699081426 13.481605351204053,136.09293899612385 13.812709030113183,136.68550705740927 13.692307692253962,132.78151034130133 13.150501672294922,132.7466530270758 13.0,133.61808481786284 14.444816053495742,133.82722811732674 18.568561872816645,133.19979783537565 18.38795986608602,132.8163676520635 20.013377926312387,131.97979121410754 24.528428093530238,131.80550419876818 28.501672240672633,131.03864027536474 30.518394648795947,131.24778515228536 31.66220735781826,130.7597802406235 33.107023411314,131.00378278348944 35.36454849492293,129.92319877183763 37.71237458183896,130.23691706248792 39.63879598653875,130.79463775735348 39.96989966544788,131.45692990129464 46.83277591969818,133.2346551035298 46.200668896199204,135.95351106784074 50.1438127089059,137.9054968918499 55.1705685617635,142.0882861422724 55.862876254017465,143.44768163436675 55.80267558514606,144.4933667976875 57.54849498323165,147.35155659890734 59.083612040034495,148.5017969738692 62.36454849492293,153.62554801435908 64.08026755833998,155.01975270058028 64.08026755833998,155.78656285564648 63.41806020052172,156.3442418888153 63.53846153838094,157.32017800884205 66.96989966544788,162.02554522603168 56.735785953118466,167.6370466928056 55.47157190623693,167.67190045159077 53.99665551830549,168.50838959572138 49.331103678792715,167.98558412038255 48.75919732428156,169.79797301910003 48.2173913042061,170.07680122816237" stroke="#4DD2FF" stroke-linecap="round" stroke-linejoin="round" stroke-width="0.5"><title>2026-05-20 6.5km</title><desc>1779229838000</desc></polyline><polyline fill="none" points="73.0,173.4444406493567 94.07317073165905,156.92872245944454 94.71769590023905,157.48034180313698 98.5568240787834,157.57768629398197 100.01401141670067,157.02606711894623 94.43746756610926,146.7722661482403 98.8370524130296,143.91671849551494 100.96678775292821,143.2028275813209 103.48884276067838,141.22339440253563 105.59055526717566,144.33856237438158 107.29994810582139,145.31204611595604 108.36481577565428,148.5245213487069 109.65386611304712,150.2118690959178 111.02698495064396,150.92574429750675 117.0518941358896,160.69269429243286 118.53710430720821,167.6689037687902 122.09600415150635,172.21146965792286 119.77010897756554,173.4444406493567 119.26569797610864,174.48272830879432 119.91022314480506,174.61251402818016 127.0,169.22636222909205 125.76699532952625,168.83699832801358 124.14167099120095,165.3651491656783 122.51634665275924,163.38585373360547 122.12402698490769,162.08794841211056 124.08562532428186,161.01717254010146 123.24494032165967,159.45967393615865 121.59159314993303,160.3357678380853 119.77010897756554,159.81660137232393 116.79968863504473,156.5717917867296 112.54021795536391,150.17942018504255 112.20394395419862,148.9139100839384 114.13751946028788,147.4861490605399 114.1655422935728,146.999410884775 113.01660612341948,146.35042549332138 111.30721328489017,147.74574245000258 110.46652828226797,147.3888014848926 109.56979761272669,145.7338881463511 109.90607161389198,143.49487405773834 107.69226777367294,142.1968876674946 106.8796056045685,140.05519855616149 104.91800726519432,138.2379964987631 101.75142708863132,133.5002423694532 100.65853658528067,133.72739657358034 97.2117280747043,129.24918379687006 94.1292163983453,126.8477973791305 91.27088738966268,125.38748597181984 90.34613388683647,127.26966387205175 94.57758173311595,129.86575306311715 99.36948624800425,134.31150664019515 99.4815775816096,135.70687635085778 100.99481058632955,138.33534687195788 102.28386092360597,139.27639894429012 105.56253243377432,144.30611286507337 107.18785677209962,145.57164127769647 108.36481577565428,148.49207226597355 108.53295277629513,150.69860236151726 109.7099117799662,151.9965540994308 101.35910742077976,156.60424004629022" stroke="#4DD2FF" stroke-linecap="round" stroke-linejoin="round" stroke-width="0.5"><title>2026-05-13 7.6km</title><desc>1778624699000</desc></polyline><polyline fill="none" points="167.38837485702243,159.92580413151882 168.34072255180217,161.2063977836806 169.13946577953175,166.61329697928159 170.67551044817083,167.53815292951185 170.98271938203834,170.09927969958517 174.36201765353326,174.36778257164406 171.6585790363606,176.18188049210585 171.32064920919947,176.67986650785315 171.78146260988433,177.0 180.04538292821962,170.9174134588393 179.89177846116945,170.52613233480952 178.87798897980247,170.73955845684395 176.81968912365846,166.50658267355175 175.314365348313,164.76357772949268 174.88427284092177,163.30513833501027 176.97329359059222,162.09569616778754 176.20527125603985,160.49495744562591 175.744457855355,160.28152506158222 173.93192514625844,161.27754173785797 172.21155511715915,160.67281766602537 169.17018667294178,157.36460273590637 168.40216433850583,155.40811678976752 164.34700641280506,150.10776341418386 163.94763479882386,148.86270229215734 166.19026001542807,147.0840358439309 165.97521376179066,146.40814021747792 164.8078198133735,145.76781683793524 162.22726476972457,147.26190289648366 161.21347528835759,145.6966697232856 162.25798566325102,143.38438060323824 161.9507767293835,142.5661823230621 159.15517543209717,141.67683419125387 158.41787399118766,139.2222215910151 155.929481627536,136.83874066537828 152.45802067616023,131.751555298717 151.44423119456042,132.17845482256962 151.4135103013832,131.32465525285807 150.2768372463761,130.96890481581795 149.0480015113717,128.83439457925851 146.98970165499486,126.73544678508188 141.06056923337746,123.0 139.9546170718968,125.06339459493756 144.9928435855545,128.0517375555355 149.0787224045489,131.68040532732266 149.84674473910127,134.24179516092408 151.56711476820055,137.08776182189467 153.01099675672594,138.1549933378992 157.06615468254313,144.13142953213537 156.66678306856193,145.16306590108434 154.20911159843672,141.42781630824902 153.25676390400622,141.2855202954961 143.39535712997895,146.0879786745354 143.51824070338625,144.949624143861 142.5351721154293,143.5266757606296 140.75336029950995,137.79924986170954 141.85931246122345,137.58580360200722 143.97905410418753,144.3804454865167 147.69628220272716,151.3528200959263 150.2153954594396,157.7558986095246 148.67935079080053,158.5029167868488 143.39535712997895,158.2539109053905 142.84238104929682,159.89023201851523 141.7057079942897,161.34868567736703" stroke="#4DD2FF" stroke-linecap="round" stroke-linejoin="round" stroke-width="0.5"><title>2026-05-12 7.1km</title><desc>1778538486000</desc></polyline><polyline fill="none" points="32.42175217345357,254.175039854832 33.58763645589352,263.62501289509237 45.246479261666536,262.95001526689157 48.16118996590376,223.12503352807835 37.668231438845396,215.0250079454854 31.255867894738913,221.7750299507752 39.41705786064267,265.6500053643249 47.57824782654643,256.87503352575004 47.57824782654643,222.45003177504987 38.83411571756005,214.35000536497682 31.255867894738913,219.7500240718946 30.672925751656294,257.55003177234903 39.41705786064267,265.6500053643249 48.16118996590376,258.22502995003015 48.74413210526109,222.45003177504987 32.42175217345357,217.72501757135615 37.668231438845396,267.0 46.99530568346381,258.22502995003015 48.16118996590376,221.7750299507752 40.58294213935733,214.35000536497682 31.255867894738913,220.42502609966323 31.83881003409624,259.57502609910443 40.58294213935733,265.6500053643249 48.16118996590376,222.45003177504987 40.58294213935733,213.67500271787867 31.255867894738913,219.7500240718946 37.668231438845396,265.6500053643249 47.57824782654643,260.2500240718946 49.910016387701035,225.15003837551922 40.58294213935733,214.35000536497682 31.83881003409624,219.7500240718946 38.251173578202724,266.3250027159229 48.74413210526109,258.22502995003015 48.16118996590376,219.07502197334543 40.0,213.0 30.672925751656294,221.7750299507752 31.83881003409624,258.22502995003015 40.0,267.0 49.327074248343706,221.7750299507752 42.331768561154604,213.67500271787867 33.0046943128109,220.42502609966323 37.08528929576278,266.3250027159229 48.16118996590376,257.55003177234903 48.74413210526109,221.10002805944532 42.91471070051193,213.67500271787867 30.672925751656294,220.42502609966323 30.672925751656294,257.55003177234903 40.58294213935733,265.6500053643249 48.74413210526109,253.50004126364365 47.57824782654643,221.10002805944532 38.251173578202724,213.0 30.672925751656294,221.7750299507752 31.255867894738913,258.9000280601904 41.16588427871466,266.3250027159229 48.74413210526109,219.7500240718946 40.0,213.67500271787867 30.672925751656294,220.42502609966323 31.83881003409624,258.22502995003015 41.16588427871466,265.6500053643249 47.57824782654643,220.42502609966323 38.83411571756005,213.67500271787867 30.672925751656294,220.42502609966323 32.42175217345357,258.22502995003015 42.331768561154604,265.6500053643249 47.57824782654643,219.7500240718946 38.83411571756005,214.35000536497682 31.255867894738913,222.45003177504987 32.42175217345357,258.9000280601904 41.748826421797276,264.97500794380903 47.57824782654643,219.7500240718946 38.83411571756005,213.67500271787867 31.255867894738913,222.45003177504987 30.672925751656294,256.87503352575004 43.49765283986926,266.3250027159229 46.99530568346381,220.42502609966323 39.41705786064267,213.67500271787867 30.089983612298965,221.10002805944532 37.668231438845396,265.6500053643249 46.99530568346381,258.9000280601904 48.16118996590376,224.47503682877868 38.83411571756005,214.35000536497682 30.089983612298965,221.10002805944532 31.83881003409624,258.9000280601904 42.91471070051193,266.3250027159229 48.16118996590376,219.7500240718946 37.668231438845396,213.67500271787867 30.089983612298965,222.45003177504987 32.42175217345357,259.57502609910443 42.91471070051193,264.300010453444 48.16118996590376,219.7500240718946 40.58294213935733,213.0 31.83881003409624,220.42502609966323 31.255867894738913,257.55003177234903 40.0,265.6500053643249 47.57824782654643,258.9000280601904 49.327074248343706,220.42502609966323 40.58294213935733,213.0 30.672925751656294,221.7750299507752 37.668231438845396,265.6500053643249 47.57824782654643,259.57502609910443 48.74413210526109,222.45003177504987 41.748826421797276,214.35000536497682 31.255867894738913,218.40001980774105 37.08528929576278,265.6500053643249 47.57824782654643,259.57502609910443 48.74413210526109,223.8000352117233 41.748826421797276,214.35000536497682 31.255867894738913,221.10002805944532 30.672925751656294,257.55003177234903 38.83411571756005,264.97500794380903 48.16118996590376,257.55003177234903 48.74413210526109,224.47503682877868 41.16588427871466,214.35000536497682 30.672925751656294,222.45003177504987 37.668231438845396,265.6500053643249 47.57824782654643,256.87503352575004 48.16118996590376,224.47503682877868 42.331768561154604,215.0250079454854 30.672925751656294,220.42502609966323 38.251173578202724,265.6500053643249 47.57824782654643,260.2500240718946 49.327074248343706,223.12503352807835 41.748826421797276,213.67500271787867 31.255867894738913,219.7500240718946 38.251173578202724,265.6500053643249 48.16118996590376,258.9000280601904 48.16118996590376,222.45003177504987 39.41705786064267,214.35000536497682 31.83881003409624,220.42502609966323 38.251173578202724,265.6500053643249 48.16118996590376,257.55003177234903 49.327074248343706,222.45003177504987 33.0046943128109,217.0500152669847 30.089983612298965,243.37505415873602 30.672925751656294,218.40001980774105 42.91471070051193,215.70001045428216 48.74413210526109,225.15003837551922 49.910016387701035,258.9000280601904 36.50234715640545,265.6500053643249 30.089983612298965,220.42502609966323 42.91471070051193,214.35000536497682 49.910016387701035,226.5000412641093 50.49295852705836,258.22502995003015 36.50234715640545,266.3250027159229 30.089983612298965,218.40001980774105 42.331768561154604,214.35000536497682 49.910016387701035,225.15003837551922 46.99530568346381,263.62501289509237 32.42175217345357,262.2750175697729 29.507041472941637,229.8750472809188 30.089983612298965,217.72501757135615 45.246479261666536,215.70001045428216 48.74413210526109,260.9250219729729 38.83411571756005,266.3250027159229 30.672925751656294,256.20003521163017 29.507041472941637,219.7500240718946 39.41705786064267,213.0 48.74413210526109,225.82503985380754 48.16118996590376,259.57502609910443 35.33646287769079,264.97500794380903 30.672925751656294,249.4500482780859 30.672925751656294,217.72501757135615 45.829421404749155,216.3750128946267 48.16118996590376,260.9250219729729 33.58763645589352,264.300010453444 31.255867894738913,243.37505415873602" stroke="#4DD2FF" stroke-linecap="round" stroke-linejoin="round" stroke-width="0.5"><title>2026-01-14 6.3km</title><desc>1768393184000</desc></polyline><polyline fill="none" points="89.9369369369233,230.4944964233582 89.68468468473293,230.51531998842256 90.04504504508805,230.76520260552934 90.92792792792898,230.9942614047468 92.02702702698298,230.9526143692783 93.6126126126619,230.16131909519027 94.17117117112502,231.764730041672 94.8378378378693,232.3269620926294 96.8738738738466,232.9100159315858 98.35135135136079,232.5768425114511 99.72072072082665,233.15989564299525 102.15315315313637,237.38698148143885 104.18918918923009,239.11527237805421 104.74774774780963,240.11475928983418 105.95495495491195,241.2391762680636 107.88288288295735,241.9054945437092 109.70270270272158,243.23812462837668 110.58558558556251,243.0923686327733 112.24324324331246,243.55045855720527 112.76576576579828,244.59156823292142 116.36936936934944,246.7362375792436 119.55855855857953,247.5691128590115 121.32432432437781,246.23651079492993 122.47747747751419,243.9669030589721 122.80180180177558,245.1329431845952 122.56756756757386,246.00746894691838 124.74774774769321,246.04911293819896 124.90990990994032,246.54884017726 125.73873873869888,246.9236348108243 126.96396396390628,248.54773700953228 126.74774774780963,249.42224827416067 126.22522522532381,249.83868090480973 127.0,249.19320996846363 126.63963963964488,249.38060496479739 126.90990990994032,248.56855874948087 125.68468468473293,246.90281290463463 125.03603603609372,246.6113059968775 124.62162162165623,246.00746894691838 122.60360360355116,246.02829094362096 122.56756756757386,243.9669030589721 121.48648648650851,246.06993493072514 120.45945945952553,247.02774431022408 119.32432432437781,247.5691128590115 118.26126126130112,247.00692241457 116.54954954958521,246.7362375792436 112.7117117117159,244.57074609096162 111.900900900946,243.32141372234037 110.72972972970456,243.02990174597653 109.66666666662786,243.1548355006089 107.82882882887498,241.80138245524722 105.86486486485228,241.01012886296667 104.81981981988065,240.05229149997467 104.2252252252074,239.01115887914784 102.0630630630767,237.15792979227263 100.63963963964488,234.92986825216212 99.91891891893465,233.18071893858723 98.09909909917042,232.38943222575472 97.03603603609372,232.6809592631471 95.88288288284093,232.51437243519467 91.63063063065056,233.40977505118644 88.92792792792898,234.40928965204512 87.66666666662786,236.8455861692928 86.26126126130112,243.02990174597653 84.5135135136079,245.00801062976825 82.2252252252074,245.19540943359607 74.72972972970456,244.00854746284313 73.86486486485228,240.4895656313165 73.0,234.6175212500093 78.06306306296028,234.26352740827133 79.39639639644884,233.7845935949881 83.48648648650851,233.3056586679595 85.95495495502837,232.09790477568458 86.81981981988065,231.36908434491488 87.41441441443749,231.45237823898788 88.63963963952847,232.36860885011265 89.81081081076991,231.82720034534577 89.79279279278126,231.0775554504362 90.31531531538349,231.119202460628 90.3873873873381,231.36908434491488" stroke="#4DD2FF" stroke-linecap="round" stroke-linejoin="round" stroke-width="0.5"><title>2026-01-10 8.4km</title><desc>1768033403000</desc></polyline><polyline fill="none" points="168.71363636362366,233.45263825295842 166.9136363635771,231.93971243669512 168.42727272748016,230.56861918704817 168.8363636364229,231.27780585270375 171.9454545455519,231.70331733571948 175.66818181844428,230.5213400378707 177.55000000004657,235.67473917029565 180.65909090917557,236.1475252371456 166.21818181825802,240.4025783255638 164.6636363635771,241.53725260976353 162.16818181844428,246.9741953482444 158.77272727247328,261.5827109796228 155.66363636380993,264.89202005331754 153.4545454545878,265.6957058656553 150.05909090908244,265.6957058656553 133.0,263.09554089044104 150.3045454544481,265.83753263013205 153.9454545455519,265.6957058656553 155.66363636380993,264.89202005331754 158.77272727247328,261.5827109796228 162.49545454559848,245.93408945354167 165.23636363632977,241.25358429685002 171.16818181821145,239.12606646490167 181.109090909129,236.99853895261185 184.3000000002794,237.51860212735482 186.59090909105726,236.00568946721614 187.0,233.97270537167788 185.20000000018626,228.53561145073036 180.20909090922214,224.84780741398572 180.25000000023283,214.16246736986795 176.64999999990687,214.4461521197518 175.5863636364229,215.58088939788286 174.93181818188168,227.6845823316835 177.38636363646947,236.10024665197125 166.46363636362366,238.55872674140846 164.78636363637634,236.7621464091353 165.93181818188168,235.67473917029565 172.4772727272939,235.86385365438764 174.359090909129,235.15467394475127 176.15909090917557,233.35808053298388 174.85000000009313,229.8121522248548 169.9409090911504,229.67031453322852 169.44999999995343,228.86656680089072 167.28181818174198,228.34649400261696 165.80909090908244,228.53561145073036 164.74545454536565,230.3795025612053 166.75000000023283,233.02712836206774 168.50909090903588,233.8308689421974 168.34545454545878,234.44549315940822" stroke="#4DD2FF" stroke-linecap="round" stroke-linejoin="round" stroke-width="0.5"><title>2025-11-16 6.1km</title><desc>1763283912000</desc></polyline></svg>