<?xml version="1.0" encoding="utf-8" ?>
<svg baseProfile="full" height="300mm" version="1.1" viewBox="0,0,200,300" width="200mm" xmlns="http://www.w3.org/2000/svg" xmlns:ev="http://www.w3.org/2001/xml-events" xmlns:xlink="http://www.w3.org/1999/xlink"><defs /><rect fill="#222222" height="300" width="200" x="0" y="0" /><text fill="#FFFFFF" style="font-size:12px; font-family:Arial; font-weight:bold;" x="10" y="20">Over 5km Runs</text><text fill="#FFFFFF" style="font-size:4px; font-family:Arial" x="10" y="280">Runner</text><text fill="#FFFFFF" style="font-size:9px; font-family:Arial" x="10" y="290">saveole</text><text fill="#FFFFFF" style="font-size:4px; font-family:Arial" x="65" y="280">SPECIAL TRACKS</text><rect fill="yellow" height="2.6" width="2.6" x="65" y="283" /><text fill="#FFFFFF" style="font-size:3px; font-family:Arial" x="70" y="285.5">Over 20.0 km</text><rect fill="red" height="2.6" width="2.6" x="65" y="287" /><text fill="#FFFFFF" style="font-size:3px; font-family:Arial" x="70" y="289.5">Over 40.0 km</text><text fill="#FFFFFF" style="font-size:4px; font-family:Arial" x="120" y="280">STATISTICS</text><text fill="#FFFFFF" style="font-size:3px; font-family:Arial" x="120" y="285">Number: 13</text><text fill="#FFFFFF" style="font-size:3px; font-family:Arial" x="120" y="290">Weekly: 1.4</text><text fill="#FFFFFF" style="font-size:3px; font-family:Arial" x="141" y="285">Total: 95.7 km</text><text fill="#FFFFFF" style="font-size:3px; font-family:Arial" x="141" y="290">Avg: 7.4 km</text><text fill="#FFFFFF" style="font-size:3px; font-family:Arial" x="167" y="285">Min: 5.6 km</text><text fill="#FFFFFF" style="font-size:3px; font-family:Arial" x="167" y="290">Max: 10.4 km</text><polyline fill="none" points="55.30787589494139,59.034494070132496 51.69928400951903,53.8410948763194 51.80238663486671,53.08495627155935 49.25918854417978,49.70219508279115 49.24200477323029,49.00573697472282 48.48591885442147,47.951095681855804 45.03198090690421,45.18512258728151 41.698329355567694,43.67277540451323 41.26873508351855,43.87176912414725 39.41288782819174,43.51358028269897 36.904057279229164,43.53347968003072 32.934606205206364,44.170259323349455 32.694033412844874,43.991165258630645 28.00286396179581,44.60804412346624 26.078281622903887,44.568245545829996 22.435322195698973,45.5234091697057 21.3183770882315,45.22492103916011 19.393794749397784,45.801997679736814 17.486396181280725,45.84179600584321 13.01861575176008,47.83170196901483 12.400000000023283,48.169983965854044 13.774701670568902,47.77200508522219 14.427684964204673,47.2347323095164 15.699284009519033,46.956145843782 17.46921241050586,45.90149347978877 19.03293556079734,45.96119093555899 21.19809069216717,45.34431634613429 22.108830548881087,45.56320755256456 23.517899761267472,45.40401397224923 24.10214797127992,44.966230956983054 26.28448687348282,44.82693615538301 27.332696897385176,44.46874906629091 28.415274462953676,44.707540532021085 30.442959427193273,44.62794340921391 31.26778042956721,44.1503599909629 32.59093078755541,44.070762641043984 33.22673031024169,44.34935322390811 36.62911694514332,43.573278468611534 37.02434367540991,43.8319703964371 38.175656324543525,43.63297663621779 41.28591885440983,43.911567843766534 41.578042959445156,43.692674785561394 43.347971360373776,44.26975595505792 43.48544152738759,44.647842692924314 44.56801909307251,45.34431634613429 46.080190930806566,45.90149347978877 46.26921241043601,46.339274397992995 47.02529832930304,46.59796266097692 48.52028639614582,47.951095681855804 50.22147971356753,51.23439417604823 51.02911694505019,51.89104724973731 52.953699283942115,54.83600963211211 53.95035799522884,55.65183594923292 54.843914081167895,57.82072348496877 54.74081145582022,58.63653733249521 55.59999999997672,59.55183661666524 54.48305489256745,60.48702928039711 49.34510739851976,62.99411943167797 48.26252983289305,63.25278563149914 45.56467780424282,63.17319606798992 45.28973747015698,64.08847408943984 44.82577565626707,64.48641971731558" stroke="#4DD2FF" stroke-linecap="round" stroke-linejoin="round" stroke-width="0.5"><title>2026-06-23 6.7km</title><desc>1782188595000</desc></polyline><polyline fill="none" points="103.33812982775271,36.49266743869521 102.55268751643598,32.85474119777791 101.37452404666692,36.49266743869521 94.89462496805936,73.55370307876728 98.03639421798289,74.69053493300453 99.80363942217082,69.68847044021823 103.92721156217158,38.5389983439818 102.35632693767548,32.85474119777791 95.48370670154691,72.87160368729383 97.44731248356402,74.91790123470128 99.60727884341031,70.82530426420271 103.14176924992353,33.08211176120676 95.09098554588854,73.7810694957152 97.44731248356402,75.37263376801275 99.80363942217082,70.82530426420271 102.74904809426516,33.08211176120676 95.09098554588854,73.32633663807064 97.25095190480351,75.60000000009313 99.99999999906868,70.37057080375962 102.74904809426516,33.08211176120676 95.48370670154691,72.87160368729383 98.03639421798289,74.91790123470128 100.39272115565836,69.46110360580496 103.33812982775271,32.85474119777791 95.48370670154691,73.09897017409094 97.8400336401537,74.91790123470128 99.99999999906868,70.37057080375962 102.94540867209435,32.85474119777791 95.28734612371773,72.87160368729383 97.8400336401537,74.91790123470128 99.80363942217082,70.59793754573911 102.94540867209435,33.08211176120676 95.48370670154691,72.87160368729383 98.03639421798289,74.91790123470128 99.60727884341031,69.91583725111559 103.14176924992353,33.08211176120676 95.28734612371773,72.87160368729383 97.6436730613932,75.14526751358062 99.99999999906868,69.46110360580496 102.55268751643598,33.309482301585376 95.28734612371773,73.32633663807064 97.8400336401537,75.14526751358062 99.60727884341031,71.96213750913739 102.74904809426516,32.85474119777791 98.82183653116226,64.91376205603592 95.09098554588854,72.87160368729383 97.44731248356402,75.37263376801275 99.80363942217082,71.05267095891759 103.14176924992353,32.85474119777791 98.03639421798289,59.45693996595219 100.19636057782918,71.28003763151355 98.62547595240176,74.91790123470128 95.09098554588854,73.55370307876728 102.55268751643598,33.08211176120676 105.10537503194064,39.903217904269695 100.39272115565836,71.05267095891759 98.62547595240176,74.91790123470128 95.28734612371773,72.87160368729383 102.74904809426516,32.85474119777791 104.51629329752177,45.81482636416331 100.39272115565836,70.59793754573911 98.03639421798289,75.14526751358062 94.89462496805936,72.87160368729383 102.94540867209435,32.627370610134676 105.10537503194064,39.44847814319655 100.19636057782918,70.82530426420271 97.8400336401537,74.91790123470128 95.09098554588854,73.32633663807064 103.7308509843424,32.627370610134676 100.58908173348755,70.14320403942838 97.8400336401537,75.14526751358062 95.09098554588854,73.32633663807064 103.14176924992353,32.627370610134676 105.10537503194064,40.35795757267624 101.17816346883774,66.50533265224658 98.42911537457258,74.69053493300453 95.48370670154691,74.00843588961288 95.28734612371773,69.46110360580496 100.98180289100856,36.26529722241685 103.14176924992353,32.4000000001397 105.10537503194064,36.49266743869521 99.21455768775195,74.235802260926 95.28734612371773,73.32633663807064 99.21455768775195,45.36008780775592 102.74904809426516,32.627370610134676 104.90901445411146,37.17477794899605 99.60727884341031,73.55370307876728 95.28734612371773,73.32633663807064 98.03639421798289,56.728523917263374" stroke="#4DD2FF" stroke-linecap="round" stroke-linejoin="round" stroke-width="0.5"><title>2026-06-09 8.2km</title><desc>1780958339000</desc></polyline><polyline fill="none" points="181.2198019803036,59.71662955376087 180.98811881197616,59.32452648106846 183.5722772278823,58.375221161113586 185.015841584187,57.38463695245446 183.35841584170703,55.486003675468965 182.30693069309928,53.73181580522214 181.8435643564444,52.36973003730236 181.36237623763736,51.87442385010945 177.9762376238359,49.25340844162565 174.51881188130938,47.6849105538131 169.5465346535202,47.51980480620114 165.46534653473645,48.180226988872164 158.05148514860775,48.65490410217899 154.54059405939188,49.583616975083714 153.5069306930527,49.294684537744615 152.13465346535668,49.41851277563546 151.2435643564677,49.87254900013795 149.15841584163718,50.03765282938548 144.40000000002328,52.28717909021361 146.34257425752003,51.193375864619156 147.59009900991805,50.94572148377483 149.49702970299404,49.81063502948382 151.08316831686534,49.85191101205419 153.38217821787111,49.25340844162565 154.52277227735613,49.5423409378418 157.80198019812815,48.531075397273526 162.93465346540324,48.48979914547817 163.7188118811464,48.03575982050097 165.67920792091172,48.262779610275174 168.9762376238359,47.49916657830181 169.79603960399982,47.76746337713848 172.73663366341498,47.581719477355364 174.09108910895884,47.80873977614101 174.46534653473645,47.62299591425108 176.24752475251444,48.15958882829 176.42574257438537,48.65490410217899 179.20594059408177,49.975738909168285 181.43366336647887,51.85378606605809 182.27128712867852,52.94758572445426 182.32475247525144,53.690540613475605 183.41188118816353,55.4653662594792 184.28514851501677,56.08448782534106 186.38811881188303,59.34516350380727 187.59999999997672,60.50083342168364" stroke="#4DD2FF" stroke-linecap="round" stroke-linejoin="round" stroke-width="0.5"><title>2026-06-03 5.6km</title><desc>1780440560000</desc></polyline><polyline fill="none" points="54.90685920586111,108.37108754900692 51.753068591991905,103.49511983472621 51.7877256317297,102.61221565086453 49.25776173284976,99.36148885298462 48.807220216607675,97.89663763162389 45.826714801369235,95.34817186255532 42.36101083026733,93.32141569450323 36.78122743678978,93.12074563186616 32.864981949504,93.76288911243319 31.218772563152015,93.70268825006497 30.26570397109026,94.2043615403818 28.203610108292196,94.36489672333119 27.319855595647823,94.08396006732073 25.483032490941696,94.30469604508835 22.207942238252144,95.12743705467437 21.20288808667101,94.80636780144414 20.024548736517318,94.94683566415915 18.759566786990035,95.4886393386987 17.06137184111867,95.52877288493619 15.46714801446069,96.47190886586031 12.400000000023283,97.65583912753209 12.763898916949984,97.7361053282948 12.937184115522541,97.39497374914936 14.687364620971493,96.53210888143803 15.44981949456269,96.5521755492664 17.269314079429023,95.40837222174741 18.91552346566459,95.4886393386987 21.029602888040245,94.92676883272361 22.17328519851435,95.22777108897571 25.500361010839697,94.16422772424994 30.213718411512673,94.16422772424994 31.028158844797872,93.6826212918968 32.31046931410674,93.58228647016222 32.98628158838255,93.90335771962418 36.48664259922225,93.14081264731067 36.91985559562454,93.40168366231956 37.95956678700168,93.16087966073246 42.066425992699806,93.40168366231956 43.2967509025475,93.82308995634958 43.47003610106185,94.24449534839368 46.0,95.52877288493619 46.24259927793173,95.97024135333777 46.762454873591196,96.09064167288307 48.47797833941877,97.5153731975297 49.101805054116994,98.27790132736845 49.24043321295176,99.1608249462588 50.228158844751306,100.90659408476495 51.12924187723547,101.60891063662712 52.84476534294663,104.25762480769481 54.057761732896324,105.38131096497818 54.94151624548249,107.4079430016136 54.82021660648752,108.33095662026608 55.59999999997672,109.43455418125086 52.93140794226201,110.8792543681484" stroke="#4DD2FF" stroke-linecap="round" stroke-linejoin="round" stroke-width="0.5"><title>2026-06-02 6.3km</title><desc>1780353915000</desc></polyline><polyline fill="none" points="111.33064470323734,98.0862981814571 110.22641295089852,96.77920120033377 109.03629650676157,94.53437561480678 107.3676796364598,93.07095719398058 104.55802328878781,91.49385800751043 101.90786708320957,91.28073512733681 95.30701505253091,92.01955971882853 93.04947458114475,92.00535159053106 91.28270377736771,92.61629979949794 90.22754899179563,92.72996428710758 89.79812553251395,92.54525944760826 88.57120136322919,92.71575623124954 88.11723942065146,92.97150101562147 86.76762283447897,93.04254115028016 85.66339108214015,93.69610869021562 84.7309287134558,93.92343581195746 83.24635046866024,94.66224639755092 82.85373473446816,94.61962281631713 82.66969610907836,94.97481892816722 81.84765691566281,95.38684528402518 80.66980971314479,96.53767106887244 80.14223232038785,96.69395531935152 78.86623118433636,97.77373262686888 78.40000000002328,97.87318537932879 78.80488497589249,97.78794016729807 80.22811701218598,96.65133235935355 80.59619426302379,96.5945017257327 80.79250213009072,96.18247893899388 83.0132348765037,94.60541495303914 85.52842942351708,93.75294050545199 86.8166998011875,92.97150101562147 88.10497017891612,93.01412510075897 89.60181766544702,92.55946752089949 90.3625106504769,92.78679649619153 90.80420335137751,92.5310513729346 91.31951150239911,92.57367559272097 91.58943481964525,92.34634626987099 92.64458960521733,92.11901657634007 93.22124396485742,92.19005714538798 93.96966770809377,91.94851906289114 94.5340528258821,92.10480845815619 96.07997727917973,92.06218409500434 96.55847770516993,91.76381318799395 97.87128656631103,91.83485393806768 100.57051973877242,91.3091515302076 104.32490769668948,91.47964982564736 105.33098551549483,91.82064579091093 105.4291394490283,92.10480845815619 106.16529395058751,92.58788366305816 107.2572564612492,93.01412510075897 109.37983527412871,94.8895719438442 109.51479693275178,95.64258516834525 110.16506674239645,96.75078591245983 110.8766827606014,97.3617133252119 112.28764555527596,99.5212492342107 112.87656915653497,99.96167679323116 113.52683896623785,101.42502288574178 114.00533939222805,102.07855113092228 114.53291678498499,102.39110703494225 116.80272649822291,105.75814211866236 117.40391934110085,106.92308891235734 117.69838114175946,108.13064543790824 117.87015052547213,109.16771504853386 117.64930417499272,109.5512867862999 117.77199659193866,110.67358321875508 117.85788128373679,110.9150888651202 118.2259585345746,110.97191366230254 118.45907412667293,112.13681690180965 118.189150809485,112.71926487264864 119.30565180350095,112.09419866207463 121.60000000003492,110.30422083305893 121.5141153082368,110.17636439470516 121.15830729913432,110.30422083305893 120.29946038062917,108.55683936209243 119.69826753769303,107.84651543151995 119.51422891230322,107.27825368185586 120.37307583075017,106.82364261476323 120.0540755467373,106.14172323518142 119.17069014493609,106.46847668738337 118.53268957685214,106.26958337286487 117.66157341666985,105.18987185831065 117.37938085774658,105.0762175283453 115.44084067025688,102.19220790437248 115.53899460390676,101.89385867651436 115.18318659480428,101.56709450398921 116.05430275492836,100.87094219139544 115.9561488214531,100.48734657466412 115.51445612043608,100.30265201244038 114.54518602672033,100.8851494162227 114.11576256743865,100.20320099296805 114.21391650103033,99.7485668577865 112.7784152230015,100.48734657466412 112.9256461233017,100.60100464522839 112.79068446467863,100.55838287963707 112.69253053114517,100.82832050837169 114.05441635899479,102.71786927637004 114.01760863396339,102.94518168830837 109.91968190862099,105.13304470492585 108.48418063053396,105.43138700193958 106.9259869355592,105.27511254501587 106.63152513490058,106.04227638036537 106.25117864244385,106.41165005500079" stroke="#4DD2FF" stroke-linecap="round" stroke-linejoin="round" stroke-width="0.5"><title>2026-05-28 10.4km</title><desc>1779920511000</desc></polyline><polyline fill="none" points="186.3758813838358,106.18667668911803 184.72474464576226,103.58243357721949 184.1269192750333,103.13740049597982 183.23018121911446,101.85174249383272 183.23018121911446,101.25835843051027 182.6323558483855,100.40124427329283 180.93851729820017,98.88480040610011 179.42971993406536,98.30788867942465 177.62200988468248,96.92329213875928 174.47630971990293,96.65955812032917 172.3269851730438,96.75845842766284 169.7364085667068,97.23647572706977 163.57311367383227,97.64855847181752 161.11064250417985,98.32437190020573 160.11426688631764,98.11008989940456 158.4631301483023,98.58810320368502 156.86892915982753,98.65403596234682 155.50247116974788,99.46171007477096 152.1574958813726,100.71442112662771 147.60263591440162,104.2417395948869 147.00481054367265,104.14284386354848 146.02266886329744,104.85159526848292 144.45693574962206,105.47793113432999 144.40000000002328,105.82406307234487 144.81278418458533,106.18667668911803 144.96935749595286,106.87893679106492 145.53871499182424,106.81300738513528 145.69528830319177,106.40094798966311 145.56718286662363,105.85702798019338 145.16863261943217,105.7746156979847 144.92665568372468,105.32958864847024 146.07960461289622,104.88456037454307 146.99057660636026,104.15932648962189 147.6168698517722,104.17580911399273 148.02965403627604,103.66484697638953 149.28224052727455,102.80774557228142 149.6807907743496,102.75829727573728 149.93700164748589,102.28029629671073 151.1895881384262,101.40670465043513 152.00092257006327,101.14297794316371 152.4279406919377,100.59904025122523 153.9652059308719,100.08806681357964 154.4491598023451,99.69247336601256 155.36013179569272,99.5111593791662 156.76929159805877,98.65403596234682 158.26385502476478,98.58810320368502 160.2139044481446,98.11008989940456 160.88289950578474,98.29140545695554 162.03584843495628,98.17602285293106 163.71545304782921,97.58262530321372 164.31327841849998,97.7474581743445 165.30965403624577,97.41779226408107 165.85054365737597,97.64855847181752 167.67248764418764,97.53317540913122 168.11373970349086,97.23647572706977 169.22398682049243,97.0881256818684 169.94991762773134,97.30240903673985 172.91057660628576,96.67604150909756 174.5617133443011,96.65955812032917 177.8497528830194,97.02219228481408 179.38701812189538,98.1925060870999 181.15202635910828,99.06611509512004 183.18747940688627,100.9781485327112 183.23018121911446,101.68691380570817 184.05574958812213,103.00553860711807 184.73897858313285,103.54946820574696 186.24777594726766,105.93944022040523 187.59999999997672,107.34044187968539" stroke="#4DD2FF" stroke-linecap="round" stroke-linejoin="round" stroke-width="0.5"><title>2026-05-23 7.2km</title><desc>1779492268000</desc></polyline><polyline fill="none" points="47.5649599013268,158.78750171561842 47.76483652071329,158.04689304743079 50.04342998150969,158.18575744854752 50.34990746463882,157.87716971746704 51.042813078383915,157.80002268643875 55.2402220852091,155.717037992712 55.58667489211075,155.26957828299783 52.46859962987946,150.76404821072356 52.58852560148807,150.1931324329198 51.415916101192124,148.88156100655033 50.04342998150969,146.32010640185035 48.75089450960513,145.1628084825643 48.337816162907984,145.08565497341624 48.15126465150388,144.7461790660309 46.991980259132106,144.3449792850297 46.019247378222644,143.4345604537666 44.72671190625988,143.00249536398042 43.47415175818605,142.95620260265423 43.18099938315572,143.1259426582983 42.07501542265527,142.92534075389267 41.22220851329621,143.11051175203465 40.79580505867489,142.92534075389267 38.264034546678886,143.4808530688606 37.784330660128035,143.26482074412343 36.611721159832086,143.4036987025611 36.06539173354395,143.69688508528634 34.85280690935906,143.71231593178527 33.98667489213403,144.06722496768634 33.25379395438358,143.65059253625805 32.680814312247094,143.66602338751545 29.975817396712955,144.43756394424418 29.056384947674815,144.23696377771557 27.31079580518417,144.66902534458495 25.95163479342591,144.71531758214405 24.739049969241023,145.44056078998256 23.67304133262951,145.7183125878364 23.313263417745475,146.07321692141704 21.72757557075238,146.45898155776376 19.262430598493665,148.54209361008543 17.730043183313683,149.42162120513967 17.33028994454071,149.91538884377223 16.104380012431648,150.0696909006656 15.891178285120986,150.45544535490626 14.265515114238951,151.1343708075001 14.358790869941004,151.52012254930742 14.092288710759021,151.73614309553523 12.400000000023283,149.56049351622642 14.278840222163126,149.96167947737558 15.837877853249665,149.4524817296915 21.114620604668744,145.61029806033184 21.967427514027804,145.5022834557749 24.33929673046805,144.15980979676533 26.724491055007093,143.3882678245718 29.86921653308673,143.1259426582983 31.255027760693338,142.70930763651268 32.28106107347412,142.87904796899238 34.03997532394715,142.64758383204753 34.11992597166682,142.4161193412292 35.0260333128972,141.99948236597993 36.931523750768974,141.99948236597993 38.55718692170922,141.64456848269037 39.48994447878795,141.76801688433625 39.96964836528059,141.5519821154594 40.63590376317734,141.6908616450819 41.60863664414501,141.21249828436703 42.554719309089705,141.32051594955556 43.527452190057375,141.59827530616894 43.68735348555492,141.87603415314516 46.75212831591489,142.693876687772 46.405675509013236,143.8203318133892 48.11128932761494,144.71531758214405 50.08340530539863,146.3355369810597 50.60308451578021,147.01448090733902 50.656384947593324,147.64713046213728 51.415916101192124,148.83527004277857 52.02887106727576,149.31360931949166 53.494632942660246,151.597272779778 54.334114744036924,152.3379129920213 54.080937692837324,153.2791380346025 55.600000000034925,155.31586727974354 54.94706971006235,155.902193347938 51.0561381863663,157.92345791723346 49.64367674285313,158.20118681862368 47.73818630480673,158.13946932899125" stroke="#4DD2FF" stroke-linecap="round" stroke-linejoin="round" stroke-width="0.5"><title>2026-05-21 9.2km</title><desc>1779317412000</desc></polyline><polyline fill="none" points="107.36856187286321,164.8345946125337 107.56120401329827,164.33270133059705 111.29364548495505,164.49999919350375 112.28093645477202,163.91445622581523 113.22006688965484,163.91445622581523 121.59999999997672,159.5089022948814 116.03745819383767,151.58988019707613 115.84481605340261,150.97642525919946 116.20602006674744,150.4466221605544 112.54581939789932,145.5668085415964 112.61806020059157,144.81391526237712 111.91973244131077,143.50331831572112 108.11505016707815,140.21285576195805 102.96187290956732,137.39641146594658 95.20802675571758,136.95023941222462 89.76588628755417,137.8983541566704 89.30836120399181,137.64738292637048 82.85484949825332,138.4839527985896 79.50769230769947,138.4002959265199 78.78528428089339,138.87435119689326 79.0501672240207,139.34840564592741 78.95384615380317,136.22520827301196 78.52040133776609,136.197322421649 78.40000000002328,136.89446785426117 79.55585284275003,137.0617824938381 82.85484949825332,136.5598382682947 82.71036789286882,136.25309412166825 84.01070234109648,135.58383297128603 87.62274247489404,135.44440335899708 90.8013377925381,134.8309122202918 92.41471571906004,134.99822812181083 93.32976588618476,134.6078241924988 94.48561872902792,134.80302622678573 96.29163879598491,133.93855901746429 98.16989966551773,134.18953364997287 99.711036789231,134.6357102058828 99.9759197323583,135.1655439210299 105.46622073580511,136.5877240828122 104.96053511695936,138.76280885425513 108.11505016707815,140.32439751346828 112.13645484938752,143.67062891379464 112.6903010031674,144.75814530748175 112.64214046811685,145.59469343815 114.03879598656204,147.8812452791317 115.26688963209745,148.80143757906626 117.89163879596163,152.90043841148145 119.2642140466487,154.0158021604584 119.2642140466487,154.62925028448808 118.7344481603941,155.0753935110406 118.83076923072804,155.85614240707946 121.57591973233502,159.62043618081952 113.3886287624482,164.10963735423866 112.37725752498955,164.13752036125516 111.19732441462111,164.80671167655964 107.46488294308074,164.38846729628858 107.00735785940196,165.83837841526838 106.57391304336488,166.0614409825066" stroke="#4DD2FF" stroke-linecap="round" stroke-linejoin="round" stroke-width="0.5"><title>2026-05-20 6.5km</title><desc>1779229838000</desc></polyline><polyline fill="none" points="144.40000000002328,168.75555251949118 161.2585365853738,155.54297796756146 161.7741567202611,155.98427344253287 164.84545926307328,156.0621490351914 166.01120913343038,155.62085369517445 161.54997405293398,147.41781291858933 165.0696419304004,145.13337479640904 166.77343020238914,144.5622620650538 168.791074208566,142.97871552204015 170.47244421381038,145.4708498995169 171.83995848463383,146.24963689276774 172.69185262057,148.81961707897426 173.72309289046098,150.1694952767284 174.82158796058502,150.74059543802286 179.64151530875824,158.55415543394338 180.82968344574329,164.13512301503215 183.67680332122836,167.76917572635284 181.81608718202915,168.75555251949118 181.41255838098004,169.58618264703546 181.92817851586733,169.69001122254122 187.59999999997672,165.3810897832882 186.61359626369085,165.0695986624196 185.31333679298405,162.2921193325601 184.01307732227724,160.70868298690766 183.69922158797272,159.67035872969427 185.26850025949534,158.81373803208407 184.59595225739758,157.56773914892983 183.27327452006284,158.26861427047697 181.81608718202915,157.85328109786496 179.43975090817548,155.2574334293895 176.03217436431441,150.14353614803986 175.76315516338218,149.1311280671507 177.31001556827687,147.98891924844065 177.3324338349048,147.5995287078258 176.413284898852,147.08034039466293 175.04577062791213,148.19659396000498 174.37322262581438,147.91104118790827 173.65583809022792,146.58711051708087 173.92485729116015,144.79589924619358 172.15381421893835,143.7575101340044 171.50368448370136,142.04415884494665 169.93440581217874,140.59039719903376 167.4011416709982,136.80019389555673 166.52682926820125,136.9819172588759 163.76938245981,133.3993470375135 161.3033731187461,131.47823790331313 159.01670991175342,130.30998877745878 158.27690710953902,131.81573109765304 161.66206538653933,133.89260245050536 165.49558899842668,137.4492053121503 165.58526206528768,138.56550108069496 166.7958484691335,140.66827749757795 167.82708873890806,141.421119155435 170.45002594706602,145.44489029207034 171.75028541777283,146.45731302215427 172.69185262057,148.79365781278466 172.8263622210361,150.5588818892138 173.76792942394968,151.59724327955337 167.08728593669366,155.28339203703217" stroke="#4DD2FF" stroke-linecap="round" stroke-linejoin="round" stroke-width="0.5"><title>2026-05-13 7.6km</title><desc>1778624699000</desc></polyline><polyline fill="none" points="39.910699885571375,205.94064330519177 40.67257804132532,206.96511822694447 41.31157262355555,211.29063758341363 42.54040835844353,212.0305223436153 42.78617550560739,214.0794237596565 45.489614122663625,217.49422605731525 43.32686322904192,218.9455043936614 43.056519367266446,219.34389320627088 43.425170087837614,219.60000000000582 50.0363063425757,214.73393076704815 49.913422768819146,214.42090586782433 49.10239118384197,214.59164676547516 47.455751298810355,211.20526613882976 46.25149227853399,209.81086218359997 45.90741827257443,208.64411066801404 47.57863487233408,207.6765569342242 46.96421700483188,206.39596595650073 46.59556628426071,206.22522004926577 45.1455401169369,207.02203339029802 43.76924409356434,206.53825413281447 41.336149338283576,203.8916821887251 40.72173147078138,202.32649343181401 37.4776051301742,198.08621073132963 37.158107839059085,197.0901618337084 38.95220801222604,195.66722867515637 38.780171009362675,195.1265121739707 37.84625585062895,194.61425347035402 35.781811815686524,195.80952231716947 34.970780230592936,194.5573357786343 35.80638853053097,192.7075044825906 35.560621383367106,192.05294585844968 33.32414034556132,191.34146735299146 32.73429919290356,189.37777727280627 30.743585302028805,187.4709925322968 27.966416540788487,183.40124423897942 27.155384955578484,183.7427638580557 27.13080824096687,183.05972420229227 26.22146979707759,182.77512385265436 25.238401209004223,181.06751566339517 23.591761323972605,179.38835742807714 18.84845538670197,176.39999999999418 17.9636936574243,178.05071567595587 21.994274868397042,180.44139004443423 25.262977923615836,183.3443242618523 25.877395791118033,185.39343612873927 27.253691814490594,187.67020945751574 28.408797405310906,188.52399467030773 31.652923745918088,193.3051436257083 31.333426454802975,194.13045272088493 29.367289278656244,191.1422530465934 28.605411123135127,191.02841623639688 20.716285703820176,194.87038293961086 20.81459256261587,193.95969931510626 20.02813769225031,192.82134060849785 18.60268823953811,188.23939988936763 19.487449968932196,188.0686428816116 21.18324328318704,193.5043563891959 24.157025762018748,199.08225607674103 26.17231636750512,204.20471888763132 24.943480632500723,204.80233342948486 20.716285703820176,204.60312872429495 20.273904839414172,205.9121856148122 19.36456639529206,207.07894854186452" stroke="#4DD2FF" stroke-linecap="round" stroke-linejoin="round" stroke-width="0.5"><title>2026-05-12 7.1km</title><desc>1778538486000</desc></polyline><polyline fill="none" points="93.9374017380178,209.34003188367933 94.8701091632247,216.90001031616703 104.19718340970576,216.36001221323386 106.52895197272301,184.50002682209015 98.13458515144885,178.0200063562952 93.00469431467354,183.42002396052703 99.53364628739655,218.5200042910874 106.0625982619822,211.50002682069317 106.0625982619822,183.96002541994676 99.0672925747931,177.4800042915158 93.00469431467354,181.80001925723627 92.5383406020701,212.04002541769296 99.53364628739655,218.5200042910874 106.52895197272301,212.58002395974472 106.99530568532646,183.96002541994676 93.9374017380178,180.18001405708492 98.13458515144885,219.60000000009313 105.59624454751611,212.58002395974472 106.52895197272301,183.42002396052703 100.46635371260345,177.4800042915158 93.00469431467354,182.34002087963745 93.47104802541435,213.6600208794698 100.46635371260345,218.5200042910874 106.52895197272301,183.96002541994676 100.46635371260345,176.94000217411667 93.00469431467354,181.80001925723627 98.13458515144885,218.5200042910874 106.0625982619822,214.2000192576088 107.92801310867071,186.1200307002291 100.46635371260345,177.4800042915158 93.47104802541435,181.80001925723627 98.60093886218965,219.06000217236578 106.99530568532646,212.58002395974472 106.52895197272301,181.26001757849008 99.99999999813735,176.39999999990687 92.5383406020701,183.42002396052703 93.47104802541435,212.58002395974472 99.99999999813735,219.60000000009313 107.4616593979299,183.42002396052703 101.8654148504138,176.94000217411667 94.40375545062125,182.34002087963745 97.6682314388454,219.06000217236578 106.52895197272301,212.04002541769296 106.99530568532646,182.8800224470906 102.3317685611546,176.94000217411667 92.5383406020701,182.34002087963745 92.5383406020701,212.04002541769296 100.46635371260345,218.5200042910874 106.99530568532646,208.8000330105424 106.0625982619822,182.8800224470906 98.60093886218965,176.39999999990687 92.5383406020701,183.42002396052703 93.00469431467354,213.12002244777977 100.93270742334425,219.06000217236578 106.99530568532646,181.80001925723627 99.99999999813735,176.94000217411667 92.5383406020701,182.34002087963745 93.47104802541435,212.58002395974472 100.93270742334425,218.5200042910874 106.0625982619822,182.34002087963745 99.0672925747931,176.94000217411667 92.5383406020701,182.34002087963745 93.9374017380178,212.58002395974472 101.8654148504138,218.5200042910874 106.0625982619822,181.80001925723627 99.0672925747931,177.4800042915158 93.00469431467354,183.96002541994676 93.9374017380178,213.12002244777977 101.3990611359477,217.98000635486096 106.0625982619822,181.80001925723627 99.0672925747931,176.94000217411667 93.00469431467354,183.96002541994676 92.5383406020701,211.50002682069317 102.79812227375805,219.06000217236578 105.59624454751611,182.34002087963745 99.53364628739655,176.94000217411667 92.07198688946664,182.8800224470906 98.13458515144885,218.5200042910874 105.59624454751611,213.12002244777977 106.52895197272301,185.58002946292982 99.0672925747931,177.4800042915158 92.07198688946664,182.8800224470906 93.47104802541435,213.12002244777977 102.3317685611546,219.06000217236578 106.52895197272301,181.80001925723627 98.13458515144885,176.94000217411667 92.07198688946664,183.96002541994676 93.9374017380178,213.6600208794698 102.3317685611546,217.44000836228952 106.52895197272301,181.80001925723627 100.46635371260345,176.39999999990687 93.47104802541435,182.34002087963745 93.00469431467354,212.04002541769296 99.99999999813735,218.5200042910874 106.0625982619822,213.12002244777977 107.4616593979299,182.34002087963745 100.46635371260345,176.39999999990687 92.5383406020701,183.42002396052703 98.13458515144885,218.5200042910874 106.0625982619822,213.6600208794698 106.99530568532646,183.96002541994676 101.3990611359477,177.4800042915158 93.00469431467354,180.72001584619284 97.6682314388454,218.5200042910874 106.0625982619822,213.6600208794698 106.99530568532646,185.0400281692855 101.3990611359477,177.4800042915158 93.00469431467354,182.8800224470906 92.5383406020701,212.04002541769296 99.0672925747931,217.98000635486096 106.52895197272301,212.04002541769296 106.99530568532646,185.58002946292982 100.93270742334425,177.4800042915158 92.5383406020701,183.96002541994676 98.13458515144885,218.5200042910874 106.0625982619822,211.50002682069317 106.52895197272301,185.58002946292982 101.8654148504138,178.0200063562952 92.5383406020701,182.34002087963745 98.60093886218965,218.5200042910874 106.0625982619822,214.2000192576088 107.4616593979299,184.50002682209015 101.3990611359477,176.94000217411667 93.00469431467354,181.80001925723627 98.60093886218965,218.5200042910874 106.52895197272301,213.12002244777977 106.52895197272301,183.96002541994676 99.53364628739655,177.4800042915158 93.47104802541435,182.34002087963745 98.60093886218965,218.5200042910874 106.52895197272301,212.04002541769296 107.4616593979299,183.96002541994676 94.40375545062125,179.64001221349463 92.07198688946664,200.70004332670942 92.5383406020701,180.72001584619284 102.3317685611546,178.5600083633326 106.99530568532646,186.1200307002291 107.92801310867071,213.12002244777977 97.2018777243793,218.5200042910874 92.07198688946664,182.34002087963745 102.3317685611546,177.4800042915158 107.92801310867071,187.20003301138058 108.3943668231368,212.58002395974472 97.2018777243793,219.06000217236578 92.07198688946664,180.72001584619284 101.8654148504138,177.4800042915158 107.92801310867071,186.1200307002291 105.59624454751611,216.90001031616703 93.9374017380178,215.82001405535266 91.60563317872584,189.9000378246419 92.07198688946664,180.18001405708492 104.19718340970576,178.5600083633326 106.99530568532646,214.74001757847145 99.0672925747931,219.06000217236578 92.5383406020701,210.960028169211 91.60563317872584,181.80001925723627 99.53364628739655,176.39999999990687 106.99530568532646,186.66003188258037 106.52895197272301,213.6600208794698 96.26917030103505,217.98000635486096 92.5383406020701,205.5600386224687 92.5383406020701,180.18001405708492 104.66353712230921,179.10001031542197 106.52895197272301,214.74001757847145 94.8701091632247,217.44000836228952 93.00469431467354,200.70004332670942" stroke="#4DD2FF" stroke-linecap="round" stroke-linejoin="round" stroke-width="0.5"><title>2026-01-14 6.3km</title><desc>1768393184000</desc></polyline><polyline fill="none" points="157.94954954955028,190.39559713868948 157.74774774775142,190.41225599074096 158.0360360360355,190.61216208442056 158.74234234238975,190.79540912380617 159.62162162165623,190.76209149541683 160.89009009010624,190.1290552761493 161.33693693694659,191.41178403334925 161.87027027033037,191.86156967410352 163.4990990991355,192.32801274527446 164.68108108104207,192.06147400916961 165.77657657663804,192.52791651440202 167.72252252249746,195.90958518514526 169.3513513513608,197.29221790244628 169.79819819825934,198.09180743186153 170.76396396395285,198.99134101445088 172.30630630633095,199.5243956349732 173.76216216222383,200.59049970269552 174.46846846846165,200.47389490621572 175.7945945946267,200.8403668457613 176.21261261263862,201.67325458633422 179.09549549547955,203.38899006339489 181.6468468469102,204.05529028721503 183.05945945950225,202.98920863594685 183.98198198201135,201.17352244717767 184.24144144140882,202.10635454767908 184.05405405408237,202.8059751575347 185.79819819820113,202.83929035055917 185.92792792792898,203.23907214180508 186.5909909909824,203.5389078486478 187.5711711711483,204.8381896076171 187.39819819823606,205.5377986193198 186.98018018022412,205.8709447238507 187.60000000003492,205.35456797477673 187.31171171175083,205.5044839718321 187.5279279279639,204.8548469995876 186.54774774773978,203.52225032371643 186.02882882888662,203.28904479749326 185.6972972973599,202.8059751575347 184.08288288291078,202.8226327549055 184.05405405408237,201.17352244717767 183.1891891892301,202.85594794458302 182.36756756762043,203.62219544817344 181.45945945946733,204.05529028721503 180.60900900908746,203.6055379316531 179.2396396396798,203.38899006339489 176.169369369396,201.65659687276639 175.5207207207568,200.65713097786647 174.5837837837753,200.42392139678122 173.7333333333372,200.52386840048712 172.26306306308834,199.4411059642007 170.69189189188182,198.80810309037042 169.85585585591616,198.0418331999681 169.3801801801892,197.20892710331827 167.65045045048464,195.72634383381228 166.51171171176247,193.9438946017326 165.9351351351943,192.54457515086688 164.4792792793014,191.91154578060377 163.62882882886333,192.14476741051476 162.70630630629603,192.01149794815865 159.30450450448552,192.72782004094915 157.14234234235482,193.527431721639 156.1333333333023,195.47646893543424 155.00900900905253,200.42392139678122 153.61081081087468,202.0064085038175 151.78018018021248,202.15632754687977 145.78378378378693,201.20683797026868 145.0918918919051,198.39165250505903 144.40000000002328,193.69401700000162 148.4504504504148,193.41082192661997 149.51711711712414,193.0276748759934 152.7891891892068,192.6445269343676 154.76396396401105,191.67832382053894 155.45585585589288,191.0952674759319 155.93153153150342,191.1619025911932 156.91171171166934,191.89488708009594 157.84864864865085,191.4617602762737 157.83423423423665,190.86204436034313 158.2522522523068,190.8953619685053 158.3099099099054,191.0952674759319" stroke="#4DD2FF" stroke-linecap="round" stroke-linejoin="round" stroke-width="0.5"><title>2026-01-10 8.4km</title><desc>1768033403000</desc></polyline><polyline fill="none" points="40.97090909071267,240.76211060237256 39.530909090768546,239.55176994937938 40.741818181821145,238.454895349656 41.06909090897534,239.02224468218628 43.55636363627855,239.36265386859304 46.53454545454588,238.4170720303082 48.03999999992084,242.53979133625398 50.527272727224045,242.91802018971066 38.97454545437358,246.32206266047433 37.730909090838395,247.22980208782246 35.73454545461573,251.57935627861298 33.01818181795534,263.2661687837099 30.53090909088496,265.9136160426715 28.763636363553815,266.55656469255337 26.04727272724267,266.55656469255337 12.400000000023283,264.4764327123703 26.243636363535188,266.67002610411146 29.156363636255264,266.55656469255337 30.53090909088496,265.9136160426715 33.01818181795534,263.2661687837099 35.99636363633908,250.74727156283916 38.189090908970684,247.00286743749166 42.934545454452746,245.3008531719388 50.887272727210075,243.59883116211859 53.440000000060536,244.01488170190714 55.272727272706106,242.80455157379038 55.59999999997672,241.17816429736558 54.160000000032596,236.82848916060175 50.16727272735443,233.87824593120604 50.199999999953434,225.32997389591765 47.31999999994878,225.5569216958247 46.46909090911504,226.46471151831793 45.945454545435496,236.14766586537007 47.90909090905916,242.88019732158864 39.170909090782516,244.84698139314423 37.829090908984654,243.40971712733153 38.74545454536565,242.53979133625398 43.98181818181183,242.69108292352757 45.48727272730321,242.1237391558243 46.92727272724733,240.68646442639874 45.88000000000466,237.8497217799013 41.95272727275733,237.73625162660028 41.559999999939464,237.0932534407184 39.82545454532374,236.67719520212268 38.64727272710297,236.82848916060175 37.79636363615282,238.3036020489817 39.40000000002328,240.42170268966584 40.807272727251984,241.06469515376375 40.67636363627389,241.55639452754986" stroke="#4DD2FF" stroke-linecap="round" stroke-linejoin="round" stroke-width="0.5"><title>2025-11-16 6.1km</title><desc>1763283912000</desc></polyline></svg>