<?xml version="1.0" encoding="utf-8" ?>
<svg baseProfile="full" height="300mm" version="1.1" viewBox="0,0,200,300" width="200mm" xmlns="http://www.w3.org/2000/svg" xmlns:ev="http://www.w3.org/2001/xml-events" xmlns:xlink="http://www.w3.org/1999/xlink"><defs /><rect fill="#222222" height="300" width="200" x="0" y="0" /><text fill="#FFFFFF" style="font-size:12px; font-family:Arial; font-weight:bold;" x="10" y="20">Over 5km Runs</text><text fill="#FFFFFF" style="font-size:4px; font-family:Arial" x="10" y="280">Runner</text><text fill="#FFFFFF" style="font-size:9px; font-family:Arial" x="10" y="290">saveole</text><text fill="#FFFFFF" style="font-size:4px; font-family:Arial" x="65" y="280">SPECIAL TRACKS</text><rect fill="yellow" height="2.6" width="2.6" x="65" y="283" /><text fill="#FFFFFF" style="font-size:3px; font-family:Arial" x="70" y="285.5">Over 20.0 km</text><rect fill="red" height="2.6" width="2.6" x="65" y="287" /><text fill="#FFFFFF" style="font-size:3px; font-family:Arial" x="70" y="289.5">Over 40.0 km</text><text fill="#FFFFFF" style="font-size:4px; font-family:Arial" x="120" y="280">STATISTICS</text><text fill="#FFFFFF" style="font-size:3px; font-family:Arial" x="120" y="285">Number: 14</text><text fill="#FFFFFF" style="font-size:3px; font-family:Arial" x="120" y="290">Weekly: 1.6</text><text fill="#FFFFFF" style="font-size:3px; font-family:Arial" x="141" y="285">Total: 100.9 km</text><text fill="#FFFFFF" style="font-size:3px; font-family:Arial" x="141" y="290">Avg: 7.2 km</text><text fill="#FFFFFF" style="font-size:3px; font-family:Arial" x="167" y="285">Min: 5.1 km</text><text fill="#FFFFFF" style="font-size:3px; font-family:Arial" x="167" y="290">Max: 10.4 km</text><polyline fill="none" points="37.22668110951781,48.5125276457984 39.04168923571706,35.202186857583 37.42834868002683,32.4000000001397 36.01667569484562,36.369763704016805 32.99166215211153,63.69089210522361 28.95831076335162,74.19893169472925 32.789994582533836,75.60000000009313 34.201667569577694,71.86381594953127 37.22668110951781,32.867031381465495 28.95831076335162,73.264885682147 31.78165673557669,75.60000000009313 34.403335138224065,71.63030424411409 38.840021666139364,38.70491561223753 37.42834868002683,32.63351570232771 35.41167298518121,36.83679427579045 28.756643193773925,73.49839722109027 32.58832701295614,75.13297732663341 34.60500270780176,69.76220974395983 38.63835409656167,40.33952053217217 36.82334597129375,32.63351570232771 29.361645901575685,73.73190873558633 32.58832701295614,75.36648867558688 34.60500270780176,70.22923351195641 37.42834868002683,32.63351570232771 33.193329721689224,64.85845443792641 29.15997833199799,73.49839722109027 31.98332430422306,75.60000000009313 34.403335138224065,71.63030424411409 37.63001624960452,32.63351570232771 29.15997833199799,73.96542022726499 33.39499729126692,74.8994659546297 39.04168923571706,37.537339955801144 37.42834868002683,32.4000000001397 28.756643193773925,73.49839722109027 32.789994582533836,75.13297732663341 34.403335138224065,70.46274535986595 37.63001624960452,32.4000000001397 28.95831076335162,74.19893169472925 32.789994582533836,75.60000000009313 33.99999999906868,73.264885682147 39.24335680529475,38.70491561223753 37.63001624960452,32.867031381465495 35.41167298518121,37.07030952651985 32.789994582533836,64.62494201911613 28.756643193773925,73.73190873558633 32.38665944430977,75.60000000009313 33.99999999906868,72.33083928888664 39.04168923571706,40.33952053217217 37.42834868002683,32.867031381465495 28.95831076335162,74.43244313867763 33.59666485991329,74.19893169472925 38.63835409656167,36.60327900154516 37.42834868002683,32.867031381465495 35.21000541653484,37.537339955801144 32.58832701295614,55.751452463446185" stroke="#4DD2FF" stroke-linecap="round" stroke-linejoin="round" stroke-width="0.5"><title>2026-06-25 5.1km</title><desc>1782343634000</desc></polyline><polyline fill="none" points="121.30787589494139,59.034494070132496 117.69928400951903,53.8410948763194 117.8023866348667,53.08495627155935 115.25918854417978,49.70219508279115 115.24200477323029,49.00573697472282 114.48591885442147,47.951095681855804 111.03198090690421,45.18512258728151 107.6983293555677,43.67277540451323 107.26873508351855,43.87176912414725 105.41288782819174,43.51358028269897 102.90405727922916,43.53347968003072 98.93460620520636,44.170259323349455 98.69403341284487,43.991165258630645 94.00286396179581,44.60804412346624 92.07828162290389,44.568245545829996 88.43532219569897,45.5234091697057 87.3183770882315,45.22492103916011 85.39379474939778,45.801997679736814 83.48639618128072,45.84179600584321 79.01861575176008,47.83170196901483 78.40000000002328,48.169983965854044 79.7747016705689,47.77200508522219 80.42768496420467,47.2347323095164 81.69928400951903,46.956145843782 83.46921241050586,45.90149347978877 85.03293556079734,45.96119093555899 87.19809069216717,45.34431634613429 88.10883054888109,45.56320755256456 89.51789976126747,45.40401397224923 90.10214797127992,44.966230956983054 92.28448687348282,44.82693615538301 93.33269689738518,44.46874906629091 94.41527446295368,44.707540532021085 96.44295942719327,44.62794340921391 97.26778042956721,44.1503599909629 98.59093078755541,44.070762641043984 99.22673031024169,44.34935322390811 102.62911694514332,43.573278468611534 103.02434367540991,43.8319703964371 104.17565632454352,43.63297663621779 107.28591885440983,43.911567843766534 107.57804295944516,43.692674785561394 109.34797136037378,44.26975595505792 109.4854415273876,44.647842692924314 110.56801909307251,45.34431634613429 112.08019093080657,45.90149347978877 112.26921241043601,46.339274397992995 113.02529832930304,46.59796266097692 114.52028639614582,47.951095681855804 116.22147971356753,51.23439417604823 117.02911694505019,51.89104724973731 118.95369928394211,54.83600963211211 119.95035799522884,55.65183594923292 120.8439140811679,57.82072348496877 120.74081145582022,58.63653733249521 121.59999999997672,59.55183661666524 120.48305489256745,60.48702928039711 115.34510739851976,62.99411943167797 114.26252983289305,63.25278563149914 111.56467780424282,63.17319606798992 111.28973747015698,64.08847408943984 110.82577565626707,64.48641971731558" stroke="#4DD2FF" stroke-linecap="round" stroke-linejoin="round" stroke-width="0.5"><title>2026-06-23 6.7km</title><desc>1782188595000</desc></polyline><polyline fill="none" points="169.3381298277527,36.49266743869521 168.55268751643598,32.85474119777791 167.37452404666692,36.49266743869521 160.89462496805936,73.55370307876728 164.0363942179829,74.69053493300453 165.80363942217082,69.68847044021823 169.92721156217158,38.5389983439818 168.35632693767548,32.85474119777791 161.4837067015469,72.87160368729383 163.44731248356402,74.91790123470128 165.6072788434103,70.82530426420271 169.14176924992353,33.08211176120676 161.09098554588854,73.7810694957152 163.44731248356402,75.37263376801275 165.80363942217082,70.82530426420271 168.74904809426516,33.08211176120676 161.09098554588854,73.32633663807064 163.25095190480351,75.60000000009313 165.99999999906868,70.37057080375962 168.74904809426516,33.08211176120676 161.4837067015469,72.87160368729383 164.0363942179829,74.91790123470128 166.39272115565836,69.46110360580496 169.3381298277527,32.85474119777791 161.4837067015469,73.09897017409094 163.8400336401537,74.91790123470128 165.99999999906868,70.37057080375962 168.94540867209435,32.85474119777791 161.28734612371773,72.87160368729383 163.8400336401537,74.91790123470128 165.80363942217082,70.59793754573911 168.94540867209435,33.08211176120676 161.4837067015469,72.87160368729383 164.0363942179829,74.91790123470128 165.6072788434103,69.91583725111559 169.14176924992353,33.08211176120676 161.28734612371773,72.87160368729383 163.6436730613932,75.14526751358062 165.99999999906868,69.46110360580496 168.55268751643598,33.309482301585376 161.28734612371773,73.32633663807064 163.8400336401537,75.14526751358062 165.6072788434103,71.96213750913739 168.74904809426516,32.85474119777791 164.82183653116226,64.91376205603592 161.09098554588854,72.87160368729383 163.44731248356402,75.37263376801275 165.80363942217082,71.05267095891759 169.14176924992353,32.85474119777791 164.0363942179829,59.45693996595219 166.19636057782918,71.28003763151355 164.62547595240176,74.91790123470128 161.09098554588854,73.55370307876728 168.55268751643598,33.08211176120676 171.10537503194064,39.903217904269695 166.39272115565836,71.05267095891759 164.62547595240176,74.91790123470128 161.28734612371773,72.87160368729383 168.74904809426516,32.85474119777791 170.51629329752177,45.81482636416331 166.39272115565836,70.59793754573911 164.0363942179829,75.14526751358062 160.89462496805936,72.87160368729383 168.94540867209435,32.627370610134676 171.10537503194064,39.44847814319655 166.19636057782918,70.82530426420271 163.8400336401537,74.91790123470128 161.09098554588854,73.32633663807064 169.7308509843424,32.627370610134676 166.58908173348755,70.14320403942838 163.8400336401537,75.14526751358062 161.09098554588854,73.32633663807064 169.14176924992353,32.627370610134676 171.10537503194064,40.35795757267624 167.17816346883774,66.50533265224658 164.42911537457258,74.69053493300453 161.4837067015469,74.00843588961288 161.28734612371773,69.46110360580496 166.98180289100856,36.26529722241685 169.14176924992353,32.4000000001397 171.10537503194064,36.49266743869521 165.21455768775195,74.235802260926 161.28734612371773,73.32633663807064 165.21455768775195,45.36008780775592 168.74904809426516,32.627370610134676 170.90901445411146,37.17477794899605 165.6072788434103,73.55370307876728 161.28734612371773,73.32633663807064 164.0363942179829,56.728523917263374" stroke="#4DD2FF" stroke-linecap="round" stroke-linejoin="round" stroke-width="0.5"><title>2026-06-09 8.2km</title><desc>1780958339000</desc></polyline><polyline fill="none" points="49.2198019803036,107.71662955376087 48.988118811976165,107.32452648106846 51.572277227882296,106.37522116111359 53.015841584187,105.38463695245446 51.35841584170703,103.48600367546896 50.306930693099275,101.73181580522214 49.8435643564444,100.36973003730236 49.36237623763736,99.87442385010945 45.976237623835914,97.25340844162565 42.518811881309375,95.6849105538131 37.54653465352021,95.51980480620114 33.465346534736454,96.18022698887216 26.051485148607753,96.65490410217899 22.54059405939188,97.58361697508371 21.50693069305271,97.29468453774462 20.134653465356678,97.41851277563546 19.243564356467687,97.87254900013795 17.15841584163718,98.03765282938548 12.400000000023283,100.28717909021361 14.342574257520027,99.19337586461916 15.590099009918049,98.94572148377483 17.49702970299404,97.81063502948382 19.08316831686534,97.85191101205419 21.382178217871115,97.25340844162565 22.522772277356125,97.5423409378418 25.80198019812815,96.53107539727353 30.934653465403244,96.48979914547817 31.718811881146394,96.03575982050097 33.67920792091172,96.26277961027517 36.976237623835914,95.49916657830181 37.796039603999816,95.76746337713848 40.73663366341498,95.58171947735536 42.09108910895884,95.80873977614101 42.465346534736454,95.62299591425108 44.24752475251444,96.15958882829 44.42574257438537,96.65490410217899 47.20594059408177,97.97573890916829 49.43366336647887,99.85378606605809 50.27128712867852,100.94758572445426 50.324752475251444,101.6905406134756 51.411881188163534,103.4653662594792 52.28514851501677,104.08448782534106 54.38811881188303,107.34516350380727 55.59999999997672,108.50083342168364" stroke="#4DD2FF" stroke-linecap="round" stroke-linejoin="round" stroke-width="0.5"><title>2026-06-03 5.6km</title><desc>1780440560000</desc></polyline><polyline fill="none" points="120.90685920586111,108.37108754900692 117.7530685919919,103.49511983472621 117.7877256317297,102.61221565086453 115.25776173284976,99.36148885298462 114.80722021660767,97.89663763162389 111.82671480136923,95.34817186255532 108.36101083026733,93.32141569450323 102.78122743678978,93.12074563186616 98.864981949504,93.76288911243319 97.21877256315202,93.70268825006497 96.26570397109026,94.2043615403818 94.2036101082922,94.36489672333119 93.31985559564782,94.08396006732073 91.4830324909417,94.30469604508835 88.20794223825214,95.12743705467437 87.20288808667101,94.80636780144414 86.02454873651732,94.94683566415915 84.75956678699004,95.4886393386987 83.06137184111867,95.52877288493619 81.46714801446069,96.47190886586031 78.40000000002328,97.65583912753209 78.76389891694998,97.7361053282948 78.93718411552254,97.39497374914936 80.6873646209715,96.53210888143803 81.44981949456269,96.5521755492664 83.26931407942902,95.40837222174741 84.91552346566459,95.4886393386987 87.02960288804024,94.92676883272361 88.17328519851435,95.22777108897571 91.5003610108397,94.16422772424994 96.21371841151267,94.16422772424994 97.02815884479787,93.6826212918968 98.31046931410674,93.58228647016222 98.98628158838255,93.90335771962418 102.48664259922225,93.14081264731067 102.91985559562454,93.40168366231956 103.95956678700168,93.16087966073246 108.0664259926998,93.40168366231956 109.2967509025475,93.82308995634958 109.47003610106185,94.24449534839368 112.0,95.52877288493619 112.24259927793173,95.97024135333777 112.7624548735912,96.09064167288307 114.47797833941877,97.5153731975297 115.101805054117,98.27790132736845 115.24043321295176,99.1608249462588 116.2281588447513,100.90659408476495 117.12924187723547,101.60891063662712 118.84476534294663,104.25762480769481 120.05776173289632,105.38131096497818 120.94151624548249,107.4079430016136 120.82021660648752,108.33095662026608 121.59999999997672,109.43455418125086 118.93140794226201,110.8792543681484" stroke="#4DD2FF" stroke-linecap="round" stroke-linejoin="round" stroke-width="0.5"><title>2026-06-02 6.3km</title><desc>1780353915000</desc></polyline><polyline fill="none" points="177.33064470323734,98.0862981814571 176.22641295089852,96.77920120033377 175.03629650676157,94.53437561480678 173.3676796364598,93.07095719398058 170.5580232887878,91.49385800751043 167.90786708320957,91.28073512733681 161.30701505253091,92.01955971882853 159.04947458114475,92.00535159053106 157.28270377736771,92.61629979949794 156.22754899179563,92.72996428710758 155.79812553251395,92.54525944760826 154.5712013632292,92.71575623124954 154.11723942065146,92.97150101562147 152.76762283447897,93.04254115028016 151.66339108214015,93.69610869021562 150.7309287134558,93.92343581195746 149.24635046866024,94.66224639755092 148.85373473446816,94.61962281631713 148.66969610907836,94.97481892816722 147.8476569156628,95.38684528402518 146.6698097131448,96.53767106887244 146.14223232038785,96.69395531935152 144.86623118433636,97.77373262686888 144.40000000002328,97.87318537932879 144.8048849758925,97.78794016729807 146.22811701218598,96.65133235935355 146.5961942630238,96.5945017257327 146.79250213009072,96.18247893899388 149.0132348765037,94.60541495303914 151.52842942351708,93.75294050545199 152.8166998011875,92.97150101562147 154.10497017891612,93.01412510075897 155.60181766544702,92.55946752089949 156.3625106504769,92.78679649619153 156.8042033513775,92.5310513729346 157.3195115023991,92.57367559272097 157.58943481964525,92.34634626987099 158.64458960521733,92.11901657634007 159.22124396485742,92.19005714538798 159.96966770809377,91.94851906289114 160.5340528258821,92.10480845815619 162.07997727917973,92.06218409500434 162.55847770516993,91.76381318799395 163.87128656631103,91.83485393806768 166.57051973877242,91.3091515302076 170.32490769668948,91.47964982564736 171.33098551549483,91.82064579091093 171.4291394490283,92.10480845815619 172.1652939505875,92.58788366305816 173.2572564612492,93.01412510075897 175.3798352741287,94.8895719438442 175.51479693275178,95.64258516834525 176.16506674239645,96.75078591245983 176.8766827606014,97.3617133252119 178.28764555527596,99.5212492342107 178.87656915653497,99.96167679323116 179.52683896623785,101.42502288574178 180.00533939222805,102.07855113092228 180.532916784985,102.39110703494225 182.8027264982229,105.75814211866236 183.40391934110085,106.92308891235734 183.69838114175946,108.13064543790824 183.87015052547213,109.16771504853386 183.64930417499272,109.5512867862999 183.77199659193866,110.67358321875508 183.8578812837368,110.9150888651202 184.2259585345746,110.97191366230254 184.45907412667293,112.13681690180965 184.189150809485,112.71926487264864 185.30565180350095,112.09419866207463 187.60000000003492,110.30422083305893 187.5141153082368,110.17636439470516 187.15830729913432,110.30422083305893 186.29946038062917,108.55683936209243 185.69826753769303,107.84651543151995 185.51422891230322,107.27825368185586 186.37307583075017,106.82364261476323 186.0540755467373,106.14172323518142 185.1706901449361,106.46847668738337 184.53268957685214,106.26958337286487 183.66157341666985,105.18987185831065 183.37938085774658,105.0762175283453 181.44084067025688,102.19220790437248 181.53899460390676,101.89385867651436 181.18318659480428,101.56709450398921 182.05430275492836,100.87094219139544 181.9561488214531,100.48734657466412 181.51445612043608,100.30265201244038 180.54518602672033,100.8851494162227 180.11576256743865,100.20320099296805 180.21391650103033,99.7485668577865 178.7784152230015,100.48734657466412 178.9256461233017,100.60100464522839 178.79068446467863,100.55838287963707 178.69253053114517,100.82832050837169 180.05441635899479,102.71786927637004 180.0176086339634,102.94518168830837 175.919681908621,105.13304470492585 174.48418063053396,105.43138700193958 172.9259869355592,105.27511254501587 172.63152513490058,106.04227638036537 172.25117864244385,106.41165005500079" stroke="#4DD2FF" stroke-linecap="round" stroke-linejoin="round" stroke-width="0.5"><title>2026-05-28 10.4km</title><desc>1779920511000</desc></polyline><polyline fill="none" points="54.375881383835804,154.18667668911803 52.72474464576226,151.5824335772195 52.12691927503329,151.13740049597982 51.230181219114456,149.85174249383272 51.230181219114456,149.25835843051027 50.63235584838549,148.40124427329283 48.93851729820017,146.8848004061001 47.42971993406536,146.30788867942465 45.622009884682484,144.92329213875928 42.47630971990293,144.65955812032917 40.326985173043795,144.75845842766284 37.736408566706814,145.23647572706977 31.573113673832268,145.64855847181752 29.11064250417985,146.32437190020573 28.114266886317637,146.11008989940456 26.463130148302298,146.58810320368502 24.86892915982753,146.65403596234682 23.502471169747878,147.46171007477096 20.157495881372597,148.7144211266277 15.602635914401617,152.2417395948869 15.004810543672647,152.14284386354848 14.02266886329744,152.85159526848292 12.456935749622062,153.47793113433 12.400000000023283,153.82406307234487 12.812784184585325,154.18667668911803 12.969357495952863,154.87893679106492 13.538714991824236,154.81300738513528 13.695288303191774,154.4009479896631 13.567182866623625,153.85702798019338 13.168632619432174,153.7746156979847 12.926655683724675,153.32958864847024 14.079604612896219,152.88456037454307 14.990576606360264,152.1593264896219 15.616869851772208,152.17580911399273 16.029654036276042,151.66484697638953 17.282240527274553,150.80774557228142 17.68079077434959,150.75829727573728 17.937001647485886,150.28029629671073 19.18958813842619,149.40670465043513 20.000922570063267,149.14297794316371 20.427940691937692,148.59904025122523 21.96520593087189,148.08806681357964 22.449159802345093,147.69247336601256 23.360131795692723,147.5111593791662 24.76929159805877,146.65403596234682 26.26385502476478,146.58810320368502 28.213904448144604,146.11008989940456 28.882899505784735,146.29140545695554 30.03584843495628,146.17602285293106 31.715453047829214,145.58262530321372 32.313278418499976,145.7474581743445 33.309654036245774,145.41779226408107 33.850543657375965,145.64855847181752 35.67248764418764,145.53317540913122 36.113739703490864,145.23647572706977 37.22398682049243,145.0881256818684 37.94991762773134,145.30240903673985 40.91057660628576,144.67604150909756 42.5617133443011,144.65955812032917 45.84975288301939,145.02219228481408 47.38701812189538,146.1925060870999 49.15202635910828,147.06611509512004 51.18747940688627,148.9781485327112 51.230181219114456,149.68691380570817 52.055749588122126,151.00553860711807 52.73897858313285,151.54946820574696 54.247775947267655,153.93944022040523 55.59999999997672,155.3404418796854" stroke="#4DD2FF" stroke-linecap="round" stroke-linejoin="round" stroke-width="0.5"><title>2026-05-23 7.2km</title><desc>1779492268000</desc></polyline><polyline fill="none" points="113.5649599013268,158.78750171561842 113.76483652071329,158.04689304743079 116.04342998150969,158.18575744854752 116.34990746463882,157.87716971746704 117.04281307838392,157.80002268643875 121.2402220852091,155.717037992712 121.58667489211075,155.26957828299783 118.46859962987946,150.76404821072356 118.58852560148807,150.1931324329198 117.41591610119212,148.88156100655033 116.04342998150969,146.32010640185035 114.75089450960513,145.1628084825643 114.33781616290798,145.08565497341624 114.15126465150388,144.7461790660309 112.9919802591321,144.3449792850297 112.01924737822264,143.4345604537666 110.72671190625988,143.00249536398042 109.47415175818605,142.95620260265423 109.18099938315572,143.1259426582983 108.07501542265527,142.92534075389267 107.22220851329621,143.11051175203465 106.79580505867489,142.92534075389267 104.26403454667889,143.4808530688606 103.78433066012803,143.26482074412343 102.61172115983209,143.4036987025611 102.06539173354395,143.69688508528634 100.85280690935906,143.71231593178527 99.98667489213403,144.06722496768634 99.25379395438358,143.65059253625805 98.6808143122471,143.66602338751545 95.97581739671296,144.43756394424418 95.05638494767481,144.23696377771557 93.31079580518417,144.66902534458495 91.95163479342591,144.71531758214405 90.73904996924102,145.44056078998256 89.67304133262951,145.7183125878364 89.31326341774547,146.07321692141704 87.72757557075238,146.45898155776376 85.26243059849367,148.54209361008543 83.73004318331368,149.42162120513967 83.33028994454071,149.91538884377223 82.10438001243165,150.0696909006656 81.89117828512099,150.45544535490626 80.26551511423895,151.1343708075001 80.358790869941,151.52012254930742 80.09228871075902,151.73614309553523 78.40000000002328,149.56049351622642 80.27884022216313,149.96167947737558 81.83787785324967,149.4524817296915 87.11462060466874,145.61029806033184 87.9674275140278,145.5022834557749 90.33929673046805,144.15980979676533 92.72449105500709,143.3882678245718 95.86921653308673,143.1259426582983 97.25502776069334,142.70930763651268 98.28106107347412,142.87904796899238 100.03997532394715,142.64758383204753 100.11992597166682,142.4161193412292 101.0260333128972,141.99948236597993 102.93152375076897,141.99948236597993 104.55718692170922,141.64456848269037 105.48994447878795,141.76801688433625 105.96964836528059,141.5519821154594 106.63590376317734,141.6908616450819 107.60863664414501,141.21249828436703 108.5547193090897,141.32051594955556 109.52745219005737,141.59827530616894 109.68735348555492,141.87603415314516 112.75212831591489,142.693876687772 112.40567550901324,143.8203318133892 114.11128932761494,144.71531758214405 116.08340530539863,146.3355369810597 116.60308451578021,147.01448090733902 116.65638494759332,147.64713046213728 117.41591610119212,148.83527004277857 118.02887106727576,149.31360931949166 119.49463294266025,151.597272779778 120.33411474403692,152.3379129920213 120.08093769283732,153.2791380346025 121.60000000003492,155.31586727974354 120.94706971006235,155.902193347938 117.0561381863663,157.92345791723346 115.64367674285313,158.20118681862368 113.73818630480673,158.13946932899125" stroke="#4DD2FF" stroke-linecap="round" stroke-linejoin="round" stroke-width="0.5"><title>2026-05-21 9.2km</title><desc>1779317412000</desc></polyline><polyline fill="none" points="173.3685618728632,164.8345946125337 173.56120401329827,164.33270133059705 177.29364548495505,164.49999919350375 178.28093645477202,163.91445622581523 179.22006688965484,163.91445622581523 187.59999999997672,159.5089022948814 182.03745819383767,151.58988019707613 181.8448160534026,150.97642525919946 182.20602006674744,150.4466221605544 178.54581939789932,145.5668085415964 178.61806020059157,144.81391526237712 177.91973244131077,143.50331831572112 174.11505016707815,140.21285576195805 168.96187290956732,137.39641146594658 161.20802675571758,136.95023941222462 155.76588628755417,137.8983541566704 155.3083612039918,137.64738292637048 148.85484949825332,138.4839527985896 145.50769230769947,138.4002959265199 144.7852842808934,138.87435119689326 145.0501672240207,139.34840564592741 144.95384615380317,136.22520827301196 144.5204013377661,136.197322421649 144.40000000002328,136.89446785426117 145.55585284275003,137.0617824938381 148.85484949825332,136.5598382682947 148.71036789286882,136.25309412166825 150.01070234109648,135.58383297128603 153.62274247489404,135.44440335899708 156.8013377925381,134.8309122202918 158.41471571906004,134.99822812181083 159.32976588618476,134.6078241924988 160.48561872902792,134.80302622678573 162.2916387959849,133.93855901746429 164.16989966551773,134.18953364997287 165.711036789231,134.6357102058828 165.9759197323583,135.1655439210299 171.4662207358051,136.5877240828122 170.96053511695936,138.76280885425513 174.11505016707815,140.32439751346828 178.13645484938752,143.67062891379464 178.6903010031674,144.75814530748175 178.64214046811685,145.59469343815 180.03879598656204,147.8812452791317 181.26688963209745,148.80143757906626 183.89163879596163,152.90043841148145 185.2642140466487,154.0158021604584 185.2642140466487,154.62925028448808 184.7344481603941,155.0753935110406 184.83076923072804,155.85614240707946 187.57591973233502,159.62043618081952 179.3886287624482,164.10963735423866 178.37725752498955,164.13752036125516 177.1973244146211,164.80671167655964 173.46488294308074,164.38846729628858 173.00735785940196,165.83837841526838 172.57391304336488,166.0614409825066" stroke="#4DD2FF" stroke-linecap="round" stroke-linejoin="round" stroke-width="0.5"><title>2026-05-20 6.5km</title><desc>1779229838000</desc></polyline><polyline fill="none" points="12.400000000023283,216.75555251949118 29.258536585373804,203.54297796756146 29.77415672026109,203.98427344253287 32.84545926307328,204.0621490351914 34.011209133430384,203.62085369517445 29.549974052933976,195.41781291858933 33.069641930400394,193.13337479640904 34.773430202389136,192.5622620650538 36.79107420856599,190.97871552204015 38.47244421381038,193.4708498995169 39.839958484633826,194.24963689276774 40.69185262056999,196.81961707897426 41.723092890460975,198.1694952767284 42.82158796058502,198.74059543802286 47.641515308758244,206.55415543394338 48.829683445743285,212.13512301503215 51.67680332122836,215.76917572635284 49.81608718202915,216.75555251949118 49.412558380980045,217.58618264703546 49.92817851586733,217.69001122254122 55.59999999997672,213.3810897832882 54.61359626369085,213.0695986624196 53.313336792984046,210.2921193325601 52.01307732227724,208.70868298690766 51.699221587972715,207.67035872969427 53.26850025949534,206.81373803208407 52.595952257397585,205.56773914892983 51.27327452006284,206.26861427047697 49.81608718202915,205.85328109786496 47.43975090817548,203.2574334293895 44.032174364314415,198.14353614803986 43.76315516338218,197.1311280671507 45.31001556827687,195.98891924844065 45.332433834904805,195.5995287078258 44.413284898852,195.08034039466293 43.045770627912134,196.19659396000498 42.37322262581438,195.91104118790827 41.65583809022792,194.58711051708087 41.92485729116015,192.79589924619358 40.15381421893835,191.7575101340044 39.50368448370136,190.04415884494665 37.93440581217874,188.59039719903376 35.401141670998186,184.80019389555673 34.526829268201254,184.9819172588759 31.769382459810004,181.3993470375135 29.303373118746094,179.47823790331313 27.016709911753424,178.30998877745878 26.276907109539025,179.81573109765304 29.662065386539325,181.89260245050536 33.49558899842668,185.4492053121503 33.58526206528768,186.56550108069496 34.79584846913349,188.66827749757795 35.82708873890806,189.421119155435 38.450025947066024,193.44489029207034 39.75028541777283,194.45731302215427 40.69185262056999,196.79365781278466 40.826362221036106,198.5588818892138 41.76792942394968,199.59724327955337 35.08728593669366,203.28339203703217" stroke="#4DD2FF" stroke-linecap="round" stroke-linejoin="round" stroke-width="0.5"><title>2026-05-13 7.6km</title><desc>1778624699000</desc></polyline><polyline fill="none" points="105.91069988557138,205.94064330519177 106.67257804132532,206.96511822694447 107.31157262355555,211.29063758341363 108.54040835844353,212.0305223436153 108.78617550560739,214.0794237596565 111.48961412266362,217.49422605731525 109.32686322904192,218.9455043936614 109.05651936726645,219.34389320627088 109.42517008783761,219.60000000000582 116.0363063425757,214.73393076704815 115.91342276881915,214.42090586782433 115.10239118384197,214.59164676547516 113.45575129881036,211.20526613882976 112.25149227853399,209.81086218359997 111.90741827257443,208.64411066801404 113.57863487233408,207.6765569342242 112.96421700483188,206.39596595650073 112.59556628426071,206.22522004926577 111.1455401169369,207.02203339029802 109.76924409356434,206.53825413281447 107.33614933828358,203.8916821887251 106.72173147078138,202.32649343181401 103.4776051301742,198.08621073132963 103.15810783905908,197.0901618337084 104.95220801222604,195.66722867515637 104.78017100936268,195.1265121739707 103.84625585062895,194.61425347035402 101.78181181568652,195.80952231716947 100.97078023059294,194.5573357786343 101.80638853053097,192.7075044825906 101.5606213833671,192.05294585844968 99.32414034556132,191.34146735299146 98.73429919290356,189.37777727280627 96.7435853020288,187.4709925322968 93.96641654078849,183.40124423897942 93.15538495557848,183.7427638580557 93.13080824096687,183.05972420229227 92.22146979707759,182.77512385265436 91.23840120900422,181.06751566339517 89.5917613239726,179.38835742807714 84.84845538670197,176.39999999999418 83.9636936574243,178.05071567595587 87.99427486839704,180.44139004443423 91.26297792361584,183.3443242618523 91.87739579111803,185.39343612873927 93.2536918144906,187.67020945751574 94.4087974053109,188.52399467030773 97.65292374591809,193.3051436257083 97.33342645480298,194.13045272088493 95.36728927865624,191.1422530465934 94.60541112313513,191.02841623639688 86.71628570382018,194.87038293961086 86.81459256261587,193.95969931510626 86.02813769225031,192.82134060849785 84.60268823953811,188.23939988936763 85.4874499689322,188.0686428816116 87.18324328318704,193.5043563891959 90.15702576201875,199.08225607674103 92.17231636750512,204.20471888763132 90.94348063250072,204.80233342948486 86.71628570382018,204.60312872429495 86.27390483941417,205.9121856148122 85.36456639529206,207.07894854186452" stroke="#4DD2FF" stroke-linecap="round" stroke-linejoin="round" stroke-width="0.5"><title>2026-05-12 7.1km</title><desc>1778538486000</desc></polyline><polyline fill="none" points="159.9374017380178,209.34003188367933 160.8701091632247,216.90001031616703 170.19718340970576,216.36001221323386 172.528951972723,184.50002682209015 164.13458515144885,178.0200063562952 159.00469431467354,183.42002396052703 165.53364628739655,218.5200042910874 172.0625982619822,211.50002682069317 172.0625982619822,183.96002541994676 165.0672925747931,177.4800042915158 159.00469431467354,181.80001925723627 158.5383406020701,212.04002541769296 165.53364628739655,218.5200042910874 172.528951972723,212.58002395974472 172.99530568532646,183.96002541994676 159.9374017380178,180.18001405708492 164.13458515144885,219.60000000009313 171.5962445475161,212.58002395974472 172.528951972723,183.42002396052703 166.46635371260345,177.4800042915158 159.00469431467354,182.34002087963745 159.47104802541435,213.6600208794698 166.46635371260345,218.5200042910874 172.528951972723,183.96002541994676 166.46635371260345,176.94000217411667 159.00469431467354,181.80001925723627 164.13458515144885,218.5200042910874 172.0625982619822,214.2000192576088 173.9280131086707,186.1200307002291 166.46635371260345,177.4800042915158 159.47104802541435,181.80001925723627 164.60093886218965,219.06000217236578 172.99530568532646,212.58002395974472 172.528951972723,181.26001757849008 165.99999999813735,176.39999999990687 158.5383406020701,183.42002396052703 159.47104802541435,212.58002395974472 165.99999999813735,219.60000000009313 173.4616593979299,183.42002396052703 167.8654148504138,176.94000217411667 160.40375545062125,182.34002087963745 163.6682314388454,219.06000217236578 172.528951972723,212.04002541769296 172.99530568532646,182.8800224470906 168.3317685611546,176.94000217411667 158.5383406020701,182.34002087963745 158.5383406020701,212.04002541769296 166.46635371260345,218.5200042910874 172.99530568532646,208.8000330105424 172.0625982619822,182.8800224470906 164.60093886218965,176.39999999990687 158.5383406020701,183.42002396052703 159.00469431467354,213.12002244777977 166.93270742334425,219.06000217236578 172.99530568532646,181.80001925723627 165.99999999813735,176.94000217411667 158.5383406020701,182.34002087963745 159.47104802541435,212.58002395974472 166.93270742334425,218.5200042910874 172.0625982619822,182.34002087963745 165.0672925747931,176.94000217411667 158.5383406020701,182.34002087963745 159.9374017380178,212.58002395974472 167.8654148504138,218.5200042910874 172.0625982619822,181.80001925723627 165.0672925747931,177.4800042915158 159.00469431467354,183.96002541994676 159.9374017380178,213.12002244777977 167.3990611359477,217.98000635486096 172.0625982619822,181.80001925723627 165.0672925747931,176.94000217411667 159.00469431467354,183.96002541994676 158.5383406020701,211.50002682069317 168.79812227375805,219.06000217236578 171.5962445475161,182.34002087963745 165.53364628739655,176.94000217411667 158.07198688946664,182.8800224470906 164.13458515144885,218.5200042910874 171.5962445475161,213.12002244777977 172.528951972723,185.58002946292982 165.0672925747931,177.4800042915158 158.07198688946664,182.8800224470906 159.47104802541435,213.12002244777977 168.3317685611546,219.06000217236578 172.528951972723,181.80001925723627 164.13458515144885,176.94000217411667 158.07198688946664,183.96002541994676 159.9374017380178,213.6600208794698 168.3317685611546,217.44000836228952 172.528951972723,181.80001925723627 166.46635371260345,176.39999999990687 159.47104802541435,182.34002087963745 159.00469431467354,212.04002541769296 165.99999999813735,218.5200042910874 172.0625982619822,213.12002244777977 173.4616593979299,182.34002087963745 166.46635371260345,176.39999999990687 158.5383406020701,183.42002396052703 164.13458515144885,218.5200042910874 172.0625982619822,213.6600208794698 172.99530568532646,183.96002541994676 167.3990611359477,177.4800042915158 159.00469431467354,180.72001584619284 163.6682314388454,218.5200042910874 172.0625982619822,213.6600208794698 172.99530568532646,185.0400281692855 167.3990611359477,177.4800042915158 159.00469431467354,182.8800224470906 158.5383406020701,212.04002541769296 165.0672925747931,217.98000635486096 172.528951972723,212.04002541769296 172.99530568532646,185.58002946292982 166.93270742334425,177.4800042915158 158.5383406020701,183.96002541994676 164.13458515144885,218.5200042910874 172.0625982619822,211.50002682069317 172.528951972723,185.58002946292982 167.8654148504138,178.0200063562952 158.5383406020701,182.34002087963745 164.60093886218965,218.5200042910874 172.0625982619822,214.2000192576088 173.4616593979299,184.50002682209015 167.3990611359477,176.94000217411667 159.00469431467354,181.80001925723627 164.60093886218965,218.5200042910874 172.528951972723,213.12002244777977 172.528951972723,183.96002541994676 165.53364628739655,177.4800042915158 159.47104802541435,182.34002087963745 164.60093886218965,218.5200042910874 172.528951972723,212.04002541769296 173.4616593979299,183.96002541994676 160.40375545062125,179.64001221349463 158.07198688946664,200.70004332670942 158.5383406020701,180.72001584619284 168.3317685611546,178.5600083633326 172.99530568532646,186.1200307002291 173.9280131086707,213.12002244777977 163.2018777243793,218.5200042910874 158.07198688946664,182.34002087963745 168.3317685611546,177.4800042915158 173.9280131086707,187.20003301138058 174.3943668231368,212.58002395974472 163.2018777243793,219.06000217236578 158.07198688946664,180.72001584619284 167.8654148504138,177.4800042915158 173.9280131086707,186.1200307002291 171.5962445475161,216.90001031616703 159.9374017380178,215.82001405535266 157.60563317872584,189.9000378246419 158.07198688946664,180.18001405708492 170.19718340970576,178.5600083633326 172.99530568532646,214.74001757847145 165.0672925747931,219.06000217236578 158.5383406020701,210.960028169211 157.60563317872584,181.80001925723627 165.53364628739655,176.39999999990687 172.99530568532646,186.66003188258037 172.528951972723,213.6600208794698 162.26917030103505,217.98000635486096 158.5383406020701,205.5600386224687 158.5383406020701,180.18001405708492 170.6635371223092,179.10001031542197 172.528951972723,214.74001757847145 160.8701091632247,217.44000836228952 159.00469431467354,200.70004332670942" stroke="#4DD2FF" stroke-linecap="round" stroke-linejoin="round" stroke-width="0.5"><title>2026-01-14 6.3km</title><desc>1768393184000</desc></polyline><polyline fill="none" points="25.949549549550284,238.39559713868948 25.74774774775142,238.41225599074096 26.03603603603551,238.61216208442056 26.742342342389748,238.79540912380617 27.62162162165623,238.76209149541683 28.89009009010624,238.1290552761493 29.336936936946586,239.41178403334925 29.870270270330366,239.86156967410352 31.499099099135492,240.32801274527446 32.681081081042066,240.06147400916961 33.776576576638035,240.52791651440202 35.72252252249746,243.90958518514526 37.35135135136079,245.29221790244628 37.79819819825934,246.09180743186153 38.76396396395285,246.99134101445088 40.30630630633095,247.5243956349732 41.76216216222383,248.59049970269552 42.46846846846165,248.47389490621572 43.79459459462669,248.8403668457613 44.21261261263862,249.67325458633422 47.095495495479554,251.38899006339489 49.646846846910194,252.05529028721503 51.05945945950225,250.98920863594685 51.98198198201135,249.17352244717767 52.241441441408824,250.10635454767908 52.05405405408237,250.8059751575347 53.798198198201135,250.83929035055917 53.92792792792898,251.23907214180508 54.59099099098239,251.5389078486478 55.57117117114831,252.8381896076171 55.39819819823606,253.5377986193198 54.980180180224124,253.8709447238507 55.600000000034925,253.35456797477673 55.31171171175083,253.5044839718321 55.5279279279639,252.8548469995876 54.54774774773978,251.52225032371643 54.02882882888662,251.28904479749326 53.69729729735991,250.8059751575347 52.08288288291078,250.8226327549055 52.05405405408237,249.17352244717767 51.18918918923009,250.85594794458302 50.367567567620426,251.62219544817344 49.459459459467325,252.05529028721503 48.60900900908746,251.6055379316531 47.23963963967981,251.38899006339489 44.16936936939601,249.65659687276639 43.5207207207568,248.65713097786647 42.58378378377529,248.42392139678122 41.733333333337214,248.52386840048712 40.26306306308834,247.4411059642007 38.69189189188182,246.80810309037042 37.85585585591616,246.0418331999681 37.3801801801892,245.20892710331827 35.65045045048464,243.72634383381228 34.51171171176247,241.9438946017326 33.93513513519429,240.54457515086688 32.47927927930141,239.91154578060377 31.628828828863334,240.14476741051476 30.706306306296028,240.01149794815865 27.30450450448552,240.72782004094915 25.142342342354823,241.527431721639 24.13333333330229,243.47646893543424 23.009009009052534,248.42392139678122 21.610810810874682,250.0064085038175 19.780180180212483,250.15632754687977 13.78378378378693,249.20683797026868 13.091891891905107,246.39165250505903 12.400000000023283,241.69401700000162 16.45045045041479,241.41082192661997 17.517117117124144,241.0276748759934 20.78918918920681,240.6445269343676 22.763963964011054,239.67832382053894 23.455855855892878,239.0952674759319 23.931531531503424,239.1619025911932 24.91171171166934,239.89488708009594 25.84864864865085,239.4617602762737 25.834234234236646,238.86204436034313 26.25225225230679,238.8953619685053 26.3099099099054,239.0952674759319" stroke="#4DD2FF" stroke-linecap="round" stroke-linejoin="round" stroke-width="0.5"><title>2026-01-10 8.4km</title><desc>1768033403000</desc></polyline><polyline fill="none" points="106.97090909071267,240.76211060237256 105.53090909076855,239.55176994937938 106.74181818182115,238.454895349656 107.06909090897534,239.02224468218628 109.55636363627855,239.36265386859304 112.53454545454588,238.4170720303082 114.03999999992084,242.53979133625398 116.52727272722404,242.91802018971066 104.97454545437358,246.32206266047433 103.7309090908384,247.22980208782246 101.73454545461573,251.57935627861298 99.01818181795534,263.2661687837099 96.53090909088496,265.9136160426715 94.76363636355381,266.55656469255337 92.04727272724267,266.55656469255337 78.40000000002328,264.4764327123703 92.24363636353519,266.67002610411146 95.15636363625526,266.55656469255337 96.53090909088496,265.9136160426715 99.01818181795534,263.2661687837099 101.99636363633908,250.74727156283916 104.18909090897068,247.00286743749166 108.93454545445275,245.3008531719388 116.88727272721007,243.59883116211859 119.44000000006054,244.01488170190714 121.2727272727061,242.80455157379038 121.59999999997672,241.17816429736558 120.1600000000326,236.82848916060175 116.16727272735443,233.87824593120604 116.19999999995343,225.32997389591765 113.31999999994878,225.5569216958247 112.46909090911504,226.46471151831793 111.9454545454355,236.14766586537007 113.90909090905916,242.88019732158864 105.17090909078252,244.84698139314423 103.82909090898465,243.40971712733153 104.74545454536565,242.53979133625398 109.98181818181183,242.69108292352757 111.4872727273032,242.1237391558243 112.92727272724733,240.68646442639874 111.88000000000466,237.8497217799013 107.95272727275733,237.73625162660028 107.55999999993946,237.0932534407184 105.82545454532374,236.67719520212268 104.64727272710297,236.82848916060175 103.79636363615282,238.3036020489817 105.40000000002328,240.42170268966584 106.80727272725198,241.06469515376375 106.67636363627389,241.55639452754986" stroke="#4DD2FF" stroke-linecap="round" stroke-linejoin="round" stroke-width="0.5"><title>2025-11-16 6.1km</title><desc>1763283912000</desc></polyline></svg>