<?xml version="1.0" encoding="utf-8" ?>
<svg baseProfile="full" height="300mm" version="1.1" viewBox="0,0,200,300" width="200mm" xmlns="http://www.w3.org/2000/svg" xmlns:ev="http://www.w3.org/2001/xml-events" xmlns:xlink="http://www.w3.org/1999/xlink"><defs /><rect fill="#222222" height="300" width="200" x="0" y="0" /><text fill="#FFFFFF" style="font-size:12px; font-family:Arial; font-weight:bold;" x="10" y="20">Over 5km Runs</text><text fill="#FFFFFF" style="font-size:4px; font-family:Arial" x="10" y="280">Runner</text><text fill="#FFFFFF" style="font-size:9px; font-family:Arial" x="10" y="290">saveole</text><text fill="#FFFFFF" style="font-size:4px; font-family:Arial" x="65" y="280">SPECIAL TRACKS</text><rect fill="yellow" height="2.6" width="2.6" x="65" y="283" /><text fill="#FFFFFF" style="font-size:3px; font-family:Arial" x="70" y="285.5">Over 20.0 km</text><rect fill="red" height="2.6" width="2.6" x="65" y="287" /><text fill="#FFFFFF" style="font-size:3px; font-family:Arial" x="70" y="289.5">Over 40.0 km</text><text fill="#FFFFFF" style="font-size:4px; font-family:Arial" x="120" y="280">STATISTICS</text><text fill="#FFFFFF" style="font-size:3px; font-family:Arial" x="120" y="285">Number: 10</text><text fill="#FFFFFF" style="font-size:3px; font-family:Arial" x="120" y="290">Weekly: 1.4</text><text fill="#FFFFFF" style="font-size:3px; font-family:Arial" x="141" y="285">Total: 75.2 km</text><text fill="#FFFFFF" style="font-size:3px; font-family:Arial" x="141" y="290">Avg: 7.5 km</text><text fill="#FFFFFF" style="font-size:3px; font-family:Arial" x="167" y="285">Min: 6.1 km</text><text fill="#FFFFFF" style="font-size:3px; font-family:Arial" x="167" y="290">Max: 10.4 km</text><polyline fill="none" points="66.13357400731184,67.96385943624773 62.19133574003354,61.86889979339321 62.234657039749436,60.76526956356247 59.07220216607675,56.70186106621986 58.5090252708178,54.87079703951895 54.78339350176975,51.68521482817596 50.45126353786327,49.1517696181254 43.476534295943566,48.900932039818144 38.58122743689455,49.703611390534206 36.52346570394002,49.62836031257757 35.33212996390648,50.255451925462694 32.7545126354089,50.456120904156705 31.64981949457433,50.104950084147276 29.353790613706224,50.38087005635316 25.259927797829732,51.40929631832114 24.00361010839697,51.00795975179062 22.530685920617543,51.18354458018439 20.949458483722992,51.86079917335883 18.82671480148565,51.910966106152046 16.83393501804676,53.089886082321755 13.0,54.5697989094042 13.45487364626024,54.67013166034303 13.671480144374073,54.24371718642942 15.85920577624347,53.16513610178663 16.812274368247017,53.19021943656844 19.086642599315383,51.76046527718427 21.1444043321535,51.86079917335883 23.787003610050306,51.15846104090451 25.21660649823025,51.53471386121237 29.37545126362238,50.20528465529787 35.26714801439084,50.20528465529787 36.285198556026444,49.60327661485644 37.88808664260432,49.47785808768822 38.73285198549274,49.87919714952295 43.108303249115124,48.9260158091347 43.64981949457433,49.25210457788489 44.94945848372299,48.95109957589011 50.08303249091841,49.25210457788489 51.62093862821348,49.77886244542606 51.83754512632731,50.30561918547028 55.000000000116415,51.910966106152046 55.303249097429216,52.46280169165402 55.95306859200355,52.61330209109292 58.09747292427346,54.394216496904846 58.87725631776266,55.34737665920693 59.05054151627701,56.45103118281986 60.28519855591003,58.633242605937994 61.411552346660756,59.51113829576934 63.55595667869784,62.82203100962215 65.07220216619316,64.22663870621182 66.17689530691132,66.75992875199881 66.0252707580803,67.91369577532168 67.0,69.29319272654539 63.664259927812964,71.09906796018186" stroke="#4DD2FF" stroke-linecap="round" stroke-linejoin="round" stroke-width="0.5"><title>2026-06-02 6.3km</title><desc>1780353915000</desc></polyline><polyline fill="none" points="114.16330587904667,55.107872726832284 112.78301618859405,53.474001500420854 111.29537063342286,50.66796951851575 109.20959954557475,48.83869649248663 105.69752911099931,46.867322509380756 102.38483385398285,46.600918909185566 94.13376881566364,47.5244496485393 91.31184322637273,47.50668948816019 89.10337972163688,48.270374749365146 87.78443623974454,48.41245535889175 87.24765691562789,48.18157430952124 85.71400170400739,48.39469528905465 85.14654927578522,48.71437626951956 83.45952854305506,48.803176437853836 82.07923885260243,49.62013586277317 80.91366089176154,49.90429476494319 79.05793808575254,50.82780799693137 78.567168418027,50.774528520400054 78.33712013630429,51.21852366019448 77.30957114457851,51.73355660503148 75.83726214140188,53.172088836101466 75.1777904004557,53.367444149189396 73.58278898039134,54.7171657835861 73.0,54.84148172415735 73.50610621983651,54.73492520912259 75.28514626523247,53.31416544919193 75.74524282879429,53.24312715715496 75.99062766256975,52.72809867373144 78.76654359558597,50.75676869129529 81.9105367793818,49.691175631814986 83.52087475144072,48.71437626951956 85.13121272367425,48.76765637594508 87.00227208179422,48.199334401128 87.95313831302337,48.48349562023941 88.50525418919278,48.16381421616825 89.14938937802799,48.21709449090122 89.48679352452746,47.93293283734238 90.80573700647801,47.64877072042145 91.52655495598447,47.73757143173134 92.46208463504445,47.43564882861392 93.16756603238173,47.63101057270251 95.09997159900377,47.5777301187627 95.69809713144787,47.20476648499607 97.33910820784513,47.29356742258824 100.71314967342187,46.6364394127595 105.40613462083274,46.849562282062834 106.66373189433943,47.275807238635025 106.78642431128537,47.63101057270251 107.70661743823439,48.234854578826344 109.07157057657605,48.76765637594508 111.72479409264633,51.111964929805254 111.89349616586696,52.0532314604352 112.70633342798101,53.438482390585705 113.5958534507663,54.20214165651123 115.35955694405129,56.90156154277793 116.09571144566871,57.452095991538954 116.90854870778276,59.28127860717359 117.50667424022686,60.098188913660124 118.16614598123124,60.48888379367418 121.00340812269133,64.69767764832068 121.7548991763615,66.15386114045396 122.12297642719932,67.66330679738894 122.33768815681105,68.95964381066733 122.06163021875545,69.4391084828676 122.21499573992332,70.8419790234475 122.32235160464188,71.14386108139297 122.7824481682037,71.2148920778709 123.07384265837027,72.67102112725843 122.7364385118126,73.39908109081443 124.13206475437619,72.61774832759693 127.0,70.38027604132367 126.89264413522324,70.22045549337054 126.4478841238888,70.38027604132367 125.3743254757137,68.1960492026119 124.62283442210173,67.30814428940357 124.39278614032082,66.59781710231618 125.4663447883795,66.02955326843949 125.06759443343617,65.17715404398041 123.96336268109735,65.58559585922922 123.16586197103607,65.33697921609564 122.07696677080821,63.98733982289559 121.72422607213957,63.845271910438896 119.30105083779199,60.24025988046196 119.42374325479614,59.86732334563567 118.9789832434617,59.45886812997924 120.06787844363134,58.588677739244304 119.94518602674361,58.109183218330145 119.393070150516,57.87831501555047 118.18148253340041,58.60643677027838 117.64470320928376,57.754001241206424 117.76739562628791,57.18570857222949 115.97301902878098,58.109183218330145 116.15705765411258,58.251255806550034 115.98835558077553,58.19797859954997 115.8656631638878,58.535400635460974 117.56802044872893,60.89733659545891 117.52201079239603,61.18147711038182 112.39960238570347,63.91630588116823 110.60522578808013,64.28923375242448 108.65748366946355,64.0938906812662 108.28940641862573,65.05284547545307 107.81397330301115,65.51456256875827" stroke="#4DD2FF" stroke-linecap="round" stroke-linejoin="round" stroke-width="0.5"><title>2026-05-28 10.4km</title><desc>1779920511000</desc></polyline><polyline fill="none" points="185.4698517298093,65.23334586138662 183.40593080723193,61.97804197150981 182.6586490938207,61.42175061996386 181.5377265238203,59.81467811726907 181.5377265238203,59.07294803811237 180.7904448105255,58.00155534160149 178.6731466227211,56.106000507614226 176.78714991756715,55.3848608492699 174.527512355824,53.65411517342727 170.595387149835,53.32444765038963 167.90873146627564,53.44807303455309 164.6705107083544,54.045594658804475 156.96639209229033,54.56069808975735 153.8883031301666,55.40546487523534 152.6428336078534,55.137612374237506 150.57891268539242,55.735129004577175 148.5861614497844,55.817544952908065 146.8780889621703,56.827137593441876 142.6968698516721,58.393026408259175 137.00329489295837,62.80217449358315 136.25601317954715,62.67855482941377 135.0283360790927,63.564494085585466 133.07116968696937,64.34741391788702 133.0,64.7800788404129 133.51598023076076,65.23334586138662 133.71169686992653,66.09867098880932 134.42339373973664,66.01625923138636 134.6191103789024,65.50118498706433 134.45897858322132,64.82128497523081 133.96079077431932,64.71826962246269 133.6583196046995,64.1619858105696 135.09950576606207,63.60570046816429 136.23822075792123,62.69915811200917 137.0210873147007,62.719761392479995 137.53706754534505,62.081058720475994 139.10280065902043,61.00968196534086 139.60098846792243,60.94787159464613 139.9212520592846,60.35037037087022 141.48698517295998,59.25838081302936 142.50115321250632,58.92872242894373 143.034925864893,58.24880031400244 144.95650741353165,57.61008351696364 145.5614497528877,57.11559170750843 146.70016474463046,56.88894922393956 148.4616144974716,55.817544952908065 150.32981878088322,55.735129004577175 152.7673805601662,55.137612374237506 153.6036243821727,55.36425682117988 155.0448105436517,55.220028566152905 157.14431630971376,54.47828162899532 157.89159802312497,54.68432271790516 159.13706754532177,54.27224033008679 159.8131795716472,54.56069808975735 162.0906095552491,54.41646926139947 162.64217462926172,54.045594658804475 164.02998352551367,53.86015710231732 164.93739703460597,54.12801129590662 168.6382207578281,53.345051886339206 170.70214168040548,53.32444765038963 174.81219110370148,53.7777403559885 176.73377265234012,55.24063260885305 178.94003294885624,56.33264386888186 181.48434925859328,58.722685665867175 181.5377265238203,59.6086422571243 182.569686985109,61.25692325887212 183.42372322885785,61.936835257161874 185.3097199340118,64.92430027548107 187.0,66.67555234959582" stroke="#4DD2FF" stroke-linecap="round" stroke-linejoin="round" stroke-width="0.5"><title>2026-05-23 7.2km</title><desc>1779492268000</desc></polyline><polyline fill="none" points="56.956199876673054,130.9843771445303 57.20604565081885,130.05861630929576 60.05428747687256,130.23219681069895 60.43738433072576,129.84646214684471 61.30351634795079,129.7500283580739 66.55027760646772,127.14629749089363 66.98334361508023,126.58697285376547 63.08574953727657,120.95506026341172 63.23565700184554,120.24141554116795 61.76989512646105,118.60195125819882 60.05428747687256,115.40013300233113 58.438618136919104,113.95351060321264 57.922270203591324,113.85706871678121 57.68908081430709,113.43272383254953 56.23997532390058,112.93122410630167 55.0240592227201,111.79320056723373 53.40838988276664,111.25311920499371 51.84268969774712,111.19525325333234 51.4762492289301,111.40742832289834 50.09376927826088,111.15667594238766 49.02776064159116,111.38813969005423 48.49475632334361,111.15667594238766 45.3300431832904,111.85106633607938 44.73041332513094,111.5810259301652 43.26465144980466,111.754623378205 42.58173966687173,112.1211063566152 41.06600863666972,112.14039491474978 39.98334361508023,112.58403120962612 39.06724244292127,112.06324067033711 38.35101789026521,112.08252923440887 34.96977174584754,113.04695493032341 33.82048118452076,112.7962047221663 31.638494756422006,113.33628168073483 29.939543491695076,113.39414697770553 28.42381246149307,114.30070098748547 27.091301665757783,114.64789073480642 26.641579272109084,115.09152115178586 24.659469463396817,115.57372694721562 21.578038248117082,118.17761701262498 19.662553979083896,119.27702650643187 19.162862430675887,119.89423605472257 17.630475015495904,120.08711362583563 17.36397285631392,120.56930669365101 15.331893892784137,121.41796350938966 15.44848858739715,121.90015318665246 15.115360888419673,122.17017886941903 13.0,119.45061689529393 15.348550277703907,119.95209934673039 17.297347316576634,119.31560216212529 23.893275755806826,114.512872575433 24.959284392476548,114.37785431972588 27.924120913085062,112.69976224597485 30.905613818729762,111.73533478072204 34.836520666314755,111.40742832289834 36.568784700881224,110.88663454564812 37.851326341798995,111.09880996124411 40.049969154875726,110.80947979007033 40.14990746456897,110.52014917654742 41.282541641034186,109.99935295748583 43.66440468846122,109.99935295748583 45.69648365210742,109.55571060338116 46.862430598412175,109.71002110543486 47.462060456571635,109.43997764434607 48.29487970395712,109.61357705637056 49.510795805137604,109.0156228554697 50.693399136303924,109.15064493696264 51.909315237542614,109.49784413272573 52.10919185687089,109.84504269144963 55.94016039487906,110.86734585973318 55.50709438620834,112.27541476675833 57.63911165948957,113.39414697770553 60.10425663169008,115.41942122633918 60.753855644667055,116.26810113419197 60.82048118446255,117.05891307767888 61.76989512646105,118.54408755348413 62.53608883405104,119.14201164938277 64.36829117831076,121.99659097474068 65.4176434300025,122.9223912400339 65.101172116003,124.09892254327133 67.0,126.64483409970126 66.18383713759249,127.37774168493343 61.32017273287056,129.90432239655638 59.55459592846455,130.25148352330143 57.17273288097931,130.17433666126453" stroke="#4DD2FF" stroke-linecap="round" stroke-linejoin="round" stroke-width="0.5"><title>2026-05-21 9.2km</title><desc>1779317412000</desc></polyline><polyline fill="none" points="109.21070234104991,138.54324326568167 109.45150501665194,137.91587666326086 114.11705685616471,138.12499899187242 115.35117056849413,137.39307028229814 116.52508361195214,137.39307028229814 127.0,131.88612786860904 120.04682274232619,121.98735024634516 119.80602006684057,121.22053157398477 120.25752508349251,120.55827770067845 115.68227424740326,114.45851067701005 115.77257525071036,113.51739407796413 114.89966555172578,111.8791478946514 110.1438127089059,107.76606970245484 103.70234113698825,104.24551433246234 94.01003344473429,103.68779926528805 87.20735785947181,104.87294269585982 86.63545150496066,104.55922865797766 78.56856187281664,105.60494099825155 74.38461538462434,105.5003699081426 73.48160535120405,106.09293899612385 73.81270903011318,106.68550705740927 73.69230769225396,102.78151034130133 73.15050167229492,102.74665302707581 73.0,103.61808481786284 74.44481605349574,103.82722811732674 78.56856187281664,103.19979783537565 78.38795986608602,102.81636765206349 80.01337792631239,101.97979121410754 84.52842809353024,101.80550419876818 88.50167224067263,101.03864027536474 90.51839464879595,101.24778515228536 91.66220735781826,100.75978024062351 93.107023411314,101.00378278348944 95.36454849492293,99.92319877183763 97.71237458183896,100.23691706248792 99.63879598653875,100.79463775735348 99.96989966544788,101.45692990129464 106.83277591969818,103.2346551035298 106.2006688961992,105.95351106784074 110.1438127089059,107.90549689184991 115.1705685617635,112.08828614227241 115.86287625401746,113.44768163436675 115.80267558514606,114.49336679768749 117.54849498323165,117.35155659890734 119.0836120400345,118.5017969738692 122.36454849492293,123.62554801435908 124.08026755833998,125.01975270058028 124.08026755833998,125.78656285564648 123.41806020052172,126.3442418888153 123.53846153838094,127.32017800884205 126.96989966544788,132.02554522603168 116.73578595311847,137.6370466928056 115.47157190623693,137.67190045159077 113.99665551830549,138.50838959572138 109.33110367879272,137.98558412038255 108.75919732428156,139.79797301910003 108.2173913042061,140.07680122816237" stroke="#4DD2FF" stroke-linecap="round" stroke-linejoin="round" stroke-width="0.5"><title>2026-05-20 6.5km</title><desc>1779229838000</desc></polyline><polyline fill="none" points="133.0,143.4444406493567 154.07317073165905,126.92872245944454 154.71769590023905,127.48034180313698 158.5568240787834,127.57768629398197 160.01401141670067,127.02606711894623 154.43746756610926,116.7722661482403 158.8370524130296,113.91671849551494 160.9667877529282,113.20282758132089 163.48884276067838,111.22339440253563 165.59055526717566,114.33856237438158 167.2999481058214,115.31204611595604 168.36481577565428,118.52452134870691 169.65386611304712,120.21186909591779 171.02698495064396,120.92574429750675 177.0518941358896,130.69269429243286 178.5371043072082,137.6689037687902 182.09600415150635,142.21146965792286 179.77010897756554,143.4444406493567 179.26569797610864,144.48272830879432 179.91022314480506,144.61251402818016 187.0,139.22636222909205 185.76699532952625,138.83699832801358 184.14167099120095,135.3651491656783 182.51634665275924,133.38585373360547 182.1240269849077,132.08794841211056 184.08562532428186,131.01717254010146 183.24494032165967,129.45967393615865 181.59159314993303,130.3357678380853 179.77010897756554,129.81660137232393 176.79968863504473,126.57179178672959 172.54021795536391,120.17942018504255 172.20394395419862,118.91391008393839 174.13751946028788,117.4861490605399 174.1655422935728,116.99941088477499 173.01660612341948,116.35042549332138 171.30721328489017,117.74574245000258 170.46652828226797,117.38880148489261 169.5697976127267,115.73388814635109 169.90607161389198,113.49487405773834 167.69226777367294,112.1968876674946 166.8796056045685,110.05519855616149 164.91800726519432,108.2379964987631 161.75142708863132,103.50024236945319 160.65853658528067,103.72739657358034 157.2117280747043,99.24918379687006 154.1292163983453,96.8477973791305 151.27088738966268,95.38748597181984 150.34613388683647,97.26966387205175 154.57758173311595,99.86575306311715 159.36948624800425,104.31150664019515 159.4815775816096,105.70687635085778 160.99481058632955,108.33534687195788 162.28386092360597,109.27639894429012 165.56253243377432,114.30611286507337 167.18785677209962,115.57164127769647 168.36481577565428,118.49207226597355 168.53295277629513,120.69860236151726 169.7099117799662,121.9965540994308 161.35910742077976,126.60424004629022" stroke="#4DD2FF" stroke-linecap="round" stroke-linejoin="round" stroke-width="0.5"><title>2026-05-13 7.6km</title><desc>1778624699000</desc></polyline><polyline fill="none" points="47.38837485702243,189.92580413151882 48.34072255180217,191.2063977836806 49.13946577953175,196.61329697928159 50.675510448170826,197.53815292951185 50.98271938203834,200.09927969958517 54.36201765353326,204.36778257164406 51.65857903636061,206.18188049210585 51.32064920919947,206.67986650785315 51.78146260988433,207.0 60.045382928219624,200.9174134588393 59.89177846116945,200.52613233480952 58.87798897980247,200.73955845684395 56.81968912365846,196.50658267355175 55.314365348313004,194.76357772949268 54.88427284092177,193.30513833501027 56.97329359059222,192.09569616778754 56.20527125603985,190.49495744562591 55.744457855354995,190.28152506158222 53.931925146258436,191.27754173785797 52.21155511715915,190.67281766602537 49.17018667294178,187.36460273590637 48.40216433850583,185.40811678976752 44.34700641280506,180.10776341418386 43.947634798823856,178.86270229215734 46.190260015428066,177.0840358439309 45.975213761790656,176.40814021747792 44.8078198133735,175.76781683793524 42.22726476972457,177.26190289648366 41.213475288357586,175.6966697232856 42.25798566325102,173.38438060323824 41.950776729383506,172.5661823230621 39.15517543209717,171.67683419125387 38.41787399118766,169.2222215910151 35.929481627536006,166.83874066537828 32.45802067616023,161.751555298717 31.444231194560416,162.17845482256962 31.413510301383212,161.32465525285807 30.27683724637609,160.96890481581795 29.048001511371695,158.83439457925851 26.98970165499486,156.73544678508188 21.060569233377464,153.0 19.95461707189679,155.06339459493756 24.99284358555451,158.0517375555355 29.0787224045489,161.68040532732266 29.84674473910127,164.24179516092408 31.567114768200554,167.08776182189467 33.010996756725945,168.1549933378992 37.06615468254313,174.13142953213537 36.66678306856193,175.16306590108434 34.20911159843672,171.42781630824902 33.25676390400622,171.2855202954961 23.395357129978947,176.0879786745354 23.518240703386255,174.949624143861 22.535172115429305,173.5266757606296 20.75336029950995,167.79924986170954 21.859312461223453,167.58580360200722 23.979054104187526,174.3804454865167 27.69628220272716,181.3528200959263 30.215395459439605,187.7558986095246 28.679350790800527,188.5029167868488 23.395357129978947,188.2539109053905 22.84238104929682,189.89023201851523 21.705707994289696,191.34868567736703" stroke="#4DD2FF" stroke-linecap="round" stroke-linejoin="round" stroke-width="0.5"><title>2026-05-12 7.1km</title><desc>1778538486000</desc></polyline><polyline fill="none" points="92.42175217345357,194.175039854832 93.58763645589352,203.62501289509237 105.24647926166654,202.95001526689157 108.16118996590376,163.12503352807835 97.6682314388454,155.0250079454854 91.25586789473891,161.7750299507752 99.41705786064267,205.6500053643249 107.57824782654643,196.87503352575004 107.57824782654643,162.45003177504987 98.83411571756005,154.35000536497682 91.25586789473891,159.7500240718946 90.6729257516563,197.55003177234903 99.41705786064267,205.6500053643249 108.16118996590376,198.22502995003015 108.74413210526109,162.45003177504987 92.42175217345357,157.72501757135615 97.6682314388454,207.0 106.99530568346381,198.22502995003015 108.16118996590376,161.7750299507752 100.58294213935733,154.35000536497682 91.25586789473891,160.42502609966323 91.83881003409624,199.57502609910443 100.58294213935733,205.6500053643249 108.16118996590376,162.45003177504987 100.58294213935733,153.67500271787867 91.25586789473891,159.7500240718946 97.6682314388454,205.6500053643249 107.57824782654643,200.2500240718946 109.91001638770103,165.15003837551922 100.58294213935733,154.35000536497682 91.83881003409624,159.7500240718946 98.25117357820272,206.3250027159229 108.74413210526109,198.22502995003015 108.16118996590376,159.07502197334543 100.0,153.0 90.6729257516563,161.7750299507752 91.83881003409624,198.22502995003015 100.0,207.0 109.3270742483437,161.7750299507752 102.3317685611546,153.67500271787867 93.0046943128109,160.42502609966323 97.08528929576278,206.3250027159229 108.16118996590376,197.55003177234903 108.74413210526109,161.10002805944532 102.91471070051193,153.67500271787867 90.6729257516563,160.42502609966323 90.6729257516563,197.55003177234903 100.58294213935733,205.6500053643249 108.74413210526109,193.50004126364365 107.57824782654643,161.10002805944532 98.25117357820272,153.0 90.6729257516563,161.7750299507752 91.25586789473891,198.90002806019038 101.16588427871466,206.3250027159229 108.74413210526109,159.7500240718946 100.0,153.67500271787867 90.6729257516563,160.42502609966323 91.83881003409624,198.22502995003015 101.16588427871466,205.6500053643249 107.57824782654643,160.42502609966323 98.83411571756005,153.67500271787867 90.6729257516563,160.42502609966323 92.42175217345357,198.22502995003015 102.3317685611546,205.6500053643249 107.57824782654643,159.7500240718946 98.83411571756005,154.35000536497682 91.25586789473891,162.45003177504987 92.42175217345357,198.90002806019038 101.74882642179728,204.97500794380903 107.57824782654643,159.7500240718946 98.83411571756005,153.67500271787867 91.25586789473891,162.45003177504987 90.6729257516563,196.87503352575004 103.49765283986926,206.3250027159229 106.99530568346381,160.42502609966323 99.41705786064267,153.67500271787867 90.08998361229897,161.10002805944532 97.6682314388454,205.6500053643249 106.99530568346381,198.90002806019038 108.16118996590376,164.47503682877868 98.83411571756005,154.35000536497682 90.08998361229897,161.10002805944532 91.83881003409624,198.90002806019038 102.91471070051193,206.3250027159229 108.16118996590376,159.7500240718946 97.6682314388454,153.67500271787867 90.08998361229897,162.45003177504987 92.42175217345357,199.57502609910443 102.91471070051193,204.30001045344397 108.16118996590376,159.7500240718946 100.58294213935733,153.0 91.83881003409624,160.42502609966323 91.25586789473891,197.55003177234903 100.0,205.6500053643249 107.57824782654643,198.90002806019038 109.3270742483437,160.42502609966323 100.58294213935733,153.0 90.6729257516563,161.7750299507752 97.6682314388454,205.6500053643249 107.57824782654643,199.57502609910443 108.74413210526109,162.45003177504987 101.74882642179728,154.35000536497682 91.25586789473891,158.40001980774105 97.08528929576278,205.6500053643249 107.57824782654643,199.57502609910443 108.74413210526109,163.8000352117233 101.74882642179728,154.35000536497682 91.25586789473891,161.10002805944532 90.6729257516563,197.55003177234903 98.83411571756005,204.97500794380903 108.16118996590376,197.55003177234903 108.74413210526109,164.47503682877868 101.16588427871466,154.35000536497682 90.6729257516563,162.45003177504987 97.6682314388454,205.6500053643249 107.57824782654643,196.87503352575004 108.16118996590376,164.47503682877868 102.3317685611546,155.0250079454854 90.6729257516563,160.42502609966323 98.25117357820272,205.6500053643249 107.57824782654643,200.2500240718946 109.3270742483437,163.12503352807835 101.74882642179728,153.67500271787867 91.25586789473891,159.7500240718946 98.25117357820272,205.6500053643249 108.16118996590376,198.90002806019038 108.16118996590376,162.45003177504987 99.41705786064267,154.35000536497682 91.83881003409624,160.42502609966323 98.25117357820272,205.6500053643249 108.16118996590376,197.55003177234903 109.3270742483437,162.45003177504987 93.0046943128109,157.0500152669847 90.08998361229897,183.37505415873602 90.6729257516563,158.40001980774105 102.91471070051193,155.70001045428216 108.74413210526109,165.15003837551922 109.91001638770103,198.90002806019038 96.50234715640545,205.6500053643249 90.08998361229897,160.42502609966323 102.91471070051193,154.35000536497682 109.91001638770103,166.5000412641093 110.49295852705836,198.22502995003015 96.50234715640545,206.3250027159229 90.08998361229897,158.40001980774105 102.3317685611546,154.35000536497682 109.91001638770103,165.15003837551922 106.99530568346381,203.62501289509237 92.42175217345357,202.2750175697729 89.50704147294164,169.8750472809188 90.08998361229897,157.72501757135615 105.24647926166654,155.70001045428216 108.74413210526109,200.9250219729729 98.83411571756005,206.3250027159229 90.6729257516563,196.20003521163017 89.50704147294164,159.7500240718946 99.41705786064267,153.0 108.74413210526109,165.82503985380754 108.16118996590376,199.57502609910443 95.33646287769079,204.97500794380903 90.6729257516563,189.4500482780859 90.6729257516563,157.72501757135615 105.82942140474916,156.3750128946267 108.16118996590376,200.9250219729729 93.58763645589352,204.30001045344397 91.25586789473891,183.37505415873602" stroke="#4DD2FF" stroke-linecap="round" stroke-linejoin="round" stroke-width="0.5"><title>2026-01-14 6.3km</title><desc>1768393184000</desc></polyline><polyline fill="none" points="149.9369369369233,170.4944964233582 149.68468468473293,170.51531998842256 150.04504504508805,170.76520260552934 150.92792792792898,170.9942614047468 152.02702702698298,170.9526143692783 153.6126126126619,170.16131909519027 154.17117117112502,171.764730041672 154.8378378378693,172.3269620926294 156.8738738738466,172.9100159315858 158.3513513513608,172.5768425114511 159.72072072082665,173.15989564299525 162.15315315313637,177.38698148143885 164.1891891892301,179.11527237805421 164.74774774780963,180.11475928983418 165.95495495491195,181.2391762680636 167.88288288295735,181.9054945437092 169.70270270272158,183.23812462837668 170.5855855855625,183.0923686327733 172.24324324331246,183.55045855720527 172.76576576579828,184.59156823292142 176.36936936934944,186.7362375792436 179.55855855857953,187.5691128590115 181.3243243243778,186.23651079492993 182.47747747751419,183.9669030589721 182.80180180177558,185.1329431845952 182.56756756757386,186.00746894691838 184.7477477476932,186.04911293819896 184.90990990994032,186.54884017726 185.73873873869888,186.9236348108243 186.96396396390628,188.54773700953228 186.74774774780963,189.42224827416067 186.2252252253238,189.83868090480973 187.0,189.19320996846363 186.63963963964488,189.38060496479739 186.90990990994032,188.56855874948087 185.68468468473293,186.90281290463463 185.03603603609372,186.6113059968775 184.62162162165623,186.00746894691838 182.60360360355116,186.02829094362096 182.56756756757386,183.9669030589721 181.4864864865085,186.06993493072514 180.45945945952553,187.02774431022408 179.3243243243778,187.5691128590115 178.26126126130112,187.00692241457 176.5495495495852,186.7362375792436 172.7117117117159,184.57074609096162 171.900900900946,183.32141372234037 170.72972972970456,183.02990174597653 169.66666666662786,183.1548355006089 167.82882882887498,181.80138245524722 165.86486486485228,181.01012886296667 164.81981981988065,180.05229149997467 164.2252252252074,179.01115887914784 162.0630630630767,177.15792979227263 160.63963963964488,174.92986825216212 159.91891891893465,173.18071893858723 158.09909909917042,172.38943222575472 157.03603603609372,172.6809592631471 155.88288288284093,172.51437243519467 151.63063063065056,173.40977505118644 148.92792792792898,174.40928965204512 147.66666666662786,176.8455861692928 146.26126126130112,183.02990174597653 144.5135135136079,185.00801062976825 142.2252252252074,185.19540943359607 134.72972972970456,184.00854746284313 133.86486486485228,180.4895656313165 133.0,174.6175212500093 138.06306306296028,174.26352740827133 139.39639639644884,173.7845935949881 143.4864864865085,173.3056586679595 145.95495495502837,172.09790477568458 146.81981981988065,171.36908434491488 147.4144144144375,171.45237823898788 148.63963963952847,172.36860885011265 149.8108108107699,171.82720034534577 149.79279279278126,171.0775554504362 150.3153153153835,171.119202460628 150.3873873873381,171.36908434491488" stroke="#4DD2FF" stroke-linecap="round" stroke-linejoin="round" stroke-width="0.5"><title>2026-01-10 8.4km</title><desc>1768033403000</desc></polyline><polyline fill="none" points="48.713636363623664,233.45263825295842 46.9136363635771,231.93971243669512 48.42727272748016,230.56861918704817 48.8363636364229,231.27780585270375 51.94545454555191,231.70331733571948 55.66818181844428,230.5213400378707 57.550000000046566,235.67473917029565 60.659090909175575,236.1475252371456 46.21818181825802,240.4025783255638 44.6636363635771,241.53725260976353 42.16818181844428,246.9741953482444 38.772727272473276,261.5827109796228 35.66363636380993,264.89202005331754 33.45454545458779,265.6957058656553 30.059090909082443,265.6957058656553 13.0,263.09554089044104 30.30454545444809,265.83753263013205 33.94545454555191,265.6957058656553 35.66363636380993,264.89202005331754 38.772727272473276,261.5827109796228 42.49545454559848,245.93408945354167 45.23636363632977,241.25358429685002 51.16818181821145,239.12606646490167 61.10909090912901,236.99853895261185 64.3000000002794,237.51860212735482 66.59090909105726,236.00568946721614 67.0,233.97270537167788 65.20000000018626,228.53561145073036 60.20909090922214,224.84780741398572 60.25000000023283,214.16246736986795 56.64999999990687,214.4461521197518 55.5863636364229,215.58088939788286 54.93181818188168,227.6845823316835 57.38636363646947,236.10024665197125 46.463636363623664,238.55872674140846 44.786363636376336,236.7621464091353 45.93181818188168,235.67473917029565 52.477272727293894,235.86385365438764 54.35909090912901,235.15467394475127 56.159090909175575,233.35808053298388 54.85000000009313,229.8121522248548 49.94090909115039,229.67031453322852 49.449999999953434,228.86656680089072 47.28181818174198,228.34649400261696 45.80909090908244,228.53561145073036 44.74545454536565,230.3795025612053 46.75000000023283,233.02712836206774 48.509090909035876,233.8308689421974 48.34545454545878,234.44549315940822" stroke="#4DD2FF" stroke-linecap="round" stroke-linejoin="round" stroke-width="0.5"><title>2025-11-16 6.1km</title><desc>1763283912000</desc></polyline></svg>