<?xml version="1.0" encoding="utf-8" ?>
<svg baseProfile="full" height="300mm" version="1.1" viewBox="0,0,200,300" width="200mm" xmlns="http://www.w3.org/2000/svg" xmlns:ev="http://www.w3.org/2001/xml-events" xmlns:xlink="http://www.w3.org/1999/xlink"><defs /><rect fill="#222222" height="300" width="200" x="0" y="0" /><text fill="#FFFFFF" style="font-size:12px; font-family:Arial; font-weight:bold;" x="10" y="20">Over 5km Runs</text><text fill="#FFFFFF" style="font-size:4px; font-family:Arial" x="10" y="280">Runner</text><text fill="#FFFFFF" style="font-size:9px; font-family:Arial" x="10" y="290">saveole</text><text fill="#FFFFFF" style="font-size:4px; font-family:Arial" x="65" y="280">SPECIAL TRACKS</text><rect fill="yellow" height="2.6" width="2.6" x="65" y="283" /><text fill="#FFFFFF" style="font-size:3px; font-family:Arial" x="70" y="285.5">Over 20.0 km</text><rect fill="red" height="2.6" width="2.6" x="65" y="287" /><text fill="#FFFFFF" style="font-size:3px; font-family:Arial" x="70" y="289.5">Over 40.0 km</text><text fill="#FFFFFF" style="font-size:4px; font-family:Arial" x="120" y="280">STATISTICS</text><text fill="#FFFFFF" style="font-size:3px; font-family:Arial" x="120" y="285">Number: 11</text><text fill="#FFFFFF" style="font-size:3px; font-family:Arial" x="120" y="290">Weekly: 1.6</text><text fill="#FFFFFF" style="font-size:3px; font-family:Arial" x="141" y="285">Total: 80.8 km</text><text fill="#FFFFFF" style="font-size:3px; font-family:Arial" x="141" y="290">Avg: 7.3 km</text><text fill="#FFFFFF" style="font-size:3px; font-family:Arial" x="167" y="285">Min: 5.6 km</text><text fill="#FFFFFF" style="font-size:3px; font-family:Arial" x="167" y="290">Max: 10.4 km</text><polyline fill="none" points="59.02475247532129,67.14578694221564 58.735148514970206,66.6556581013574 61.96534653485287,65.46902645140653 63.76980198023375,64.23079619057535 61.69801980210468,61.85750459435803 60.3836633664323,59.664769756549504 59.80445544561371,57.962162546638865 59.20297029707581,57.34302981266228 54.970297029823996,54.06676055204298 50.64851485157851,52.106138192277285 44.43316831684206,51.89975600776961 39.33168316842057,52.72528373611567 30.06435643567238,53.318630127745564 25.675742574268952,54.47952121887647 24.383663366315886,54.11835567219532 22.668316831812263,54.273140969569795 21.554455445613712,54.84068625018699 18.948019801988266,55.04706603674276 13.0,57.85897386277793 15.42821782187093,56.49171983079577 16.98762376245577,56.18215185473673 19.371287128771655,54.7632937868766 21.353960396023467,54.81488876507501 24.2277227723971,54.06676055204298 25.653465346666053,54.427926172313164 29.75247524760198,53.16384424662101 36.16831683181226,53.112248931865906 37.148514851462096,52.54469977563713 39.59900990105234,52.82847451286216 43.720297029823996,51.87395822288818 44.745049505028874,52.209329221441294 48.420792079297826,51.977149346712395 50.11386138619855,52.26092472020537 50.58168316842057,52.02874489281385 52.809405940701254,52.69948603537341 53.0321782178944,53.318630127745564 56.50742574268952,54.96967363647127 59.29207920806948,57.31723258258717 60.33910891087726,58.68448215558601 60.405940594151616,59.613175766862696 61.764851485262625,61.83170782435627 62.85643564374186,62.60560978169087 65.48514851485379,66.68145437978092 67.0,68.12604177711182" stroke="#4DD2FF" stroke-linecap="round" stroke-linejoin="round" stroke-width="0.5"><title>2026-06-03 5.6km</title><desc>1780440560000</desc></polyline><polyline fill="none" points="126.13357400731184,67.96385943624773 122.19133574003354,61.86889979339321 122.23465703974944,60.76526956356247 119.07220216607675,56.70186106621986 118.5090252708178,54.87079703951895 114.78339350176975,51.68521482817596 110.45126353786327,49.1517696181254 103.47653429594357,48.900932039818144 98.58122743689455,49.703611390534206 96.52346570394002,49.62836031257757 95.33212996390648,50.255451925462694 92.7545126354089,50.456120904156705 91.64981949457433,50.104950084147276 89.35379061370622,50.38087005635316 85.25992779782973,51.40929631832114 84.00361010839697,51.00795975179062 82.53068592061754,51.18354458018439 80.94945848372299,51.86079917335883 78.82671480148565,51.910966106152046 76.83393501804676,53.089886082321755 73.0,54.5697989094042 73.45487364626024,54.67013166034303 73.67148014437407,54.24371718642942 75.85920577624347,53.16513610178663 76.81227436824702,53.19021943656844 79.08664259931538,51.76046527718427 81.1444043321535,51.86079917335883 83.7870036100503,51.15846104090451 85.21660649823025,51.53471386121237 89.37545126362238,50.20528465529787 95.26714801439084,50.20528465529787 96.28519855602644,49.60327661485644 97.88808664260432,49.47785808768822 98.73285198549274,49.87919714952295 103.10830324911512,48.9260158091347 103.64981949457433,49.25210457788489 104.94945848372299,48.95109957589011 110.08303249091841,49.25210457788489 111.62093862821348,49.77886244542606 111.83754512632731,50.30561918547028 115.00000000011642,51.910966106152046 115.30324909742922,52.46280169165402 115.95306859200355,52.61330209109292 118.09747292427346,54.394216496904846 118.87725631776266,55.34737665920693 119.05054151627701,56.45103118281986 120.28519855591003,58.633242605937994 121.41155234666076,59.51113829576934 123.55595667869784,62.82203100962215 125.07220216619316,64.22663870621182 126.17689530691132,66.75992875199881 126.0252707580803,67.91369577532168 127.0,69.29319272654539 123.66425992781296,71.09906796018186" stroke="#4DD2FF" stroke-linecap="round" stroke-linejoin="round" stroke-width="0.5"><title>2026-06-02 6.3km</title><desc>1780353915000</desc></polyline><polyline fill="none" points="174.16330587904667,55.107872726832284 172.78301618859405,53.474001500420854 171.29537063342286,50.66796951851575 169.20959954557475,48.83869649248663 165.6975291109993,46.867322509380756 162.38483385398285,46.600918909185566 154.13376881566364,47.5244496485393 151.31184322637273,47.50668948816019 149.10337972163688,48.270374749365146 147.78443623974454,48.41245535889175 147.24765691562789,48.18157430952124 145.7140017040074,48.39469528905465 145.14654927578522,48.71437626951956 143.45952854305506,48.803176437853836 142.07923885260243,49.62013586277317 140.91366089176154,49.90429476494319 139.05793808575254,50.82780799693137 138.567168418027,50.774528520400054 138.3371201363043,51.21852366019448 137.3095711445785,51.73355660503148 135.83726214140188,53.172088836101466 135.1777904004557,53.367444149189396 133.58278898039134,54.7171657835861 133.0,54.84148172415735 133.5061062198365,54.73492520912259 135.28514626523247,53.31416544919193 135.7452428287943,53.24312715715496 135.99062766256975,52.72809867373144 138.76654359558597,50.75676869129529 141.9105367793818,49.691175631814986 143.52087475144072,48.71437626951956 145.13121272367425,48.76765637594508 147.00227208179422,48.199334401128 147.95313831302337,48.48349562023941 148.50525418919278,48.16381421616825 149.149389378028,48.21709449090122 149.48679352452746,47.93293283734238 150.805737006478,47.64877072042145 151.52655495598447,47.73757143173134 152.46208463504445,47.43564882861392 153.16756603238173,47.63101057270251 155.09997159900377,47.5777301187627 155.69809713144787,47.20476648499607 157.33910820784513,47.29356742258824 160.71314967342187,46.6364394127595 165.40613462083274,46.849562282062834 166.66373189433943,47.275807238635025 166.78642431128537,47.63101057270251 167.7066174382344,48.234854578826344 169.07157057657605,48.76765637594508 171.72479409264633,51.111964929805254 171.89349616586696,52.0532314604352 172.706333427981,53.438482390585705 173.5958534507663,54.20214165651123 175.3595569440513,56.90156154277793 176.0957114456687,57.452095991538954 176.90854870778276,59.28127860717359 177.50667424022686,60.098188913660124 178.16614598123124,60.48888379367418 181.00340812269133,64.69767764832068 181.7548991763615,66.15386114045396 182.12297642719932,67.66330679738894 182.33768815681105,68.95964381066733 182.06163021875545,69.4391084828676 182.21499573992332,70.8419790234475 182.32235160464188,71.14386108139297 182.7824481682037,71.2148920778709 183.07384265837027,72.67102112725843 182.7364385118126,73.39908109081443 184.1320647543762,72.61774832759693 187.0,70.38027604132367 186.89264413522324,70.22045549337054 186.4478841238888,70.38027604132367 185.3743254757137,68.1960492026119 184.62283442210173,67.30814428940357 184.39278614032082,66.59781710231618 185.4663447883795,66.02955326843949 185.06759443343617,65.17715404398041 183.96336268109735,65.58559585922922 183.16586197103607,65.33697921609564 182.0769667708082,63.98733982289559 181.72422607213957,63.845271910438896 179.301050837792,60.24025988046196 179.42374325479614,59.86732334563567 178.9789832434617,59.45886812997924 180.06787844363134,58.588677739244304 179.9451860267436,58.109183218330145 179.393070150516,57.87831501555047 178.1814825334004,58.60643677027838 177.64470320928376,57.754001241206424 177.7673956262879,57.18570857222949 175.97301902878098,58.109183218330145 176.15705765411258,58.251255806550034 175.98835558077553,58.19797859954997 175.8656631638878,58.535400635460974 177.56802044872893,60.89733659545891 177.52201079239603,61.18147711038182 172.39960238570347,63.91630588116823 170.60522578808013,64.28923375242448 168.65748366946355,64.0938906812662 168.28940641862573,65.05284547545307 167.81397330301115,65.51456256875827" stroke="#4DD2FF" stroke-linecap="round" stroke-linejoin="round" stroke-width="0.5"><title>2026-05-28 10.4km</title><desc>1779920511000</desc></polyline><polyline fill="none" points="65.4698517298093,125.23334586138662 63.405930807231925,121.97804197150981 62.65864909382071,121.42175061996386 61.53772652382031,119.81467811726907 61.53772652382031,119.07294803811237 60.790444810525514,118.00155534160149 58.673146622721106,116.10600050761423 56.78714991756715,115.3848608492699 54.527512355824,113.65411517342727 50.595387149835005,113.32444765038963 47.90873146627564,113.44807303455309 44.67051070835441,114.04559465880448 36.966392092290334,114.56069808975735 33.888303130166605,115.40546487523534 32.64283360785339,115.1376123742375 30.578912685392424,115.73512900457717 28.586161449784413,115.81754495290807 26.878088962170295,116.82713759344188 22.69686985167209,118.39302640825917 17.003294892958365,122.80217449358315 16.256013179547153,122.67855482941377 15.028336079092696,123.56449408558547 13.07116968696937,124.34741391788702 13.0,124.7800788404129 13.51598023076076,125.23334586138662 13.711696869926527,126.09867098880932 14.423393739736639,126.01625923138636 14.619110378902406,125.50118498706433 14.458978583221324,124.82128497523081 13.960790774319321,124.71826962246269 13.6583196046995,124.1619858105696 15.099505766062066,123.60570046816429 16.238220757921226,122.69915811200917 17.021087314700708,122.71976139248 17.537067545345053,122.081058720476 19.10280065902043,121.00968196534086 19.600988467922434,120.94787159464613 19.921252059284598,120.35037037087022 21.486985172959976,119.25838081302936 22.501153212506324,118.92872242894373 23.03492586489301,118.24880031400244 24.956507413531654,117.61008351696364 25.56144975288771,117.11559170750843 26.700164744630456,116.88894922393956 28.4616144974716,115.81754495290807 30.329818780883215,115.73512900457717 32.7673805601662,115.1376123742375 33.60362438217271,115.36425682117988 35.04481054365169,115.2200285661529 37.14431630971376,114.47828162899532 37.89159802312497,114.68432271790516 39.13706754532177,114.27224033008679 39.8131795716472,114.56069808975735 42.0906095552491,114.41646926139947 42.64217462926172,114.04559465880448 44.02998352551367,113.86015710231732 44.937397034605965,114.12801129590662 48.638220757828094,113.3450518863392 50.702141680405475,113.32444765038963 54.81219110370148,113.7777403559885 56.73377265234012,115.24063260885305 58.94003294885624,116.33264386888186 61.484349258593284,118.72268566586717 61.53772652382031,119.6086422571243 62.569686985109,121.25692325887212 63.42372322885785,121.93683525716187 65.30971993401181,124.92430027548107 67.0,126.67555234959582" stroke="#4DD2FF" stroke-linecap="round" stroke-linejoin="round" stroke-width="0.5"><title>2026-05-23 7.2km</title><desc>1779492268000</desc></polyline><polyline fill="none" points="116.95619987667305,130.9843771445303 117.20604565081885,130.05861630929576 120.05428747687256,130.23219681069895 120.43738433072576,129.84646214684471 121.30351634795079,129.7500283580739 126.55027760646772,127.14629749089363 126.98334361508023,126.58697285376547 123.08574953727657,120.95506026341172 123.23565700184554,120.24141554116795 121.76989512646105,118.60195125819882 120.05428747687256,115.40013300233113 118.4386181369191,113.95351060321264 117.92227020359132,113.85706871678121 117.68908081430709,113.43272383254953 116.23997532390058,112.93122410630167 115.0240592227201,111.79320056723373 113.40838988276664,111.25311920499371 111.84268969774712,111.19525325333234 111.4762492289301,111.40742832289834 110.09376927826088,111.15667594238766 109.02776064159116,111.38813969005423 108.49475632334361,111.15667594238766 105.3300431832904,111.85106633607938 104.73041332513094,111.5810259301652 103.26465144980466,111.754623378205 102.58173966687173,112.1211063566152 101.06600863666972,112.14039491474978 99.98334361508023,112.58403120962612 99.06724244292127,112.06324067033711 98.35101789026521,112.08252923440887 94.96977174584754,113.04695493032341 93.82048118452076,112.7962047221663 91.638494756422,113.33628168073483 89.93954349169508,113.39414697770553 88.42381246149307,114.30070098748547 87.09130166575778,114.64789073480642 86.64157927210908,115.09152115178586 84.65946946339682,115.57372694721562 81.57803824811708,118.17761701262498 79.6625539790839,119.27702650643187 79.16286243067589,119.89423605472257 77.6304750154959,120.08711362583563 77.36397285631392,120.56930669365101 75.33189389278414,121.41796350938966 75.44848858739715,121.90015318665246 75.11536088841967,122.17017886941903 73.0,119.45061689529393 75.34855027770391,119.95209934673039 77.29734731657663,119.31560216212529 83.89327575580683,114.512872575433 84.95928439247655,114.37785431972588 87.92412091308506,112.69976224597485 90.90561381872976,111.73533478072204 94.83652066631475,111.40742832289834 96.56878470088122,110.88663454564812 97.851326341799,111.09880996124411 100.04996915487573,110.80947979007033 100.14990746456897,110.52014917654742 101.28254164103419,109.99935295748583 103.66440468846122,109.99935295748583 105.69648365210742,109.55571060338116 106.86243059841217,109.71002110543486 107.46206045657163,109.43997764434607 108.29487970395712,109.61357705637056 109.5107958051376,109.0156228554697 110.69339913630392,109.15064493696264 111.90931523754261,109.49784413272573 112.1091918568709,109.84504269144963 115.94016039487906,110.86734585973318 115.50709438620834,112.27541476675833 117.63911165948957,113.39414697770553 120.10425663169008,115.41942122633918 120.75385564466706,116.26810113419197 120.82048118446255,117.05891307767888 121.76989512646105,118.54408755348413 122.53608883405104,119.14201164938277 124.36829117831076,121.99659097474068 125.4176434300025,122.9223912400339 125.101172116003,124.09892254327133 127.0,126.64483409970126 126.18383713759249,127.37774168493343 121.32017273287056,129.90432239655638 119.55459592846455,130.25148352330143 117.17273288097931,130.17433666126453" stroke="#4DD2FF" stroke-linecap="round" stroke-linejoin="round" stroke-width="0.5"><title>2026-05-21 9.2km</title><desc>1779317412000</desc></polyline><polyline fill="none" points="169.2107023410499,138.54324326568167 169.45150501665194,137.91587666326086 174.1170568561647,138.12499899187242 175.35117056849413,137.39307028229814 176.52508361195214,137.39307028229814 187.0,131.88612786860904 180.04682274232619,121.98735024634516 179.80602006684057,121.22053157398477 180.2575250834925,120.55827770067845 175.68227424740326,114.45851067701005 175.77257525071036,113.51739407796413 174.89966555172578,111.8791478946514 170.1438127089059,107.76606970245484 163.70234113698825,104.24551433246234 154.0100334447343,103.68779926528805 147.2073578594718,104.87294269585982 146.63545150496066,104.55922865797766 138.56856187281664,105.60494099825155 134.38461538462434,105.5003699081426 133.48160535120405,106.09293899612385 133.81270903011318,106.68550705740927 133.69230769225396,102.78151034130133 133.15050167229492,102.74665302707581 133.0,103.61808481786284 134.44481605349574,103.82722811732674 138.56856187281664,103.19979783537565 138.38795986608602,102.81636765206349 140.0133779263124,101.97979121410754 144.52842809353024,101.80550419876818 148.50167224067263,101.03864027536474 150.51839464879595,101.24778515228536 151.66220735781826,100.75978024062351 153.107023411314,101.00378278348944 155.36454849492293,99.92319877183763 157.71237458183896,100.23691706248792 159.63879598653875,100.79463775735348 159.96989966544788,101.45692990129464 166.83277591969818,103.2346551035298 166.2006688961992,105.95351106784074 170.1438127089059,107.90549689184991 175.1705685617635,112.08828614227241 175.86287625401746,113.44768163436675 175.80267558514606,114.49336679768749 177.54849498323165,117.35155659890734 179.0836120400345,118.5017969738692 182.36454849492293,123.62554801435908 184.08026755833998,125.01975270058028 184.08026755833998,125.78656285564648 183.41806020052172,126.3442418888153 183.53846153838094,127.32017800884205 186.96989966544788,132.02554522603168 176.73578595311847,137.6370466928056 175.47157190623693,137.67190045159077 173.9966555183055,138.50838959572138 169.33110367879272,137.98558412038255 168.75919732428156,139.79797301910003 168.2173913042061,140.07680122816237" stroke="#4DD2FF" stroke-linecap="round" stroke-linejoin="round" stroke-width="0.5"><title>2026-05-20 6.5km</title><desc>1779229838000</desc></polyline><polyline fill="none" points="13.0,203.4444406493567 34.07317073165905,186.92872245944454 34.71769590023905,187.48034180313698 38.55682407878339,187.57768629398197 40.01401141670067,187.02606711894623 34.43746756610926,176.7722661482403 38.837052413029596,173.91671849551494 40.96678775292821,173.2028275813209 43.48884276067838,171.22339440253563 45.59055526717566,174.33856237438158 47.299948105821386,175.31204611595604 48.36481577565428,178.5245213487069 49.653866113047116,180.2118690959178 51.026984950643964,180.92574429750675 57.0518941358896,190.69269429243286 58.53710430720821,197.6689037687902 62.09600415150635,202.21146965792286 59.77010897756554,203.4444406493567 59.26569797610864,204.48272830879432 59.91022314480506,204.61251402818016 67.0,199.22636222909205 65.76699532952625,198.83699832801358 64.14167099120095,195.3651491656783 62.51634665275924,193.38585373360547 62.12402698490769,192.08794841211056 64.08562532428186,191.01717254010146 63.24494032165967,189.45967393615865 61.59159314993303,190.3357678380853 59.77010897756554,189.81660137232393 56.79968863504473,186.5717917867296 52.540217955363914,180.17942018504255 52.20394395419862,178.9139100839384 54.137519460287876,177.4861490605399 54.1655422935728,176.999410884775 53.01660612341948,176.35042549332138 51.30721328489017,177.74574245000258 50.46652828226797,177.3888014848926 49.56979761272669,175.7338881463511 49.90607161389198,173.49487405773834 47.69226777367294,172.1968876674946 46.879605604568496,170.05519855616149 44.91800726519432,168.2379964987631 41.75142708863132,163.5002423694532 40.65853658528067,163.72739657358034 37.2117280747043,159.24918379687006 34.12921639834531,156.8477973791305 31.270887389662676,155.38748597181984 30.34613388683647,157.26966387205175 34.57758173311595,159.86575306311715 39.36948624800425,164.31150664019515 39.4815775816096,165.70687635085778 40.99481058632955,168.33534687195788 42.28386092360597,169.27639894429012 45.56253243377432,174.30611286507337 47.18785677209962,175.57164127769647 48.36481577565428,178.49207226597355 48.53295277629513,180.69860236151726 49.709911779966205,181.9965540994308 41.359107420779765,186.60424004629022" stroke="#4DD2FF" stroke-linecap="round" stroke-linejoin="round" stroke-width="0.5"><title>2026-05-13 7.6km</title><desc>1778624699000</desc></polyline><polyline fill="none" points="107.38837485702243,189.92580413151882 108.34072255180217,191.2063977836806 109.13946577953175,196.61329697928159 110.67551044817083,197.53815292951185 110.98271938203834,200.09927969958517 114.36201765353326,204.36778257164406 111.6585790363606,206.18188049210585 111.32064920919947,206.67986650785315 111.78146260988433,207.0 120.04538292821962,200.9174134588393 119.89177846116945,200.52613233480952 118.87798897980247,200.73955845684395 116.81968912365846,196.50658267355175 115.314365348313,194.76357772949268 114.88427284092177,193.30513833501027 116.97329359059222,192.09569616778754 116.20527125603985,190.49495744562591 115.744457855355,190.28152506158222 113.93192514625844,191.27754173785797 112.21155511715915,190.67281766602537 109.17018667294178,187.36460273590637 108.40216433850583,185.40811678976752 104.34700641280506,180.10776341418386 103.94763479882386,178.86270229215734 106.19026001542807,177.0840358439309 105.97521376179066,176.40814021747792 104.8078198133735,175.76781683793524 102.22726476972457,177.26190289648366 101.21347528835759,175.6966697232856 102.25798566325102,173.38438060323824 101.9507767293835,172.5661823230621 99.15517543209717,171.67683419125387 98.41787399118766,169.2222215910151 95.929481627536,166.83874066537828 92.45802067616023,161.751555298717 91.44423119456042,162.17845482256962 91.41351030138321,161.32465525285807 90.27683724637609,160.96890481581795 89.0480015113717,158.83439457925851 86.98970165499486,156.73544678508188 81.06056923337746,153.0 79.95461707189679,155.06339459493756 84.99284358555451,158.0517375555355 89.0787224045489,161.68040532732266 89.84674473910127,164.24179516092408 91.56711476820055,167.08776182189467 93.01099675672594,168.1549933378992 97.06615468254313,174.13142953213537 96.66678306856193,175.16306590108434 94.20911159843672,171.42781630824902 93.25676390400622,171.2855202954961 83.39535712997895,176.0879786745354 83.51824070338625,174.949624143861 82.5351721154293,173.5266757606296 80.75336029950995,167.79924986170954 81.85931246122345,167.58580360200722 83.97905410418753,174.3804454865167 87.69628220272716,181.3528200959263 90.2153954594396,187.7558986095246 88.67935079080053,188.5029167868488 83.39535712997895,188.2539109053905 82.84238104929682,189.89023201851523 81.7057079942897,191.34868567736703" stroke="#4DD2FF" stroke-linecap="round" stroke-linejoin="round" stroke-width="0.5"><title>2026-05-12 7.1km</title><desc>1778538486000</desc></polyline><polyline fill="none" points="152.42175217345357,194.175039854832 153.58763645589352,203.62501289509237 165.24647926166654,202.95001526689157 168.16118996590376,163.12503352807835 157.6682314388454,155.0250079454854 151.2558678947389,161.7750299507752 159.41705786064267,205.6500053643249 167.57824782654643,196.87503352575004 167.57824782654643,162.45003177504987 158.83411571756005,154.35000536497682 151.2558678947389,159.7500240718946 150.6729257516563,197.55003177234903 159.41705786064267,205.6500053643249 168.16118996590376,198.22502995003015 168.7441321052611,162.45003177504987 152.42175217345357,157.72501757135615 157.6682314388454,207.0 166.9953056834638,198.22502995003015 168.16118996590376,161.7750299507752 160.58294213935733,154.35000536497682 151.2558678947389,160.42502609966323 151.83881003409624,199.57502609910443 160.58294213935733,205.6500053643249 168.16118996590376,162.45003177504987 160.58294213935733,153.67500271787867 151.2558678947389,159.7500240718946 157.6682314388454,205.6500053643249 167.57824782654643,200.2500240718946 169.91001638770103,165.15003837551922 160.58294213935733,154.35000536497682 151.83881003409624,159.7500240718946 158.25117357820272,206.3250027159229 168.7441321052611,198.22502995003015 168.16118996590376,159.07502197334543 160.0,153.0 150.6729257516563,161.7750299507752 151.83881003409624,198.22502995003015 160.0,207.0 169.3270742483437,161.7750299507752 162.3317685611546,153.67500271787867 153.0046943128109,160.42502609966323 157.08528929576278,206.3250027159229 168.16118996590376,197.55003177234903 168.7441321052611,161.10002805944532 162.91471070051193,153.67500271787867 150.6729257516563,160.42502609966323 150.6729257516563,197.55003177234903 160.58294213935733,205.6500053643249 168.7441321052611,193.50004126364365 167.57824782654643,161.10002805944532 158.25117357820272,153.0 150.6729257516563,161.7750299507752 151.2558678947389,198.90002806019038 161.16588427871466,206.3250027159229 168.7441321052611,159.7500240718946 160.0,153.67500271787867 150.6729257516563,160.42502609966323 151.83881003409624,198.22502995003015 161.16588427871466,205.6500053643249 167.57824782654643,160.42502609966323 158.83411571756005,153.67500271787867 150.6729257516563,160.42502609966323 152.42175217345357,198.22502995003015 162.3317685611546,205.6500053643249 167.57824782654643,159.7500240718946 158.83411571756005,154.35000536497682 151.2558678947389,162.45003177504987 152.42175217345357,198.90002806019038 161.74882642179728,204.97500794380903 167.57824782654643,159.7500240718946 158.83411571756005,153.67500271787867 151.2558678947389,162.45003177504987 150.6729257516563,196.87503352575004 163.49765283986926,206.3250027159229 166.9953056834638,160.42502609966323 159.41705786064267,153.67500271787867 150.08998361229897,161.10002805944532 157.6682314388454,205.6500053643249 166.9953056834638,198.90002806019038 168.16118996590376,164.47503682877868 158.83411571756005,154.35000536497682 150.08998361229897,161.10002805944532 151.83881003409624,198.90002806019038 162.91471070051193,206.3250027159229 168.16118996590376,159.7500240718946 157.6682314388454,153.67500271787867 150.08998361229897,162.45003177504987 152.42175217345357,199.57502609910443 162.91471070051193,204.30001045344397 168.16118996590376,159.7500240718946 160.58294213935733,153.0 151.83881003409624,160.42502609966323 151.2558678947389,197.55003177234903 160.0,205.6500053643249 167.57824782654643,198.90002806019038 169.3270742483437,160.42502609966323 160.58294213935733,153.0 150.6729257516563,161.7750299507752 157.6682314388454,205.6500053643249 167.57824782654643,199.57502609910443 168.7441321052611,162.45003177504987 161.74882642179728,154.35000536497682 151.2558678947389,158.40001980774105 157.08528929576278,205.6500053643249 167.57824782654643,199.57502609910443 168.7441321052611,163.8000352117233 161.74882642179728,154.35000536497682 151.2558678947389,161.10002805944532 150.6729257516563,197.55003177234903 158.83411571756005,204.97500794380903 168.16118996590376,197.55003177234903 168.7441321052611,164.47503682877868 161.16588427871466,154.35000536497682 150.6729257516563,162.45003177504987 157.6682314388454,205.6500053643249 167.57824782654643,196.87503352575004 168.16118996590376,164.47503682877868 162.3317685611546,155.0250079454854 150.6729257516563,160.42502609966323 158.25117357820272,205.6500053643249 167.57824782654643,200.2500240718946 169.3270742483437,163.12503352807835 161.74882642179728,153.67500271787867 151.2558678947389,159.7500240718946 158.25117357820272,205.6500053643249 168.16118996590376,198.90002806019038 168.16118996590376,162.45003177504987 159.41705786064267,154.35000536497682 151.83881003409624,160.42502609966323 158.25117357820272,205.6500053643249 168.16118996590376,197.55003177234903 169.3270742483437,162.45003177504987 153.0046943128109,157.0500152669847 150.08998361229897,183.37505415873602 150.6729257516563,158.40001980774105 162.91471070051193,155.70001045428216 168.7441321052611,165.15003837551922 169.91001638770103,198.90002806019038 156.50234715640545,205.6500053643249 150.08998361229897,160.42502609966323 162.91471070051193,154.35000536497682 169.91001638770103,166.5000412641093 170.49295852705836,198.22502995003015 156.50234715640545,206.3250027159229 150.08998361229897,158.40001980774105 162.3317685611546,154.35000536497682 169.91001638770103,165.15003837551922 166.9953056834638,203.62501289509237 152.42175217345357,202.2750175697729 149.50704147294164,169.8750472809188 150.08998361229897,157.72501757135615 165.24647926166654,155.70001045428216 168.7441321052611,200.9250219729729 158.83411571756005,206.3250027159229 150.6729257516563,196.20003521163017 149.50704147294164,159.7500240718946 159.41705786064267,153.0 168.7441321052611,165.82503985380754 168.16118996590376,199.57502609910443 155.3364628776908,204.97500794380903 150.6729257516563,189.4500482780859 150.6729257516563,157.72501757135615 165.82942140474916,156.3750128946267 168.16118996590376,200.9250219729729 153.58763645589352,204.30001045344397 151.2558678947389,183.37505415873602" stroke="#4DD2FF" stroke-linecap="round" stroke-linejoin="round" stroke-width="0.5"><title>2026-01-14 6.3km</title><desc>1768393184000</desc></polyline><polyline fill="none" points="29.936936936923303,230.4944964233582 29.68468468473293,230.51531998842256 30.045045045088045,230.76520260552934 30.927927927928977,230.9942614047468 32.02702702698298,230.9526143692783 33.612612612661906,230.16131909519027 34.171171171125025,231.764730041672 34.8378378378693,232.3269620926294 36.873873873846605,232.9100159315858 38.35135135136079,232.5768425114511 39.72072072082665,233.15989564299525 42.15315315313637,237.38698148143885 44.18918918923009,239.11527237805421 44.747747747809626,240.11475928983418 45.954954954911955,241.2391762680636 47.88288288295735,241.9054945437092 49.70270270272158,243.23812462837668 50.58558558556251,243.0923686327733 52.24324324331246,243.55045855720527 52.76576576579828,244.59156823292142 56.36936936934944,246.7362375792436 59.558558558579534,247.5691128590115 61.32432432437781,246.23651079492993 62.477477477514185,243.9669030589721 62.80180180177558,245.1329431845952 62.56756756757386,246.00746894691838 64.74774774769321,246.04911293819896 64.90990990994032,246.54884017726 65.73873873869888,246.9236348108243 66.96396396390628,248.54773700953228 66.74774774780963,249.42224827416067 66.22522522532381,249.83868090480973 67.0,249.19320996846363 66.63963963964488,249.38060496479739 66.90990990994032,248.56855874948087 65.68468468473293,246.90281290463463 65.03603603609372,246.6113059968775 64.62162162165623,246.00746894691838 62.603603603551164,246.02829094362096 62.56756756757386,243.9669030589721 61.48648648650851,246.06993493072514 60.45945945952553,247.02774431022408 59.32432432437781,247.5691128590115 58.261261261301115,247.00692241457 56.54954954958521,246.7362375792436 52.71171171171591,244.57074609096162 51.900900900946,243.32141372234037 50.72972972970456,243.02990174597653 49.66666666662786,243.1548355006089 47.828828828874975,241.80138245524722 45.86486486485228,241.01012886296667 44.81981981988065,240.05229149997467 44.225225225207396,239.01115887914784 42.0630630630767,237.15792979227263 40.639639639644884,234.92986825216212 39.91891891893465,233.18071893858723 38.09909909917042,232.38943222575472 37.03603603609372,232.6809592631471 35.88288288284093,232.51437243519467 31.630630630650558,233.40977505118644 28.927927927928977,234.40928965204512 27.66666666662786,236.8455861692928 26.261261261301115,243.02990174597653 24.513513513607904,245.00801062976825 22.225225225207396,245.19540943359607 14.729729729704559,244.00854746284313 13.86486486485228,240.4895656313165 13.0,234.6175212500093 18.063063062960282,234.26352740827133 19.396396396448836,233.7845935949881 23.48648648650851,233.3056586679595 25.95495495502837,232.09790477568458 26.81981981988065,231.36908434491488 27.414414414437488,231.45237823898788 28.63963963952847,232.36860885011265 29.810810810769908,231.82720034534577 29.792792792781256,231.0775554504362 30.315315315383486,231.119202460628 30.387387387338094,231.36908434491488" stroke="#4DD2FF" stroke-linecap="round" stroke-linejoin="round" stroke-width="0.5"><title>2026-01-10 8.4km</title><desc>1768033403000</desc></polyline><polyline fill="none" points="108.71363636362366,233.45263825295842 106.9136363635771,231.93971243669512 108.42727272748016,230.56861918704817 108.8363636364229,231.27780585270375 111.94545454555191,231.70331733571948 115.66818181844428,230.5213400378707 117.55000000004657,235.67473917029565 120.65909090917557,236.1475252371456 106.21818181825802,240.4025783255638 104.6636363635771,241.53725260976353 102.16818181844428,246.9741953482444 98.77272727247328,261.5827109796228 95.66363636380993,264.89202005331754 93.45454545458779,265.6957058656553 90.05909090908244,265.6957058656553 73.0,263.09554089044104 90.30454545444809,265.83753263013205 93.94545454555191,265.6957058656553 95.66363636380993,264.89202005331754 98.77272727247328,261.5827109796228 102.49545454559848,245.93408945354167 105.23636363632977,241.25358429685002 111.16818181821145,239.12606646490167 121.10909090912901,236.99853895261185 124.3000000002794,237.51860212735482 126.59090909105726,236.00568946721614 127.0,233.97270537167788 125.20000000018626,228.53561145073036 120.20909090922214,224.84780741398572 120.25000000023283,214.16246736986795 116.64999999990687,214.4461521197518 115.5863636364229,215.58088939788286 114.93181818188168,227.6845823316835 117.38636363646947,236.10024665197125 106.46363636362366,238.55872674140846 104.78636363637634,236.7621464091353 105.93181818188168,235.67473917029565 112.4772727272939,235.86385365438764 114.35909090912901,235.15467394475127 116.15909090917557,233.35808053298388 114.85000000009313,229.8121522248548 109.94090909115039,229.67031453322852 109.44999999995343,228.86656680089072 107.28181818174198,228.34649400261696 105.80909090908244,228.53561145073036 104.74545454536565,230.3795025612053 106.75000000023283,233.02712836206774 108.50909090903588,233.8308689421974 108.34545454545878,234.44549315940822" stroke="#4DD2FF" stroke-linecap="round" stroke-linejoin="round" stroke-width="0.5"><title>2025-11-16 6.1km</title><desc>1763283912000</desc></polyline></svg>