<?xml version="1.0" encoding="utf-8" ?>
<svg baseProfile="full" height="300mm" version="1.1" viewBox="0,0,200,300" width="200mm" xmlns="http://www.w3.org/2000/svg" xmlns:ev="http://www.w3.org/2001/xml-events" xmlns:xlink="http://www.w3.org/1999/xlink"><defs /><rect fill="#222222" height="300" width="200" x="0" y="0" /><text fill="#FFFFFF" style="font-size:12px; font-family:Arial; font-weight:bold;" x="10" y="20">Over 5km Runs</text><text fill="#FFFFFF" style="font-size:4px; font-family:Arial" x="10" y="280">Runner</text><text fill="#FFFFFF" style="font-size:9px; font-family:Arial" x="10" y="290">saveole</text><text fill="#FFFFFF" style="font-size:4px; font-family:Arial" x="65" y="280">SPECIAL TRACKS</text><rect fill="yellow" height="2.6" width="2.6" x="65" y="283" /><text fill="#FFFFFF" style="font-size:3px; font-family:Arial" x="70" y="285.5">Over 20.0 km</text><rect fill="red" height="2.6" width="2.6" x="65" y="287" /><text fill="#FFFFFF" style="font-size:3px; font-family:Arial" x="70" y="289.5">Over 40.0 km</text><text fill="#FFFFFF" style="font-size:4px; font-family:Arial" x="120" y="280">STATISTICS</text><text fill="#FFFFFF" style="font-size:3px; font-family:Arial" x="120" y="285">Number: 8</text><text fill="#FFFFFF" style="font-size:3px; font-family:Arial" x="120" y="290">Weekly: 1.6</text><text fill="#FFFFFF" style="font-size:3px; font-family:Arial" x="141" y="285">Total: 58.5 km</text><text fill="#FFFFFF" style="font-size:3px; font-family:Arial" x="141" y="290">Avg: 7.3 km</text><text fill="#FFFFFF" style="font-size:3px; font-family:Arial" x="167" y="285">Min: 6.1 km</text><text fill="#FFFFFF" style="font-size:3px; font-family:Arial" x="167" y="290">Max: 9.2 km</text><polyline fill="none" points="65.4698517298093,65.23334586138662 63.405930807231925,61.97804197150981 62.65864909382071,61.42175061996386 61.53772652382031,59.81467811726907 61.53772652382031,59.07294803811237 60.790444810525514,58.00155534160149 58.673146622721106,56.106000507614226 56.78714991756715,55.3848608492699 54.527512355824,53.65411517342727 50.595387149835005,53.32444765038963 47.90873146627564,53.44807303455309 44.67051070835441,54.045594658804475 36.966392092290334,54.56069808975735 33.888303130166605,55.40546487523534 32.64283360785339,55.137612374237506 30.578912685392424,55.735129004577175 28.586161449784413,55.817544952908065 26.878088962170295,56.827137593441876 22.69686985167209,58.393026408259175 17.003294892958365,62.80217449358315 16.256013179547153,62.67855482941377 15.028336079092696,63.564494085585466 13.07116968696937,64.34741391788702 13.0,64.7800788404129 13.51598023076076,65.23334586138662 13.711696869926527,66.09867098880932 14.423393739736639,66.01625923138636 14.619110378902406,65.50118498706433 14.458978583221324,64.82128497523081 13.960790774319321,64.71826962246269 13.6583196046995,64.1619858105696 15.099505766062066,63.60570046816429 16.238220757921226,62.69915811200917 17.021087314700708,62.719761392479995 17.537067545345053,62.081058720475994 19.10280065902043,61.00968196534086 19.600988467922434,60.94787159464613 19.921252059284598,60.35037037087022 21.486985172959976,59.25838081302936 22.501153212506324,58.92872242894373 23.03492586489301,58.24880031400244 24.956507413531654,57.61008351696364 25.56144975288771,57.11559170750843 26.700164744630456,56.88894922393956 28.4616144974716,55.817544952908065 30.329818780883215,55.735129004577175 32.7673805601662,55.137612374237506 33.60362438217271,55.36425682117988 35.04481054365169,55.220028566152905 37.14431630971376,54.47828162899532 37.89159802312497,54.68432271790516 39.13706754532177,54.27224033008679 39.8131795716472,54.56069808975735 42.0906095552491,54.41646926139947 42.64217462926172,54.045594658804475 44.02998352551367,53.86015710231732 44.937397034605965,54.12801129590662 48.638220757828094,53.345051886339206 50.702141680405475,53.32444765038963 54.81219110370148,53.7777403559885 56.73377265234012,55.24063260885305 58.94003294885624,56.33264386888186 61.484349258593284,58.722685665867175 61.53772652382031,59.6086422571243 62.569686985109,61.25692325887212 63.42372322885785,61.936835257161874 65.30971993401181,64.92430027548107 67.0,66.67555234959582" stroke="#4DD2FF" stroke-linecap="round" stroke-linejoin="round" stroke-width="0.5"><title>2026-05-23 7.2km</title><desc>1779492268000</desc></polyline><polyline fill="none" points="176.95619987667305,70.9843771445303 177.20604565081885,70.05861630929576 180.05428747687256,70.23219681069895 180.43738433072576,69.84646214684471 181.3035163479508,69.7500283580739 186.55027760646772,67.14629749089363 186.98334361508023,66.58697285376547 183.08574953727657,60.955060263411724 183.23565700184554,60.24141554116795 181.76989512646105,58.601951258198824 180.05428747687256,55.40013300233113 178.4386181369191,53.953510603212635 177.92227020359132,53.857068716781214 177.6890808143071,53.43272383254953 176.23997532390058,52.93122410630167 175.0240592227201,51.793200567233725 173.40838988276664,51.25311920499371 171.84268969774712,51.19525325333234 171.4762492289301,51.40742832289834 170.09376927826088,51.156675942387665 169.02776064159116,51.38813969005423 168.4947563233436,51.156675942387665 165.3300431832904,51.851066336079384 164.73041332513094,51.5810259301652 163.26465144980466,51.754623378205 162.58173966687173,52.1211063566152 161.06600863666972,52.14039491474978 159.98334361508023,52.58403120962612 159.06724244292127,52.06324067033711 158.3510178902652,52.08252923440887 154.96977174584754,53.04695493032341 153.82048118452076,52.796204722166294 151.638494756422,53.33628168073483 149.93954349169508,53.39414697770553 148.42381246149307,54.30070098748547 147.09130166575778,54.647890734806424 146.64157927210908,55.091521151785855 144.65946946339682,55.57372694721562 141.57803824811708,58.17761701262498 139.6625539790839,59.277026506431866 139.1628624306759,59.89423605472257 137.6304750154959,60.08711362583563 137.36397285631392,60.569306693651015 135.33189389278414,61.417963509389665 135.44848858739715,61.90015318665246 135.11536088841967,62.17017886941903 133.0,59.45061689529393 135.3485502777039,59.95209934673039 137.29734731657663,59.31560216212529 143.89327575580683,54.51287257543299 144.95928439247655,54.377854319725884 147.92412091308506,52.69976224597485 150.90561381872976,51.73533478072204 154.83652066631475,51.40742832289834 156.56878470088122,50.88663454564812 157.851326341799,51.098809961244115 160.04996915487573,50.80947979007033 160.14990746456897,50.52014917654742 161.2825416410342,49.999352957485826 163.66440468846122,49.999352957485826 165.69648365210742,49.55571060338116 166.86243059841217,49.71002110543486 167.46206045657163,49.43997764434607 168.29487970395712,49.61357705637056 169.5107958051376,49.0156228554697 170.69339913630392,49.150644936962635 171.90931523754261,49.49784413272573 172.1091918568709,49.845042691449635 175.94016039487906,50.86734585973318 175.50709438620834,52.27541476675833 177.63911165948957,53.39414697770553 180.10425663169008,55.41942122633918 180.75385564466706,56.268101134191966 180.82048118446255,57.05891307767888 181.76989512646105,58.54408755348413 182.53608883405104,59.142011649382766 184.36829117831076,61.996590974740684 185.4176434300025,62.9223912400339 185.101172116003,64.09892254327133 187.0,66.64483409970126 186.1838371375925,67.37774168493343 181.32017273287056,69.90432239655638 179.55459592846455,70.25148352330143 177.1727328809793,70.17433666126453" stroke="#4DD2FF" stroke-linecap="round" stroke-linejoin="round" stroke-width="0.5"><title>2026-05-21 9.2km</title><desc>1779317412000</desc></polyline><polyline fill="none" points="49.21070234104991,138.54324326568167 49.451505016651936,137.91587666326086 54.11705685616471,138.12499899187242 55.351170568494126,137.39307028229814 56.52508361195214,137.39307028229814 67.0,131.88612786860904 60.046822742326185,121.98735024634516 59.806020066840574,121.22053157398477 60.25752508349251,120.55827770067845 55.68227424740326,114.45851067701005 55.77257525071036,113.51739407796413 54.899665551725775,111.8791478946514 50.1438127089059,107.76606970245484 43.70234113698825,104.24551433246234 34.01003344473429,103.68779926528805 27.207357859471813,104.87294269585982 26.635451504960656,104.55922865797766 18.568561872816645,105.60494099825155 14.38461538462434,105.5003699081426 13.481605351204053,106.09293899612385 13.812709030113183,106.68550705740927 13.692307692253962,102.78151034130133 13.150501672294922,102.74665302707581 13.0,103.61808481786284 14.444816053495742,103.82722811732674 18.568561872816645,103.19979783537565 18.38795986608602,102.81636765206349 20.013377926312387,101.97979121410754 24.528428093530238,101.80550419876818 28.501672240672633,101.03864027536474 30.518394648795947,101.24778515228536 31.66220735781826,100.75978024062351 33.107023411314,101.00378278348944 35.36454849492293,99.92319877183763 37.71237458183896,100.23691706248792 39.63879598653875,100.79463775735348 39.96989966544788,101.45692990129464 46.83277591969818,103.2346551035298 46.200668896199204,105.95351106784074 50.1438127089059,107.90549689184991 55.1705685617635,112.08828614227241 55.862876254017465,113.44768163436675 55.80267558514606,114.49336679768749 57.54849498323165,117.35155659890734 59.083612040034495,118.5017969738692 62.36454849492293,123.62554801435908 64.08026755833998,125.01975270058028 64.08026755833998,125.78656285564648 63.41806020052172,126.3442418888153 63.53846153838094,127.32017800884205 66.96989966544788,132.02554522603168 56.735785953118466,137.6370466928056 55.47157190623693,137.67190045159077 53.99665551830549,138.50838959572138 49.331103678792715,137.98558412038255 48.75919732428156,139.79797301910003 48.2173913042061,140.07680122816237" stroke="#4DD2FF" stroke-linecap="round" stroke-linejoin="round" stroke-width="0.5"><title>2026-05-20 6.5km</title><desc>1779229838000</desc></polyline><polyline fill="none" points="133.0,143.4444406493567 154.07317073165905,126.92872245944454 154.71769590023905,127.48034180313698 158.5568240787834,127.57768629398197 160.01401141670067,127.02606711894623 154.43746756610926,116.7722661482403 158.8370524130296,113.91671849551494 160.9667877529282,113.20282758132089 163.48884276067838,111.22339440253563 165.59055526717566,114.33856237438158 167.2999481058214,115.31204611595604 168.36481577565428,118.52452134870691 169.65386611304712,120.21186909591779 171.02698495064396,120.92574429750675 177.0518941358896,130.69269429243286 178.5371043072082,137.6689037687902 182.09600415150635,142.21146965792286 179.77010897756554,143.4444406493567 179.26569797610864,144.48272830879432 179.91022314480506,144.61251402818016 187.0,139.22636222909205 185.76699532952625,138.83699832801358 184.14167099120095,135.3651491656783 182.51634665275924,133.38585373360547 182.1240269849077,132.08794841211056 184.08562532428186,131.01717254010146 183.24494032165967,129.45967393615865 181.59159314993303,130.3357678380853 179.77010897756554,129.81660137232393 176.79968863504473,126.57179178672959 172.54021795536391,120.17942018504255 172.20394395419862,118.91391008393839 174.13751946028788,117.4861490605399 174.1655422935728,116.99941088477499 173.01660612341948,116.35042549332138 171.30721328489017,117.74574245000258 170.46652828226797,117.38880148489261 169.5697976127267,115.73388814635109 169.90607161389198,113.49487405773834 167.69226777367294,112.1968876674946 166.8796056045685,110.05519855616149 164.91800726519432,108.2379964987631 161.75142708863132,103.50024236945319 160.65853658528067,103.72739657358034 157.2117280747043,99.24918379687006 154.1292163983453,96.8477973791305 151.27088738966268,95.38748597181984 150.34613388683647,97.26966387205175 154.57758173311595,99.86575306311715 159.36948624800425,104.31150664019515 159.4815775816096,105.70687635085778 160.99481058632955,108.33534687195788 162.28386092360597,109.27639894429012 165.56253243377432,114.30611286507337 167.18785677209962,115.57164127769647 168.36481577565428,118.49207226597355 168.53295277629513,120.69860236151726 169.7099117799662,121.9965540994308 161.35910742077976,126.60424004629022" stroke="#4DD2FF" stroke-linecap="round" stroke-linejoin="round" stroke-width="0.5"><title>2026-05-13 7.6km</title><desc>1778624699000</desc></polyline><polyline fill="none" points="47.38837485702243,189.92580413151882 48.34072255180217,191.2063977836806 49.13946577953175,196.61329697928159 50.675510448170826,197.53815292951185 50.98271938203834,200.09927969958517 54.36201765353326,204.36778257164406 51.65857903636061,206.18188049210585 51.32064920919947,206.67986650785315 51.78146260988433,207.0 60.045382928219624,200.9174134588393 59.89177846116945,200.52613233480952 58.87798897980247,200.73955845684395 56.81968912365846,196.50658267355175 55.314365348313004,194.76357772949268 54.88427284092177,193.30513833501027 56.97329359059222,192.09569616778754 56.20527125603985,190.49495744562591 55.744457855354995,190.28152506158222 53.931925146258436,191.27754173785797 52.21155511715915,190.67281766602537 49.17018667294178,187.36460273590637 48.40216433850583,185.40811678976752 44.34700641280506,180.10776341418386 43.947634798823856,178.86270229215734 46.190260015428066,177.0840358439309 45.975213761790656,176.40814021747792 44.8078198133735,175.76781683793524 42.22726476972457,177.26190289648366 41.213475288357586,175.6966697232856 42.25798566325102,173.38438060323824 41.950776729383506,172.5661823230621 39.15517543209717,171.67683419125387 38.41787399118766,169.2222215910151 35.929481627536006,166.83874066537828 32.45802067616023,161.751555298717 31.444231194560416,162.17845482256962 31.413510301383212,161.32465525285807 30.27683724637609,160.96890481581795 29.048001511371695,158.83439457925851 26.98970165499486,156.73544678508188 21.060569233377464,153.0 19.95461707189679,155.06339459493756 24.99284358555451,158.0517375555355 29.0787224045489,161.68040532732266 29.84674473910127,164.24179516092408 31.567114768200554,167.08776182189467 33.010996756725945,168.1549933378992 37.06615468254313,174.13142953213537 36.66678306856193,175.16306590108434 34.20911159843672,171.42781630824902 33.25676390400622,171.2855202954961 23.395357129978947,176.0879786745354 23.518240703386255,174.949624143861 22.535172115429305,173.5266757606296 20.75336029950995,167.79924986170954 21.859312461223453,167.58580360200722 23.979054104187526,174.3804454865167 27.69628220272716,181.3528200959263 30.215395459439605,187.7558986095246 28.679350790800527,188.5029167868488 23.395357129978947,188.2539109053905 22.84238104929682,189.89023201851523 21.705707994289696,191.34868567736703" stroke="#4DD2FF" stroke-linecap="round" stroke-linejoin="round" stroke-width="0.5"><title>2026-05-12 7.1km</title><desc>1778538486000</desc></polyline><polyline fill="none" points="152.42175217345357,194.175039854832 153.58763645589352,203.62501289509237 165.24647926166654,202.95001526689157 168.16118996590376,163.12503352807835 157.6682314388454,155.0250079454854 151.2558678947389,161.7750299507752 159.41705786064267,205.6500053643249 167.57824782654643,196.87503352575004 167.57824782654643,162.45003177504987 158.83411571756005,154.35000536497682 151.2558678947389,159.7500240718946 150.6729257516563,197.55003177234903 159.41705786064267,205.6500053643249 168.16118996590376,198.22502995003015 168.7441321052611,162.45003177504987 152.42175217345357,157.72501757135615 157.6682314388454,207.0 166.9953056834638,198.22502995003015 168.16118996590376,161.7750299507752 160.58294213935733,154.35000536497682 151.2558678947389,160.42502609966323 151.83881003409624,199.57502609910443 160.58294213935733,205.6500053643249 168.16118996590376,162.45003177504987 160.58294213935733,153.67500271787867 151.2558678947389,159.7500240718946 157.6682314388454,205.6500053643249 167.57824782654643,200.2500240718946 169.91001638770103,165.15003837551922 160.58294213935733,154.35000536497682 151.83881003409624,159.7500240718946 158.25117357820272,206.3250027159229 168.7441321052611,198.22502995003015 168.16118996590376,159.07502197334543 160.0,153.0 150.6729257516563,161.7750299507752 151.83881003409624,198.22502995003015 160.0,207.0 169.3270742483437,161.7750299507752 162.3317685611546,153.67500271787867 153.0046943128109,160.42502609966323 157.08528929576278,206.3250027159229 168.16118996590376,197.55003177234903 168.7441321052611,161.10002805944532 162.91471070051193,153.67500271787867 150.6729257516563,160.42502609966323 150.6729257516563,197.55003177234903 160.58294213935733,205.6500053643249 168.7441321052611,193.50004126364365 167.57824782654643,161.10002805944532 158.25117357820272,153.0 150.6729257516563,161.7750299507752 151.2558678947389,198.90002806019038 161.16588427871466,206.3250027159229 168.7441321052611,159.7500240718946 160.0,153.67500271787867 150.6729257516563,160.42502609966323 151.83881003409624,198.22502995003015 161.16588427871466,205.6500053643249 167.57824782654643,160.42502609966323 158.83411571756005,153.67500271787867 150.6729257516563,160.42502609966323 152.42175217345357,198.22502995003015 162.3317685611546,205.6500053643249 167.57824782654643,159.7500240718946 158.83411571756005,154.35000536497682 151.2558678947389,162.45003177504987 152.42175217345357,198.90002806019038 161.74882642179728,204.97500794380903 167.57824782654643,159.7500240718946 158.83411571756005,153.67500271787867 151.2558678947389,162.45003177504987 150.6729257516563,196.87503352575004 163.49765283986926,206.3250027159229 166.9953056834638,160.42502609966323 159.41705786064267,153.67500271787867 150.08998361229897,161.10002805944532 157.6682314388454,205.6500053643249 166.9953056834638,198.90002806019038 168.16118996590376,164.47503682877868 158.83411571756005,154.35000536497682 150.08998361229897,161.10002805944532 151.83881003409624,198.90002806019038 162.91471070051193,206.3250027159229 168.16118996590376,159.7500240718946 157.6682314388454,153.67500271787867 150.08998361229897,162.45003177504987 152.42175217345357,199.57502609910443 162.91471070051193,204.30001045344397 168.16118996590376,159.7500240718946 160.58294213935733,153.0 151.83881003409624,160.42502609966323 151.2558678947389,197.55003177234903 160.0,205.6500053643249 167.57824782654643,198.90002806019038 169.3270742483437,160.42502609966323 160.58294213935733,153.0 150.6729257516563,161.7750299507752 157.6682314388454,205.6500053643249 167.57824782654643,199.57502609910443 168.7441321052611,162.45003177504987 161.74882642179728,154.35000536497682 151.2558678947389,158.40001980774105 157.08528929576278,205.6500053643249 167.57824782654643,199.57502609910443 168.7441321052611,163.8000352117233 161.74882642179728,154.35000536497682 151.2558678947389,161.10002805944532 150.6729257516563,197.55003177234903 158.83411571756005,204.97500794380903 168.16118996590376,197.55003177234903 168.7441321052611,164.47503682877868 161.16588427871466,154.35000536497682 150.6729257516563,162.45003177504987 157.6682314388454,205.6500053643249 167.57824782654643,196.87503352575004 168.16118996590376,164.47503682877868 162.3317685611546,155.0250079454854 150.6729257516563,160.42502609966323 158.25117357820272,205.6500053643249 167.57824782654643,200.2500240718946 169.3270742483437,163.12503352807835 161.74882642179728,153.67500271787867 151.2558678947389,159.7500240718946 158.25117357820272,205.6500053643249 168.16118996590376,198.90002806019038 168.16118996590376,162.45003177504987 159.41705786064267,154.35000536497682 151.83881003409624,160.42502609966323 158.25117357820272,205.6500053643249 168.16118996590376,197.55003177234903 169.3270742483437,162.45003177504987 153.0046943128109,157.0500152669847 150.08998361229897,183.37505415873602 150.6729257516563,158.40001980774105 162.91471070051193,155.70001045428216 168.7441321052611,165.15003837551922 169.91001638770103,198.90002806019038 156.50234715640545,205.6500053643249 150.08998361229897,160.42502609966323 162.91471070051193,154.35000536497682 169.91001638770103,166.5000412641093 170.49295852705836,198.22502995003015 156.50234715640545,206.3250027159229 150.08998361229897,158.40001980774105 162.3317685611546,154.35000536497682 169.91001638770103,165.15003837551922 166.9953056834638,203.62501289509237 152.42175217345357,202.2750175697729 149.50704147294164,169.8750472809188 150.08998361229897,157.72501757135615 165.24647926166654,155.70001045428216 168.7441321052611,200.9250219729729 158.83411571756005,206.3250027159229 150.6729257516563,196.20003521163017 149.50704147294164,159.7500240718946 159.41705786064267,153.0 168.7441321052611,165.82503985380754 168.16118996590376,199.57502609910443 155.3364628776908,204.97500794380903 150.6729257516563,189.4500482780859 150.6729257516563,157.72501757135615 165.82942140474916,156.3750128946267 168.16118996590376,200.9250219729729 153.58763645589352,204.30001045344397 151.2558678947389,183.37505415873602" stroke="#4DD2FF" stroke-linecap="round" stroke-linejoin="round" stroke-width="0.5"><title>2026-01-14 6.3km</title><desc>1768393184000</desc></polyline><polyline fill="none" points="29.936936936923303,230.4944964233582 29.68468468473293,230.51531998842256 30.045045045088045,230.76520260552934 30.927927927928977,230.9942614047468 32.02702702698298,230.9526143692783 33.612612612661906,230.16131909519027 34.171171171125025,231.764730041672 34.8378378378693,232.3269620926294 36.873873873846605,232.9100159315858 38.35135135136079,232.5768425114511 39.72072072082665,233.15989564299525 42.15315315313637,237.38698148143885 44.18918918923009,239.11527237805421 44.747747747809626,240.11475928983418 45.954954954911955,241.2391762680636 47.88288288295735,241.9054945437092 49.70270270272158,243.23812462837668 50.58558558556251,243.0923686327733 52.24324324331246,243.55045855720527 52.76576576579828,244.59156823292142 56.36936936934944,246.7362375792436 59.558558558579534,247.5691128590115 61.32432432437781,246.23651079492993 62.477477477514185,243.9669030589721 62.80180180177558,245.1329431845952 62.56756756757386,246.00746894691838 64.74774774769321,246.04911293819896 64.90990990994032,246.54884017726 65.73873873869888,246.9236348108243 66.96396396390628,248.54773700953228 66.74774774780963,249.42224827416067 66.22522522532381,249.83868090480973 67.0,249.19320996846363 66.63963963964488,249.38060496479739 66.90990990994032,248.56855874948087 65.68468468473293,246.90281290463463 65.03603603609372,246.6113059968775 64.62162162165623,246.00746894691838 62.603603603551164,246.02829094362096 62.56756756757386,243.9669030589721 61.48648648650851,246.06993493072514 60.45945945952553,247.02774431022408 59.32432432437781,247.5691128590115 58.261261261301115,247.00692241457 56.54954954958521,246.7362375792436 52.71171171171591,244.57074609096162 51.900900900946,243.32141372234037 50.72972972970456,243.02990174597653 49.66666666662786,243.1548355006089 47.828828828874975,241.80138245524722 45.86486486485228,241.01012886296667 44.81981981988065,240.05229149997467 44.225225225207396,239.01115887914784 42.0630630630767,237.15792979227263 40.639639639644884,234.92986825216212 39.91891891893465,233.18071893858723 38.09909909917042,232.38943222575472 37.03603603609372,232.6809592631471 35.88288288284093,232.51437243519467 31.630630630650558,233.40977505118644 28.927927927928977,234.40928965204512 27.66666666662786,236.8455861692928 26.261261261301115,243.02990174597653 24.513513513607904,245.00801062976825 22.225225225207396,245.19540943359607 14.729729729704559,244.00854746284313 13.86486486485228,240.4895656313165 13.0,234.6175212500093 18.063063062960282,234.26352740827133 19.396396396448836,233.7845935949881 23.48648648650851,233.3056586679595 25.95495495502837,232.09790477568458 26.81981981988065,231.36908434491488 27.414414414437488,231.45237823898788 28.63963963952847,232.36860885011265 29.810810810769908,231.82720034534577 29.792792792781256,231.0775554504362 30.315315315383486,231.119202460628 30.387387387338094,231.36908434491488" stroke="#4DD2FF" stroke-linecap="round" stroke-linejoin="round" stroke-width="0.5"><title>2026-01-10 8.4km</title><desc>1768033403000</desc></polyline><polyline fill="none" points="168.71363636362366,233.45263825295842 166.9136363635771,231.93971243669512 168.42727272748016,230.56861918704817 168.8363636364229,231.27780585270375 171.9454545455519,231.70331733571948 175.66818181844428,230.5213400378707 177.55000000004657,235.67473917029565 180.65909090917557,236.1475252371456 166.21818181825802,240.4025783255638 164.6636363635771,241.53725260976353 162.16818181844428,246.9741953482444 158.77272727247328,261.5827109796228 155.66363636380993,264.89202005331754 153.4545454545878,265.6957058656553 150.05909090908244,265.6957058656553 133.0,263.09554089044104 150.3045454544481,265.83753263013205 153.9454545455519,265.6957058656553 155.66363636380993,264.89202005331754 158.77272727247328,261.5827109796228 162.49545454559848,245.93408945354167 165.23636363632977,241.25358429685002 171.16818181821145,239.12606646490167 181.109090909129,236.99853895261185 184.3000000002794,237.51860212735482 186.59090909105726,236.00568946721614 187.0,233.97270537167788 185.20000000018626,228.53561145073036 180.20909090922214,224.84780741398572 180.25000000023283,214.16246736986795 176.64999999990687,214.4461521197518 175.5863636364229,215.58088939788286 174.93181818188168,227.6845823316835 177.38636363646947,236.10024665197125 166.46363636362366,238.55872674140846 164.78636363637634,236.7621464091353 165.93181818188168,235.67473917029565 172.4772727272939,235.86385365438764 174.359090909129,235.15467394475127 176.15909090917557,233.35808053298388 174.85000000009313,229.8121522248548 169.9409090911504,229.67031453322852 169.44999999995343,228.86656680089072 167.28181818174198,228.34649400261696 165.80909090908244,228.53561145073036 164.74545454536565,230.3795025612053 166.75000000023283,233.02712836206774 168.50909090903588,233.8308689421974 168.34545454545878,234.44549315940822" stroke="#4DD2FF" stroke-linecap="round" stroke-linejoin="round" stroke-width="0.5"><title>2025-11-16 6.1km</title><desc>1763283912000</desc></polyline></svg>