<?xml version="1.0" encoding="utf-8" ?>
<svg baseProfile="full" height="300mm" version="1.1" viewBox="0,0,200,300" width="200mm" xmlns="http://www.w3.org/2000/svg" xmlns:ev="http://www.w3.org/2001/xml-events" xmlns:xlink="http://www.w3.org/1999/xlink"><defs /><rect fill="#222222" height="300" width="200" x="0" y="0" /><text fill="#FFFFFF" style="font-size:12px; font-family:Arial; font-weight:bold;" x="10" y="20">Over 5km Runs</text><text fill="#FFFFFF" style="font-size:4px; font-family:Arial" x="10" y="280">Runner</text><text fill="#FFFFFF" style="font-size:9px; font-family:Arial" x="10" y="290">saveole</text><text fill="#FFFFFF" style="font-size:4px; font-family:Arial" x="65" y="280">SPECIAL TRACKS</text><rect fill="yellow" height="2.6" width="2.6" x="65" y="283" /><text fill="#FFFFFF" style="font-size:3px; font-family:Arial" x="70" y="285.5">Over 20.0 km</text><rect fill="red" height="2.6" width="2.6" x="65" y="287" /><text fill="#FFFFFF" style="font-size:3px; font-family:Arial" x="70" y="289.5">Over 40.0 km</text><text fill="#FFFFFF" style="font-size:4px; font-family:Arial" x="120" y="280">STATISTICS</text><text fill="#FFFFFF" style="font-size:3px; font-family:Arial" x="120" y="285">Number: 1</text><text fill="#FFFFFF" style="font-size:3px; font-family:Arial" x="120" y="290">Weekly: 1.0</text><text fill="#FFFFFF" style="font-size:3px; font-family:Arial" x="141" y="285">Total: 6.1 km</text><text fill="#FFFFFF" style="font-size:3px; font-family:Arial" x="141" y="290">Avg: 6.1 km</text><text fill="#FFFFFF" style="font-size:3px; font-family:Arial" x="167" y="285">Min: 6.1 km</text><text fill="#FFFFFF" style="font-size:3px; font-family:Arial" x="167" y="290">Max: 6.1 km</text><polyline fill="none" points="126.14090909063816,130.35791475872975 120.7409090907313,125.81913731002714 125.28181818174198,121.7058575610863 126.50909090880305,123.83341755811125 135.8363636364229,125.10995200707112 147.00454545486718,121.56402011355385 152.64999999990687,137.02421751082875 161.97727272752672,138.44257571129128 118.65454545430839,151.2077349765459 113.9909090907313,154.61175782920327 106.50454545486718,170.92258604464587 96.31818181741983,214.74813293875195 86.99090909119695,224.6760601599235 80.3636363632977,227.08711759687867 70.17727272724733,227.08711759687867 19.0,219.28662267129403 70.91363636311144,227.51259789033793 81.8363636364229,227.08711759687867 86.99090909119695,224.6760601599235 96.31818181741983,214.74813293875195 107.48636363679543,167.8022683605086 115.70909090898931,153.76075289049186 133.50454545440152,147.3781993946759 163.3272727271542,140.99561685777735 172.90000000037253,142.55580638197716 179.77272727293894,138.01706840156112 181.0,131.9181161149172 175.60000000009313,115.60683435213286 160.6272727274336,104.54342224192806 160.75,72.48740210954566 149.9499999997206,73.33845635922626 146.7590909092687,76.74266819353215 144.7954545454122,113.05374699493404 152.15909090917557,138.30073995573912 119.39090909063816,145.67618022416718 114.35909090889618,140.28643922728952 117.79545454541221,137.02421751082875 137.43181818164885,137.5915609630756 143.0772727271542,135.4640218341956 148.47727272752672,130.07424159883521 144.5500000002794,119.43645667447709 129.82272727275267,119.01094359962735 128.35000000009313,116.59970040258486 121.84545454522595,115.03948200773448 117.42727272678167,115.60683435213286 114.23636363586411,121.13850768352859 120.25000000046566,129.08138508617412 125.52727272734046,131.49260682647582 125.0363636361435,133.33647947816644" stroke="#4DD2FF" stroke-linecap="round" stroke-linejoin="round" stroke-width="0.5"><title>2025-11-16 6.1km</title><desc>1763283912000</desc></polyline></svg>