<?xml version="1.0" encoding="utf-8" ?>
<svg baseProfile="full" height="300mm" version="1.1" viewBox="0,0,200,300" width="200mm" xmlns="http://www.w3.org/2000/svg" xmlns:ev="http://www.w3.org/2001/xml-events" xmlns:xlink="http://www.w3.org/1999/xlink"><defs /><rect fill="#222222" height="300" width="200" x="0" y="0" /><text fill="#FFFFFF" style="font-size:12px; font-family:Arial; font-weight:bold;" x="10" y="20">Over 5km Runs</text><text fill="#FFFFFF" style="font-size:4px; font-family:Arial" x="10" y="280">Runner</text><text fill="#FFFFFF" style="font-size:9px; font-family:Arial" x="10" y="290">saveole</text><text fill="#FFFFFF" style="font-size:4px; font-family:Arial" x="65" y="280">SPECIAL TRACKS</text><rect fill="yellow" height="2.6" width="2.6" x="65" y="283" /><text fill="#FFFFFF" style="font-size:3px; font-family:Arial" x="70" y="285.5">Over 20.0 km</text><rect fill="red" height="2.6" width="2.6" x="65" y="287" /><text fill="#FFFFFF" style="font-size:3px; font-family:Arial" x="70" y="289.5">Over 40.0 km</text><text fill="#FFFFFF" style="font-size:4px; font-family:Arial" x="120" y="280">STATISTICS</text><text fill="#FFFFFF" style="font-size:3px; font-family:Arial" x="120" y="285">Number: 4</text><text fill="#FFFFFF" style="font-size:3px; font-family:Arial" x="120" y="290">Weekly: 1.0</text><text fill="#FFFFFF" style="font-size:3px; font-family:Arial" x="141" y="285">Total: 27.9 km</text><text fill="#FFFFFF" style="font-size:3px; font-family:Arial" x="141" y="290">Avg: 7.0 km</text><text fill="#FFFFFF" style="font-size:3px; font-family:Arial" x="167" y="285">Min: 6.1 km</text><text fill="#FFFFFF" style="font-size:3px; font-family:Arial" x="167" y="290">Max: 8.4 km</text><polyline fill="none" points="66.0825622852426,89.88870619726367 67.51108382758684,91.80959667550633 68.70919866929762,99.91994546889327 71.01326567213982,101.30722939426778 71.4740790729411,105.1489195493632 76.54302648012526,111.55167385743698 72.4878685544245,114.27282073814422 71.9809738136828,115.01979976176517 72.67219391465187,115.5 85.06807439215481,106.37612018821528 84.83766769152135,105.78919850219972 83.31698346952908,106.10933768522227 80.22953368537128,99.75987401028397 77.97154802223668,97.14536659419537 77.32640926120803,94.95770750247175 80.45994038577192,93.1435442516813 79.30790688400157,90.74243616842432 78.61668678303249,90.42228759231512 75.89788771909662,91.91631260677241 73.31733267544769,91.00922649900895 68.75528000923805,86.04690410383046 67.60324650770053,83.11217518465128 61.520509619032964,75.16164512123214 60.921452198177576,73.294053438236 64.28539002290927,70.6260537658818 63.962820642394945,69.61221032618778 62.21172972000204,68.65172525687376 58.34089715452865,70.89285434468184 56.82021293230355,68.54500458488474 58.38697849470191,65.0765709048137 57.926165093900636,63.849273484549485 53.73276314791292,62.51525128685171 52.62681098654866,58.83333238650812 48.894222441129386,55.258110998081975 43.68703101412393,47.62733294809004 42.166346791666,48.267682233825326 42.1202654519584,46.9869828792871 40.41525586950593,46.45335722371237 38.5720022667665,43.25159186887322 35.484552482375875,40.10317017760826 26.590853849891573,34.5 24.931925607845187,37.595091892406344 32.489265378098935,42.077606333303265 38.61808360670693,47.52060799096944 39.77011710847728,51.36269274138613 42.35067215212621,55.63164273282746 44.516495134914294,57.23249000683427 50.59923202358186,66.19714429817395 50.000174602726474,67.7445988515974 46.31366739748046,62.14172446238808 44.88514585583471,61.92828044324415 30.093035694677383,69.13196801178856 30.27736105490476,67.42443621577695 28.80275817308575,65.29001364088617 26.130040449090302,56.69887479254976 27.78896869160235,56.37870540301083 30.968581156106666,66.57066822977504 36.544423303799704,77.02923014387488 40.32309318915941,86.63384791428689 38.019026186084375,87.75437518022954 30.093035694677383,87.38086635805666 29.26357157388702,89.8353480277583 27.558561991201714,92.02302851603599" stroke="#4DD2FF" stroke-linecap="round" stroke-linejoin="round" stroke-width="0.5"><title>2026-05-12 7.1km</title><desc>1778538486000</desc></polyline><polyline fill="none" points="133.632628262043,96.26255978271365 135.38145468384027,110.43751934263855 152.86971889808774,109.42502290010452 157.24178495258093,49.68755029235035 141.50234716013074,37.53751191869378 131.88380184024572,47.66254492662847 144.12558678910136,113.47500804625452 156.3673717416823,100.31255028862506 156.3673717416823,48.67504766304046 143.25117358192801,36.525008046999574 131.88380184024572,44.62503610737622 131.00938863307238,101.32504765875638 144.12558678910136,113.47500804625452 157.24178495258093,102.33754492551088 158.11619815975428,48.67504766304046 133.632628262043,41.58752635773271 141.50234716013074,115.5 155.49295852705836,102.33754492551088 157.24178495258093,47.66254492662847 145.87441321089864,36.525008046999574 131.88380184024572,45.63753914926201 132.75821505114436,104.36253914888948 145.87441321089864,113.47500804625452 157.24178495258093,48.67504766304046 145.87441321089864,35.512504076585174 131.88380184024572,44.62503610737622 141.50234716013074,113.47500804625452 156.3673717416823,105.37503610830754 159.86502458155155,52.725057563744485 145.87441321089864,36.525008046999574 132.75821505114436,44.62503610737622 142.3767603673041,114.48750407435 158.11619815975428,102.33754492551088 157.24178495258093,43.612532960250974 145.0,34.5 131.00938863307238,47.66254492662847 132.75821505114436,102.33754492551088 145.0,115.5 158.9906113743782,47.66254492662847 148.49765284359455,35.512504076585174 134.50704146921635,45.63753914926201 140.6279339492321,114.48750407435 157.24178495258093,101.32504765875638 158.11619815975428,46.65004208870232 149.3720660544932,35.512504076585174 131.00938863307238,45.63753914926201 131.00938863307238,101.32504765875638 145.87441321089864,113.47500804625452 158.11619815975428,95.25006189569831 156.3673717416823,46.65004208870232 142.3767603673041,34.5 131.00938863307238,47.66254492662847 131.88380184024572,103.35004209075123 146.74882641807199,114.48750407435 158.11619815975428,44.62503610737622 145.0,35.512504076585174 131.00938863307238,45.63753914926201 132.75821505114436,102.33754492551088 146.74882641807199,113.47500804625452 156.3673717416823,45.63753914926201 143.25117358192801,35.512504076585174 131.00938863307238,45.63753914926201 133.632628262043,102.33754492551088 148.49765284359455,113.47500804625452 156.3673717416823,44.62503610737622 143.25117358192801,36.525008046999574 131.88380184024572,48.67504766304046 133.632628262043,103.35004209075123 147.6232396326959,112.46251191571355 156.3673717416823,44.62503610737622 143.25117358192801,35.512504076585174 131.88380184024572,48.67504766304046 131.00938863307238,100.31255028862506 150.24647926539183,114.48750407435 155.49295852705836,45.63753914926201 144.12558678910136,35.512504076585174 130.13497541844845,46.65004208870232 141.50234716013074,113.47500804625452 155.49295852705836,103.35004209075123 157.24178495258093,51.71255524363369 143.25117358192801,36.525008046999574 130.13497541844845,46.65004208870232 132.75821505114436,103.35004209075123 149.3720660544932,114.48750407435 157.24178495258093,44.62503610737622 141.50234716013074,35.512504076585174 130.13497541844845,48.67504766304046 133.632628262043,104.36253914888948 149.3720660544932,111.45001567993313 157.24178495258093,44.62503610737622 145.87441321089864,34.5 132.75821505114436,45.63753914926201 131.88380184024572,101.32504765875638 145.0,113.47500804625452 156.3673717416823,103.35004209075123 158.9906113743782,45.63753914926201 145.87441321089864,34.5 131.00938863307238,47.66254492662847 141.50234716013074,113.47500804625452 156.3673717416823,104.36253914888948 158.11619815975428,48.67504766304046 147.6232396326959,36.525008046999574 131.88380184024572,42.60002971161157 140.6279339492321,113.47500804625452 156.3673717416823,104.36253914888948 158.11619815975428,50.700052817352116 147.6232396326959,36.525008046999574 131.88380184024572,46.65004208870232 131.00938863307238,101.32504765875638 143.25117358192801,112.46251191571355 157.24178495258093,101.32504765875638 158.11619815975428,51.71255524363369 146.74882641807199,36.525008046999574 131.00938863307238,48.67504766304046 141.50234716013074,113.47500804625452 156.3673717416823,100.31255028862506 157.24178495258093,51.71255524363369 148.49765284359455,37.53751191869378 131.00938863307238,45.63753914926201 142.3767603673041,113.47500804625452 156.3673717416823,105.37503610830754 158.9906113743782,49.68755029235035 147.6232396326959,35.512504076585174 131.88380184024572,44.62503610737622 142.3767603673041,113.47500804625452 157.24178495258093,103.35004209075123 157.24178495258093,48.67504766304046 144.12558678910136,36.525008046999574 132.75821505114436,45.63753914926201 142.3767603673041,113.47500804625452 157.24178495258093,101.32504765875638 158.9906113743782,48.67504766304046 134.50704146921635,40.57502290047705 130.13497541844845,80.06258123833686 131.00938863307238,42.60002971161157 149.3720660544932,38.55001568142325 158.11619815975428,52.725057563744485 159.86502458155155,103.35004209075123 139.75352073460817,113.47500804625452 130.13497541844845,45.63753914926201 149.3720660544932,36.525008046999574 159.86502458155155,54.75006189662963 160.7394377924502,102.33754492551088 139.75352073460817,114.48750407435 130.13497541844845,42.60002971161157 148.49765284359455,36.525008046999574 159.86502458155155,52.725057563744485 155.49295852705836,110.43751934263855 133.632628262043,108.41252635419369 129.2605622112751,59.81257092114538 130.13497541844845,41.58752635773271 152.86971889808774,38.55001568142325 158.11619815975428,106.38753295969218 143.25117358192801,114.48750407435 131.00938863307238,99.30005281791091 129.2605622112751,44.62503610737622 144.12558678910136,34.5 158.11619815975428,53.73755978047848 157.24178495258093,104.36253914888948 138.0046943165362,112.46251191571355 131.00938863307238,89.17507241759449 131.00938863307238,41.58752635773271 153.7441321052611,39.56251934263855 157.24178495258093,106.38753295969218 135.38145468384027,111.45001567993313 131.88380184024572,80.06258123833686" stroke="#4DD2FF" stroke-linecap="round" stroke-linejoin="round" stroke-width="0.5"><title>2026-01-14 6.3km</title><desc>1768393184000</desc></polyline><polyline fill="none" points="39.90540540544316,210.7417446350446 39.52702702698298,210.77297998263384 40.06756756757386,211.14780390830128 41.39189189195167,211.49139210712747 43.04054054059088,211.42892155391746 45.41891891893465,210.24197864279267 46.25675675668754,212.64709506253712 47.25675675680395,213.49044313895865 50.31081081076991,214.3650238973787 52.52702702698298,213.8652637671912 54.581081081181765,214.7398434645147 58.22972972970456,221.080472222151 61.28378378378693,223.67290856709587 62.12162162165623,225.17213893475127 63.93243243242614,226.85876440210268 66.82432432437781,227.85824181558564 69.55405405408237,229.85718694256502 70.87837837834377,229.63855294918176 73.3648648649687,230.3256878358079 74.14864864863921,231.88735234938213 79.55405405396596,235.10435636888724 84.3378378378693,236.3536692885391 86.98648648650851,234.35476619240944 88.71621621621307,230.95035458845086 89.20270270272158,232.69941477690008 88.8513513514772,234.01120342037757 92.12162162153982,234.073669407313 92.36486486485228,234.82326026589726 93.60810810816474,235.38545221622917 95.44594594591763,237.82160551429843 95.12162162165623,239.13337241124827 94.33783783798572,239.75802135720733 95.5,238.78981495270273 94.95945945952553,239.07090744719608 95.3648648649687,237.85283812423586 93.52702702698298,235.35421935695922 92.55405405408237,234.91695899530896 91.93243243254256,234.01120342037757 88.90540540544316,234.042436415446 88.8513513514772,230.95035458845086 87.22972972982097,234.10490239609499 85.68918918923009,235.5416164653434 83.98648648650851,236.3536692885391 82.39189189195167,235.51038362184772 79.82432432437781,235.10435636888724 74.06756756769028,231.85611913644243 72.85135135136079,229.98212058350327 71.09459459455684,229.54485261897207 69.5,229.7322532509279 66.74324324331246,227.70207368288538 63.79729729727842,226.51519329444272 62.229729729820974,225.078437249962 61.3378378378693,223.51673831872176 58.09459459455684,220.7368946884235 55.95945945952553,217.39480237825774 54.878378378460184,214.77107840788085 52.148648648755625,213.58414833861752 50.55405405408237,214.02143889473518 48.8243243242614,213.77155865277746 42.44594594591763,215.11466257678694 38.39189189195167,216.61393447805312 36.499999999883585,220.26837925394648 34.39189189195167,229.54485261897207 31.77027027029544,232.51201594466693 28.3378378378693,232.79311415040866 17.09459459455684,231.01282119425014 15.79729729727842,225.73434844697476 14.5,216.9262818749994 22.09459459455684,216.39529111242155 24.094594594673254,215.67689039249672 30.229729729820974,214.9584880019538 33.932432432542555,213.1468571635196 35.229729729820974,212.05362651738687 36.121621621539816,212.17856735849637 37.95945945940912,213.55291327516898 39.71621621621307,212.74080051801866 39.68918918923009,211.6163331756543 40.47297297301702,211.678803690942 40.58108108106535,212.05362651738687" stroke="#4DD2FF" stroke-linecap="round" stroke-linejoin="round" stroke-width="0.5"><title>2026-01-10 8.4km</title><desc>1768033403000</desc></polyline><polyline fill="none" points="158.07045454531908,215.17895737936487 155.37045454536565,212.90956865501357 157.640909090871,210.85292878054315 158.25454545440152,211.91670877905563 162.91818181821145,212.55497600353556 168.5022727274336,210.78201005677693 171.32499999995343,218.51210875541437 175.98863636376336,219.22128785564564 154.3272727271542,225.60386748827295 151.99545454536565,227.30587891460164 148.2522727274336,235.46129302232293 143.1590909087099,257.374066469376 138.49545454559848,262.33803007996175 135.18181818164885,263.54355879843934 130.08863636362366,263.54355879843934 104.5,259.643311335647 130.45681818155572,263.75629894516896 135.91818181821145,263.54355879843934 138.49545454559848,262.33803007996175 143.1590909087099,257.374066469376 148.74318181839772,233.9011341802543 152.85454545449466,226.88037644524593 161.75227272720076,223.68909969733795 176.6636363635771,220.49780842888867 181.45000000018626,221.27790319098858 184.88636363646947,219.00853420078056 185.5,215.9590580574586 182.80000000004657,207.80341717606643 175.3136363637168,202.27171112096403 175.375,186.24370105477283 169.9749999998603,186.66922817961313 168.37954545463435,188.37133409676608 167.3977272727061,206.52687349746702 171.0795454545878,219.15036997786956 154.69545454531908,222.8380901120836 152.1795454544481,220.14321961364476 153.8977272727061,218.51210875541437 163.71590909082443,218.7957804815378 166.5386363635771,217.7320109170978 169.23863636376336,215.0371207994176 167.2750000001397,209.71822833723854 159.91136363637634,209.50547179981368 159.17500000004657,208.29985020129243 155.92272727261297,207.51974100386724 153.71363636339083,207.80341717606643 152.11818181793205,210.5692538417643 155.12500000023283,214.54069254308706 157.76363636367023,215.7463034132379 157.51818181807175,216.66823973908322" stroke="#4DD2FF" stroke-linecap="round" stroke-linejoin="round" stroke-width="0.5"><title>2025-11-16 6.1km</title><desc>1763283912000</desc></polyline></svg>