<?xml version="1.0" encoding="utf-8" ?>
<svg baseProfile="full" height="200mm" version="1.1" viewBox="0,0,200,200" width="200mm" xmlns="http://www.w3.org/2000/svg" xmlns:ev="http://www.w3.org/2001/xml-events" xmlns:xlink="http://www.w3.org/1999/xlink"><defs /><rect fill="#1a1a1a" height="200" width="200" x="0" y="0" /><rect fill="#1a1a1a" height="200" width="180" x="10" y="0" /><text alignment-baseline="middle" fill="#e1ed5e" style="dominant-baseline: central; font-size:9.0px; font-family:Arial;" text-anchor="middle" x="100.0" y="100.0">2025</text><line stroke="#e1ed5e" stroke-width="0.3" x1="100.0" x2="100.0" y1="15.0" y2="10.0" /><path d="M 100.0 14.0 a86.0,86.0 0 0,1 42.46469731375804,11.215312516191453" fill="none" id="id1" stroke="none" /><text fill="#e1ed5e" style="font-size:6.75px; font-family:Arial;" text-anchor="middle"><textPath startOffset="22.20632615414155" xlink:href="#id1">January</textPath></text><line stroke="#e1ed5e" stroke-width="0.3" x1="143.23703022742887" x2="145.7803849466894" y1="26.81831364943548" y2="22.513508569990506" /><path d="M 143.74570117128098 25.957352633546492 a86.0,86.0 0 0,1 28.547481713284135,27.462654790039103" fill="none" id="id2" stroke="none" /><text fill="#e1ed5e" style="font-size:6.75px; font-family:Arial;" text-anchor="middle"><textPath startOffset="19.985693538727396" xlink:href="#id2">February</textPath></text><line stroke="#e1ed5e" stroke-width="0.3" x1="172.23445277983987" x2="176.4835382374775" y1="55.19839476539836" y2="52.563006222186495" /><path d="M 173.08426987136738 54.67131705675599 a86.0,86.0 0 0,1 12.851231095245387,41.99856678651699" fill="none" id="id3" stroke="none" /><text fill="#e1ed5e" style="font-size:6.75px; font-family:Arial;" text-anchor="middle"><textPath startOffset="22.20632615414155" xlink:href="#id3">March</textPath></text><line stroke="#e1ed5e" stroke-width="0.3" x1="184.98032266829074" x2="189.97916517819016" y1="98.17113171792111" y2="98.06355123074" /><path d="M 185.9800911702706 98.14961562048488 a86.0,86.0 0 0,1 -9.607161424134198,41.387399972396054" fill="none" id="id4" stroke="none" /><text fill="#e1ed5e" style="font-size:6.75px; font-family:Arial;" text-anchor="middle"><textPath startOffset="21.466115282336823" xlink:href="#id4">April</textPath></text><line stroke="#e1ed5e" stroke-width="0.3" x1="174.80103733775053" x2="179.2010983576182" y1="140.37084112569926" y2="142.7455964860345" /><path d="M 175.68104954172406 140.8457921977663 a86.0,86.0 0 0,1 -30.038265399797805,32.042727171017184" fill="none" id="id5" stroke="none" /><text fill="#e1ed5e" style="font-size:6.75px; font-family:Arial;" text-anchor="middle"><textPath startOffset="22.206326154141568" xlink:href="#id5">May</textPath></text><line stroke="#e1ed5e" stroke-width="0.3" x1="143.8653032363475" x2="146.44561519142675" y1="172.8068346515853" y2="177.08958963109032" /><path d="M 144.38136562736335 173.6633856474863 a86.0,86.0 0 0,1 -40.68145358897372,12.25698825130547" fill="none" id="id6" stroke="none" /><text fill="#e1ed5e" style="font-size:6.75px; font-family:Arial;" text-anchor="middle"><textPath startOffset="21.466115282336833" xlink:href="#id6">June</textPath></text><line stroke="#e1ed5e" stroke-width="0.3" x1="102.19456741930631" x2="102.32365962044197" y1="184.97166512339345" y2="189.96999836594603" /><path d="M 102.22038585953345 185.97133177190398 a86.0,86.0 0 0,1 -42.740103519485714,-10.115201625700543" fill="none" id="id7" stroke="none" /><text fill="#e1ed5e" style="font-size:6.75px; font-family:Arial;" text-anchor="middle"><textPath startOffset="22.20632615414155" xlink:href="#id7">July</textPath></text><line stroke="#e1ed5e" stroke-width="0.3" x1="58.666819895761336" x2="56.23545636021788" y1="174.27360380694188" y2="178.64263932499728" /><path d="M 58.180547188652646 175.14741091055294 a86.0,86.0 0 0,1 -31.652253787137756,-30.449443065178592" fill="none" id="id8" stroke="none" /><text fill="#e1ed5e" style="font-size:6.75px; font-family:Arial;" text-anchor="middle"><textPath startOffset="22.20632615414155" xlink:href="#id8">August</textPath></text><line stroke="#e1ed5e" stroke-width="0.3" x1="26.63291911575756" x2="22.317208475507996" y1="142.92168965132927" y2="145.44649492493687" /><path d="M 25.769776987707644 143.4266507060508 a86.0,86.0 0 0,1 -11.730757126820373,-40.83630448921669" fill="none" id="id9" stroke="none" /><text fill="#e1ed5e" style="font-size:6.75px; font-family:Arial;" text-anchor="middle"><textPath startOffset="21.46611528233685" xlink:href="#id9">September</textPath></text><line stroke="#e1ed5e" stroke-width="0.3" x1="15.007084014347285" x2="10.007500721073583" y1="101.09737516637583" y2="101.16192664675087" /><path d="M 14.007167355692545 101.11028546245083 a86.0,86.0 0 0,1 10.666146001902534,-42.60595125391555" fill="none" id="id10" stroke="none" /><text fill="#e1ed5e" style="font-size:6.75px; font-family:Arial;" text-anchor="middle"><textPath startOffset="22.20632615414155" xlink:href="#id10">October</textPath></text><line stroke="#e1ed5e" stroke-width="0.3" x1="26.266209847984243" x2="21.928928074336255" y1="57.711370442889674" y2="55.22380399835377" /><path d="M 25.398753493254645 57.213857153982495 a86.0,86.0 0 0,1 29.58750427330803,-30.492523968695096" fill="none" id="id11" stroke="none" /><text fill="#e1ed5e" style="font-size:6.75px; font-family:Arial;" text-anchor="middle"><textPath startOffset="21.46611528233685" xlink:href="#id11">November</textPath></text><path d="M 83.84228863543731 86.58626213691792 l -26.207313418649985 -21.756672362919062 a55.06135741468266,55.06135741468266 0 0,0 0.611677632944643,-0.7240333843493875 l 25.828925172218216 22.204564696897563" fill="red" stroke="none" /><path d="M 84.07557802195018 86.31012108654704 l -13.195972536171407 -11.34429032428597 a38.401914094060984,38.401914094060984 0 0,0 0.4352365718367238,-0.4975506398583306 l 12.99874410075684 11.569756520347244" fill="red" stroke="none" /><path d="M 84.31358615837235 86.03803664274999 l -8.5907091314145 -7.646308921629012 a32.50070969573408,32.50070969573408 0 0,0 0.37554780438864954,-0.4146892654634887 l 8.457817686409804 7.793050974362057" fill="red" stroke="none" /><path d="M 84.5562425177563 85.77008943001954 l -20.716936540821795 -19.08862882616474 a49.17032499101714,49.17032499101714 0 0,0 0.5788814822434374,-0.6175104039131778 l 20.3852877366079 19.44240864695597" fill="red" stroke="none" /><path d="M 85.05521093208273 85.24692304244772 l -17.98090688106868 -17.750247379032203 a46.266267913613646,46.266267913613646 0 0,0 0.5643695952064548,-0.5619460128085716 l 17.672701485694912 18.057129242490884" fill="red" stroke="none" /><path d="M 85.57189188830299 84.74124197986013 l -28.79827316439705 -30.45623710409926 a62.91566432483617,62.91566432483617 0 0,0 0.7933129475726592,-0.7372979264004329 l 28.269752333029533 30.94743961657434" fill="red" stroke="none" /><path d="M 85.83668400450813 84.49514656593479 l -14.450132303346992 -15.818836742579187 a42.42526358000306,42.42526358000306 0 0,0 0.543425226255506,-0.4878925337045407 l 14.175696089495515 16.065228285053006" fill="red" stroke="none" /><path d="M 86.10567301691215 84.25364557470407 l -21.944721612122272 -24.869816630163605 a54.1674326086827,54.1674326086827 0 0,0 0.7044505598482964,-0.6108925837293513 l 21.513377253627205 25.243874207312636" fill="red" stroke="none" /><path d="M 87.22198572758235 83.33499621200491 l -25.634309377977765 -33.4321009336148 a63.12865046641402,63.12865046641402 0 0,0 0.868030506200917,-0.6537825811108838 l 25.05503271801846 33.86840010423154" fill="red" stroke="none" /><path d="M 87.51073957382395 83.11751280151077 l -15.139283356101433 -20.464683154336278 a46.45586685115447,46.45586685115447 0 0,0 0.6469636115935818,-0.4700465778946808 l 14.78477442815407 20.722248967047626" fill="red" stroke="none" /><line stroke="#e1ed5e" stroke-width="0.3" x1="56.762969772571076" x2="54.21961505331055" y1="26.818313649435495" y2="22.513508569990535" /><path d="M 56.25429882871897 25.957352633546506 a86.0,86.0 0 0,1 42.265352541879196,-11.944610805530505" fill="none" id="id12" stroke="none" /><text fill="#e1ed5e" style="font-size:6.75px; font-family:Arial;" text-anchor="middle"><textPath startOffset="22.20632615414155" xlink:href="#id12">December</textPath></text><path d="M 89.63071344664047 81.73862282372117 l -24.938679964757025 -43.91957332564863 a71.506105368476,71.506105368476 0 0,0 1.0755741033417927,-0.5985558240103384 l 24.178981772343185 44.342344547219156" fill="red" stroke="none" /><path d="M 89.94658935756843 81.56283822128135 l -11.806571129895783 -21.65231976649751 a45.66207763178008,45.66207763178008 0 0,0 0.6933133161286736,-0.37034396251527446 l 11.432112767238802 21.852342455514535" fill="red" stroke="none" /><path d="M 90.26544431104013 81.39251694778311 l -19.575957526612935 -37.419201198928945 a63.23049527829006,63.23049527829006 0 0,0 0.9687499390646677,-0.49623134524069273 l 18.928947099959505 37.75062506948214" fill="red" stroke="none" /><path d="M 91.56875222667455 80.76684994638697 l -13.92837907633549 -31.77306751988677 a55.69189477842604,55.69189477842604 0 0,0 0.8813010092525759,-0.3773270989391096 l 13.379394309292605 32.008114146788664" fill="red" stroke="none" /><path d="M 92.23578459929587 80.48803036053334 l -19.140968775393972 -48.102478143715054 a72.77089036540893,72.77089036540893 0 0,0 1.167857864338365,-0.45311070760276145 l 18.310127746055933 48.424831555208364" fill="red" stroke="none" /><path d="M 92.57280143429618 80.3572730644239 l -19.24971657077606 -50.90976400348301 a75.42752666570055,75.42752666570055 0 0,0 1.2183976270603067,-0.4487461285268623 l 18.37053661794318 51.233573399816194" fill="red" stroke="none" /><path d="M 94.28887869178378 79.79150937346287 l -14.010119082863985 -49.5740406976497 a72.5157155420388,72.5157155420388 0 0,0 1.2041134797124307,-0.3291296996556215 l 13.154707713927833 49.80785693813162" fill="red" stroke="none" /><path d="M 94.63758080256005 79.69619591428918 l -16.08725759231985 -60.91141225713247 a84.0,84.0 0 0,0 1.4011644452600023,-0.35718801532454725 l 15.036384258374849 61.17930326862588" fill="red" stroke="none" /><path d="M 94.98787191387505 79.60689891045804 l -5.308585079210812 -21.599310772298843 a43.242106496048535,43.242106496048535 0 0,0 0.7243594662454005,-0.17143248254456375 l 4.936001926002877 21.687489166984278" fill="red" stroke="none" /><path d="M 96.75951476605007 79.25152402106235 l -4.551521293737987 -29.14289787262314 a50.49618352433909,50.49618352433909 0 0,0 0.8599524570605455,-0.12673463812155583 l 4.0491998562487925 29.216926994905666" fill="red" stroke="none" /></svg>