<?xml version="1.0" encoding="utf-8" ?>
<svg baseProfile="full" height="200mm" version="1.1" viewBox="0,0,200,200" width="200mm" xmlns="http://www.w3.org/2000/svg" xmlns:ev="http://www.w3.org/2001/xml-events" xmlns:xlink="http://www.w3.org/1999/xlink"><defs /><rect fill="#1a1a1a" height="200" width="200" x="0" y="0" /><rect fill="#1a1a1a" height="200" width="180" x="10" y="0" /><text alignment-baseline="middle" fill="#e1ed5e" style="dominant-baseline: central; font-size:9.0px; font-family:Arial;" text-anchor="middle" x="100.0" y="100.0">2025</text><line stroke="#e1ed5e" stroke-width="0.3" x1="100.0" x2="100.0" y1="15.0" y2="10.0" /><path d="M 100.0 14.0 a86.0,86.0 0 0,1 42.46469731375804,11.215312516191453" fill="none" id="id1" stroke="none" /><text fill="#e1ed5e" style="font-size:6.75px; font-family:Arial;" text-anchor="middle"><textPath startOffset="22.20632615414155" xlink:href="#id1">January</textPath></text><line stroke="#e1ed5e" stroke-width="0.3" x1="143.23703022742887" x2="145.7803849466894" y1="26.81831364943548" y2="22.513508569990506" /><path d="M 143.74570117128098 25.957352633546492 a86.0,86.0 0 0,1 28.547481713284135,27.462654790039103" fill="none" id="id2" stroke="none" /><text fill="#e1ed5e" style="font-size:6.75px; font-family:Arial;" text-anchor="middle"><textPath startOffset="19.985693538727396" xlink:href="#id2">February</textPath></text><line stroke="#e1ed5e" stroke-width="0.3" x1="172.23445277983987" x2="176.4835382374775" y1="55.19839476539836" y2="52.563006222186495" /><path d="M 173.08426987136738 54.67131705675599 a86.0,86.0 0 0,1 12.851231095245387,41.99856678651699" fill="none" id="id3" stroke="none" /><text fill="#e1ed5e" style="font-size:6.75px; font-family:Arial;" text-anchor="middle"><textPath startOffset="22.20632615414155" xlink:href="#id3">March</textPath></text><line stroke="#e1ed5e" stroke-width="0.3" x1="184.98032266829074" x2="189.97916517819016" y1="98.17113171792111" y2="98.06355123074" /><path d="M 185.9800911702706 98.14961562048488 a86.0,86.0 0 0,1 -9.607161424134198,41.387399972396054" fill="none" id="id4" stroke="none" /><text fill="#e1ed5e" style="font-size:6.75px; font-family:Arial;" text-anchor="middle"><textPath startOffset="21.466115282336823" xlink:href="#id4">April</textPath></text><line stroke="#e1ed5e" stroke-width="0.3" x1="174.80103733775053" x2="179.2010983576182" y1="140.37084112569926" y2="142.7455964860345" /><path d="M 175.68104954172406 140.8457921977663 a86.0,86.0 0 0,1 -30.038265399797805,32.042727171017184" fill="none" id="id5" stroke="none" /><text fill="#e1ed5e" style="font-size:6.75px; font-family:Arial;" text-anchor="middle"><textPath startOffset="22.206326154141568" xlink:href="#id5">May</textPath></text><line stroke="#e1ed5e" stroke-width="0.3" x1="143.8653032363475" x2="146.44561519142675" y1="172.8068346515853" y2="177.08958963109032" /><path d="M 144.38136562736335 173.6633856474863 a86.0,86.0 0 0,1 -40.68145358897372,12.25698825130547" fill="none" id="id6" stroke="none" /><text fill="#e1ed5e" style="font-size:6.75px; font-family:Arial;" text-anchor="middle"><textPath startOffset="21.466115282336833" xlink:href="#id6">June</textPath></text><line stroke="#e1ed5e" stroke-width="0.3" x1="102.19456741930631" x2="102.32365962044197" y1="184.97166512339345" y2="189.96999836594603" /><path d="M 102.22038585953345 185.97133177190398 a86.0,86.0 0 0,1 -42.740103519485714,-10.115201625700543" fill="none" id="id7" stroke="none" /><text fill="#e1ed5e" style="font-size:6.75px; font-family:Arial;" text-anchor="middle"><textPath startOffset="22.20632615414155" xlink:href="#id7">July</textPath></text><line stroke="#e1ed5e" stroke-width="0.3" x1="58.666819895761336" x2="56.23545636021788" y1="174.27360380694188" y2="178.64263932499728" /><path d="M 58.180547188652646 175.14741091055294 a86.0,86.0 0 0,1 -31.652253787137756,-30.449443065178592" fill="none" id="id8" stroke="none" /><text fill="#e1ed5e" style="font-size:6.75px; font-family:Arial;" text-anchor="middle"><textPath startOffset="22.20632615414155" xlink:href="#id8">August</textPath></text><line stroke="#e1ed5e" stroke-width="0.3" x1="26.63291911575756" x2="22.317208475507996" y1="142.92168965132927" y2="145.44649492493687" /><path d="M 25.769776987707644 143.4266507060508 a86.0,86.0 0 0,1 -11.730757126820373,-40.83630448921669" fill="none" id="id9" stroke="none" /><text fill="#e1ed5e" style="font-size:6.75px; font-family:Arial;" text-anchor="middle"><textPath startOffset="21.46611528233685" xlink:href="#id9">September</textPath></text><line stroke="#e1ed5e" stroke-width="0.3" x1="15.007084014347285" x2="10.007500721073583" y1="101.09737516637583" y2="101.16192664675087" /><path d="M 14.007167355692545 101.11028546245083 a86.0,86.0 0 0,1 10.666146001902534,-42.60595125391555" fill="none" id="id10" stroke="none" /><text fill="#e1ed5e" style="font-size:6.75px; font-family:Arial;" text-anchor="middle"><textPath startOffset="22.20632615414155" xlink:href="#id10">October</textPath></text><line stroke="#e1ed5e" stroke-width="0.3" x1="26.266209847984243" x2="21.928928074336255" y1="57.711370442889674" y2="55.22380399835377" /><path d="M 25.398753493254645 57.213857153982495 a86.0,86.0 0 0,1 29.58750427330803,-30.492523968695096" fill="none" id="id11" stroke="none" /><text fill="#e1ed5e" style="font-size:6.75px; font-family:Arial;" text-anchor="middle"><textPath startOffset="21.46611528233685" xlink:href="#id11">November</textPath></text><path d="M 83.84228863543731 86.58626213691792 l -32.6903199787303 -27.1387062784576 a63.48724983780625,63.48724983780625 0 0,0 0.705281026954833,-0.8348302788271695 l 32.218328338288345 27.697395506913885" fill="red" stroke="none" /><path d="M 84.07557802195018 86.31012108654704 l -16.46031234666717 -14.15057219747731 a42.7066942684938,42.7066942684938 0 0,0 0.4840257483616666,-0.55332510268829 l 16.21429473472766 14.431812856368543" fill="red" stroke="none" /><path d="M 84.31358615837235 86.03803664274999 l -10.7158267565988 -9.537806539391127 a35.345685646224474,35.345685646224474 0 0,0 0.40842168565916886,-0.4509894262358243 l 10.550061430323586 9.720848752896508" fill="red" stroke="none" /><path d="M 84.5562425177563 85.77008943001954 l -25.841766902232948 -23.810658281305248 a56.13892947171886,56.13892947171886 0 0,0 0.6609227559526072,-0.7050263145437349 l 25.428076824309883 24.251954012727033" fill="red" stroke="none" /><path d="M 85.05521093208273 85.24692304244772 l -22.42891478649581 -22.14119613303242 a52.51648433282653,52.51648433282653 0 0,0 0.6406115803402067,-0.6378605906285361 l 22.04446740598829 22.523992574311062" fill="red" stroke="none" /><path d="M 85.57189188830299 84.74124197986013 l -35.922215663245844 -37.990316686660606 a73.28450764910681,73.28450764910681 0 0,0 0.924055231688526,-0.8588086306772668 l 35.26295254776247 38.60302990341252" fill="red" stroke="none" /><path d="M 85.83668400450813 84.49514656593479 l -18.024718565590916 -19.7320048242033 a47.72531559684825,47.72531559684825 0 0,0 0.6113135956698473,-0.548843382068469 l 17.682393982325095 20.039347215041047" fill="red" stroke="none" /><path d="M 86.10567301691215 84.25364557470407 l -27.3732740126626 -31.02196133060466 a62.37219132424388,62.37219132424388 0 0,0 0.8111539163162341,-0.7034246829860115 l 26.83522629769959 31.488551007010354" fill="red" stroke="none" /><path d="M 87.22198572758235 83.33499621200491 l -31.975569666882233 -41.70233169735469 a73.55018101317856,73.55018101317856 0 0,0 1.011328459967712,-0.7617116290098966 l 31.25299505315613 42.246559915870435" fill="red" stroke="none" /><path d="M 87.51073957382395 83.11751280151077 l -18.884347634329778 -25.52711259989376 a52.7529851078898,52.7529851078898 0 0,0 0.7346598843391227,-0.5337616495918738 l 18.442142433636874 25.8483934843023" fill="red" stroke="none" /><line stroke="#e1ed5e" stroke-width="0.3" x1="56.762969772571076" x2="54.21961505331055" y1="26.818313649435495" y2="22.513508569990535" /><path d="M 56.25429882871897 25.957352633546506 a86.0,86.0 0 0,1 42.265352541879196,-11.944610805530505" fill="none" id="id12" stroke="none" /><text fill="#e1ed5e" style="font-size:6.75px; font-family:Arial;" text-anchor="middle"><textPath startOffset="22.20632615414155" xlink:href="#id12">December</textPath></text><path d="M 89.63071344664047 81.73862282372117 l -31.107859660078574 -54.78413152883649 a84.0,84.0 0 0,0 1.2635036437118177,-0.7031384097592617 l 30.16023192729471 55.31148533615593" fill="red" stroke="none" /><path d="M 89.94658935756843 81.56283822128135 l -14.727209230583332 -27.008539568381764 a51.76283311624959,51.76283311624959 0 0,0 0.7859445592783266,-0.4198243645827165 l 14.2601196247767 27.25804265946623" fill="red" stroke="none" /></svg>