<?xml version="1.0" encoding="utf-8" ?>
<svg baseProfile="full" height="200mm" version="1.1" viewBox="0,0,200,200" width="200mm" xmlns="http://www.w3.org/2000/svg" xmlns:ev="http://www.w3.org/2001/xml-events" xmlns:xlink="http://www.w3.org/1999/xlink"><defs /><rect fill="#1a1a1a" height="200" width="200" x="0" y="0" /><rect fill="#1a1a1a" height="200" width="180" x="10" y="0" /><text alignment-baseline="middle" fill="#e1ed5e" style="dominant-baseline: central; font-size:9.0px; font-family:Arial;" text-anchor="middle" x="100.0" y="100.0">2026</text><line stroke="#e1ed5e" stroke-width="0.3" x1="100.0" x2="100.0" y1="15.0" y2="10.0" /><path d="M 100.0 14.0 a86.0,86.0 0 0,1 42.46469731375804,11.215312516191453" fill="none" id="id13" stroke="none" /><text fill="#e1ed5e" style="font-size:6.75px; font-family:Arial;" text-anchor="middle"><textPath startOffset="22.20632615414155" xlink:href="#id13">January</textPath></text><path d="M 101.44485096284872 79.0497635885617 l 1.3617236051159387 -19.744895624367615 a40.79179613865051,40.79179613865051 0 0,0 0.7000839772333816,0.05433999056382635 l -1.7013977717116615 19.718530371615323" fill="red" stroke="none" /><path d="M 101.80526077348638 79.07773832637324 l 3.8278527998607834 -44.36330700973744 a65.5281424034017,65.5281424034017 0 0,0 1.1229491390207889,0.10663755169371973 l -4.590927065971816 44.29084391352854" fill="red" stroke="none" /><path d="M 102.16513564639614 79.11191278185805 l 2.569963582400689 -24.79365371217603 a45.926491474216064,45.926491474216064 0 0,0 0.7856345204054825,0.08827519232368151 l -2.9963648063158965 24.74574256638175" fill="red" stroke="none" /><path d="M 102.52436894288641 79.15227682838746 l 3.5710300756278395 -29.491666289107037 a50.70708057532902,50.70708057532902 0 0,0 0.8656067403153023,0.1123805979727164 l -4.0781515444509875 29.425827367970182" fill="red" stroke="none" /><path d="M 102.88285421437855 79.19881850522331 l 5.98928375393674 -43.215566631145585 a64.62862270501046,64.62862270501046 0 0,0 1.1006285824516484,0.16220404274446143 l -6.732281316817044 43.10606810424015" fill="red" stroke="none" /><path d="M 103.2404852339499 79.25152402106235 l 5.003751435313678 -32.038478488492196 a53.42686590288955,53.42686590288955 0 0,0 0.9074191750045466,0.1497319389432664 l -5.5544998164571 31.94760028660931" fill="red" stroke="none" /><path d="M 104.307194497241 79.44645832069477 l 12.921583491723009 -61.66062503791566 a84.0,84.0 0 0,0 1.4126291033858882,0.3087460076165178 l -13.981055319262426 61.429065532203275" fill="red" stroke="none" /><path d="M 104.66035177308747 79.52364482259891 l 10.9717052771617 -48.20677603229329 a70.43957495889892,70.43957495889892 0 0,0 1.1799511414746864,0.27925631249466853 l -11.79988010559891 48.010773807657756" fill="red" stroke="none" /><path d="M 106.74666289553966 80.11325718540242 l 12.961831722219298 -38.20683171176128 a61.34564500718731,61.34564500718731 0 0,0 0.9970653625380483,0.3478565270979283 l -13.617579088820621 37.97805433149115" fill="red" stroke="none" /><path d="M 107.4271985657038 80.35727306442388 l 13.86957335520462 -36.68088845601107 a60.2154643345929,60.2154643345929 0 0,0 0.9663631051485682,0.3749338714460277 l -14.498919625352856 36.436711880674494" fill="red" stroke="none" /><path d="M 107.76421540070413 80.48803036053334 l 17.928147619197862 -45.05458104703543 a69.49055320760564,69.49055320760564 0 0,0 1.1076004318958108,0.4518180263609193 l -18.70103192068206 44.73930213449093" fill="red" stroke="none" /><path d="M 109.41281617654863 81.2277094730956 l 13.113963567589387 -26.153611143853613 a50.25726262513234,50.25726262513234 0 0,0 0.7699879605778066,0.39441773990259577 l -13.56221201575595 25.92400087863852" fill="red" stroke="none" /><line stroke="#e1ed5e" stroke-width="0.3" x1="143.23703022742887" x2="145.7803849466894" y1="26.81831364943548" y2="22.513508569990506" /><path d="M 143.74570117128098 25.957352633546492 a86.0,86.0 0 0,1 28.547481713284135,27.462654790039103" fill="none" id="id14" stroke="none" /><text fill="#e1ed5e" style="font-size:6.75px; font-family:Arial;" text-anchor="middle"><textPath startOffset="19.985693538727396" xlink:href="#id14">February</textPath></text><line stroke="#e1ed5e" stroke-width="0.3" x1="172.23445277983987" x2="176.4835382374775" y1="55.19839476539836" y2="52.563006222186495" /><path d="M 173.08426987136738 54.67131705675599 a86.0,86.0 0 0,1 12.851231095245387,41.99856678651699" fill="none" id="id15" stroke="none" /><text fill="#e1ed5e" style="font-size:6.75px; font-family:Arial;" text-anchor="middle"><textPath startOffset="22.20632615414155" xlink:href="#id15">March</textPath></text><line stroke="#e1ed5e" stroke-width="0.3" x1="184.98032266829074" x2="189.97916517819016" y1="98.17113171792111" y2="98.06355123074" /><path d="M 185.9800911702706 98.14961562048488 a86.0,86.0 0 0,1 -9.607161424134198,41.387399972396054" fill="none" id="id16" stroke="none" /><text fill="#e1ed5e" style="font-size:6.75px; font-family:Arial;" text-anchor="middle"><textPath startOffset="21.466115282336823" xlink:href="#id16">April</textPath></text><line stroke="#e1ed5e" stroke-width="0.3" x1="174.80103733775053" x2="179.2010983576182" y1="140.37084112569926" y2="142.7455964860345" /><path d="M 175.68104954172406 140.8457921977663 a86.0,86.0 0 0,1 -30.038265399797805,32.042727171017184" fill="none" id="id17" stroke="none" /><text fill="#e1ed5e" style="font-size:6.75px; font-family:Arial;" text-anchor="middle"><textPath startOffset="22.206326154141568" xlink:href="#id17">May</textPath></text><path d="M 116.27256486870786 113.27417163493432 l 21.41362437485194 17.467936220946154 a48.634617867564145,48.634617867564145 0 0,0 -0.5347584671080718,0.6441510225922118 l -21.10976990785032 -17.833948500652134" fill="red" stroke="none" /><path d="M 116.0416608686014 113.55231037782055 l 22.550964718209585 19.051498201077624 a50.521273573943205,50.521273573943205 0 0,0 -0.5669388830344566,0.6594780031496833 l -22.219683325604347 -19.436853303388837" fill="red" stroke="none" /><path d="M 114.55890576462653 115.13401014063108 l 26.93145769616874 27.995301327252598 a59.84636804186715,59.84636804186715 0 0,0 -0.748547444117032,0.7077983303883625 l -26.4455744176609 -28.45473429438688" fill="red" stroke="none" /><path d="M 114.29624159901734 115.38237550388516 l 17.23659592808178 18.54611851220508 a46.319138039370955,46.319138039370955 0 0,0 -0.588695181476887,0.5377590904511047 l -16.91480119713803 -18.840070369242767" fill="red" stroke="none" /><path d="M 114.0293411484842 115.62618273729858 l 23.9116771680782 26.633341724964097 a56.79250195821893,56.79250195821893 0 0,0 -0.7330496168258491,0.6468310566313303 l -23.449685198345765 -27.040995923367717" fill="red" stroke="none" /><path d="M 113.48314897796784 116.09983520530334 l 17.82304081935312 21.281973559579278 a48.75938008383759,48.75938008383759 0 0,0 -0.6481047378591492,0.5333460765121704 l -17.454065952949282 -21.585614754948626" fill="red" stroke="none" /><path d="M 112.34349029814194 116.9893568818739 l 14.675102045290526 20.198545136207414 a45.966774834950115,45.966774834950115 0 0,0 -0.6441316981356865,0.4595708638625008 l -14.325243019305955 -20.448160261914133" fill="red" stroke="none" /><path d="M 112.04921762599082 117.19931262002967 l 23.19114985871305 33.10354653878725 a61.418736066519195,61.418736066519195 0 0,0 -0.8711022710750932,0.5991520851800355 l -22.617890703015075 -33.49783941333238" fill="red" stroke="none" /><line stroke="#e1ed5e" stroke-width="0.3" x1="143.8653032363475" x2="146.44561519142675" y1="172.8068346515853" y2="177.08958963109032" /><path d="M 144.38136562736335 173.6633856474863 a86.0,86.0 0 0,1 -40.68145358897372,12.25698825130547" fill="none" id="id18" stroke="none" /><text fill="#e1ed5e" style="font-size:6.75px; font-family:Arial;" text-anchor="middle"><textPath startOffset="21.466115282336833" xlink:href="#id18">June</textPath></text><path d="M 110.5260780823613 118.17145234162733 l 12.28993351432501 21.216443521500757 a45.518971052790135,45.518971052790135 0 0,0 -0.681378318043944,0.38690439186709463 l -11.922906429359866 -21.424851079162483" fill="red" stroke="none" /><path d="M 110.21172684928248 118.3499491758327 l 10.561416516357289 18.978323564693998 a42.719122545770674,42.719122545770674 0 0,0 -0.6456226187150147,0.35204492881740795 l -10.233171085773625 -19.157309145271174" fill="red" stroke="none" /><path d="M 108.2653958097858 119.30500536409082 l 12.55287951010309 29.319032246515725 a52.89326630916619,52.89326630916619 0 0,0 -0.8400673292623004,0.35114821176311933 l -12.046340721343327 -29.530765501298816" fill="red" stroke="none" /><path d="M 103.41894727170886 120.7198165907248 l 4.202335065689869 25.467374865464173 a46.811757060347574,46.811757060347574 0 0,0 -0.7961657515917592,0.12434471642296477 l -3.7633334504895926 -25.53593788923424" fill="red" stroke="none" /><path d="M 102.70371172650421 120.8252237178851 l 2.564539752972205 19.753257555349368 a40.919037330969125,40.919037330969125 0 0,0 -0.6992723987248409,0.08467214915642338 l -2.2241399311959835 -19.794475233231143" fill="red" stroke="none" /><line stroke="#e1ed5e" stroke-width="0.3" x1="102.19456741930631" x2="102.32365962044197" y1="184.97166512339345" y2="189.96999836594603" /><path d="M 102.22038585953345 185.97133177190398 a86.0,86.0 0 0,1 -42.740103519485714,-10.115201625700543" fill="none" id="id19" stroke="none" /><text fill="#e1ed5e" style="font-size:6.75px; font-family:Arial;" text-anchor="middle"><textPath startOffset="22.20632615414155" xlink:href="#id19">July</textPath></text><line stroke="#e1ed5e" stroke-width="0.3" x1="58.666819895761336" x2="56.23545636021788" y1="174.27360380694188" y2="178.64263932499728" /><path d="M 58.180547188652646 175.14741091055294 a86.0,86.0 0 0,1 -31.652253787137756,-30.449443065178592" fill="none" id="id20" stroke="none" /><text fill="#e1ed5e" style="font-size:6.75px; font-family:Arial;" text-anchor="middle"><textPath startOffset="22.20632615414155" xlink:href="#id20">August</textPath></text><line stroke="#e1ed5e" stroke-width="0.3" x1="26.63291911575756" x2="22.317208475507996" y1="142.92168965132927" y2="145.44649492493687" /><path d="M 25.769776987707644 143.4266507060508 a86.0,86.0 0 0,1 -11.730757126820373,-40.83630448921669" fill="none" id="id21" stroke="none" /><text fill="#e1ed5e" style="font-size:6.75px; font-family:Arial;" text-anchor="middle"><textPath startOffset="21.46611528233685" xlink:href="#id21">September</textPath></text><line stroke="#e1ed5e" stroke-width="0.3" x1="15.007084014347285" x2="10.007500721073583" y1="101.09737516637583" y2="101.16192664675087" /><path d="M 14.007167355692545 101.11028546245083 a86.0,86.0 0 0,1 10.666146001902534,-42.60595125391555" fill="none" id="id22" stroke="none" /><text fill="#e1ed5e" style="font-size:6.75px; font-family:Arial;" text-anchor="middle"><textPath startOffset="22.20632615414155" xlink:href="#id22">October</textPath></text><line stroke="#e1ed5e" stroke-width="0.3" x1="26.266209847984243" x2="21.928928074336255" y1="57.711370442889674" y2="55.22380399835377" /><path d="M 25.398753493254645 57.213857153982495 a86.0,86.0 0 0,1 29.58750427330803,-30.492523968695096" fill="none" id="id23" stroke="none" /><text fill="#e1ed5e" style="font-size:6.75px; font-family:Arial;" text-anchor="middle"><textPath startOffset="21.46611528233685" xlink:href="#id23">November</textPath></text><line stroke="#e1ed5e" stroke-width="0.3" x1="56.762969772571076" x2="54.21961505331055" y1="26.818313649435495" y2="22.513508569990535" /><path d="M 56.25429882871897 25.957352633546506 a86.0,86.0 0 0,1 42.265352541879196,-11.944610805530505" fill="none" id="id24" stroke="none" /><text fill="#e1ed5e" style="font-size:6.75px; font-family:Arial;" text-anchor="middle"><textPath startOffset="22.20632615414155" xlink:href="#id24">December</textPath></text></svg>