<?xml version="1.0" encoding="utf-8" ?>
<svg baseProfile="full" height="200mm" version="1.1" viewBox="0,0,200,200" width="200mm" xmlns="http://www.w3.org/2000/svg" xmlns:ev="http://www.w3.org/2001/xml-events" xmlns:xlink="http://www.w3.org/1999/xlink"><defs /><rect fill="#1a1a1a" height="200" width="200" x="0" y="0" /><rect fill="#1a1a1a" height="200" width="180" x="10" y="0" /><text alignment-baseline="middle" fill="#e1ed5e" style="dominant-baseline: central; font-size:9.0px; font-family:Arial;" text-anchor="middle" x="100.0" y="100.0">2025</text><line stroke="#e1ed5e" stroke-width="0.3" x1="100.0" x2="100.0" y1="15.0" y2="10.0" /><path d="M 100.0 14.0 a86.0,86.0 0 0,1 42.46469731375804,11.215312516191453" fill="none" id="id1" stroke="none" /><text fill="#e1ed5e" style="font-size:6.75px; font-family:Arial;" text-anchor="middle"><textPath startOffset="22.20632615414155" xlink:href="#id1">January</textPath></text><line stroke="#e1ed5e" stroke-width="0.3" x1="143.23703022742887" x2="145.7803849466894" y1="26.81831364943548" y2="22.513508569990506" /><path d="M 143.74570117128098 25.957352633546492 a86.0,86.0 0 0,1 28.547481713284135,27.462654790039103" fill="none" id="id2" stroke="none" /><text fill="#e1ed5e" style="font-size:6.75px; font-family:Arial;" text-anchor="middle"><textPath startOffset="19.985693538727396" xlink:href="#id2">February</textPath></text><line stroke="#e1ed5e" stroke-width="0.3" x1="172.23445277983987" x2="176.4835382374775" y1="55.19839476539836" y2="52.563006222186495" /><path d="M 173.08426987136738 54.67131705675599 a86.0,86.0 0 0,1 12.851231095245387,41.99856678651699" fill="none" id="id3" stroke="none" /><text fill="#e1ed5e" style="font-size:6.75px; font-family:Arial;" text-anchor="middle"><textPath startOffset="22.20632615414155" xlink:href="#id3">March</textPath></text><line stroke="#e1ed5e" stroke-width="0.3" x1="184.98032266829074" x2="189.97916517819016" y1="98.17113171792111" y2="98.06355123074" /><path d="M 185.9800911702706 98.14961562048488 a86.0,86.0 0 0,1 -9.607161424134198,41.387399972396054" fill="none" id="id4" stroke="none" /><text fill="#e1ed5e" style="font-size:6.75px; font-family:Arial;" text-anchor="middle"><textPath startOffset="21.466115282336823" xlink:href="#id4">April</textPath></text><line stroke="#e1ed5e" stroke-width="0.3" x1="174.80103733775053" x2="179.2010983576182" y1="140.37084112569926" y2="142.7455964860345" /><path d="M 175.68104954172406 140.8457921977663 a86.0,86.0 0 0,1 -30.038265399797805,32.042727171017184" fill="none" id="id5" stroke="none" /><text fill="#e1ed5e" style="font-size:6.75px; font-family:Arial;" text-anchor="middle"><textPath startOffset="22.206326154141568" xlink:href="#id5">May</textPath></text><line stroke="#e1ed5e" stroke-width="0.3" x1="143.8653032363475" x2="146.44561519142675" y1="172.8068346515853" y2="177.08958963109032" /><path d="M 144.38136562736335 173.6633856474863 a86.0,86.0 0 0,1 -40.68145358897372,12.25698825130547" fill="none" id="id6" stroke="none" /><text fill="#e1ed5e" style="font-size:6.75px; font-family:Arial;" text-anchor="middle"><textPath startOffset="21.466115282336833" xlink:href="#id6">June</textPath></text><line stroke="#e1ed5e" stroke-width="0.3" x1="102.19456741930631" x2="102.32365962044197" y1="184.97166512339345" y2="189.96999836594603" /><path d="M 102.22038585953345 185.97133177190398 a86.0,86.0 0 0,1 -42.740103519485714,-10.115201625700543" fill="none" id="id7" stroke="none" /><text fill="#e1ed5e" style="font-size:6.75px; font-family:Arial;" text-anchor="middle"><textPath startOffset="22.20632615414155" xlink:href="#id7">July</textPath></text><line stroke="#e1ed5e" stroke-width="0.3" x1="58.666819895761336" x2="56.23545636021788" y1="174.27360380694188" y2="178.64263932499728" /><path d="M 58.180547188652646 175.14741091055294 a86.0,86.0 0 0,1 -31.652253787137756,-30.449443065178592" fill="none" id="id8" stroke="none" /><text fill="#e1ed5e" style="font-size:6.75px; font-family:Arial;" text-anchor="middle"><textPath startOffset="22.20632615414155" xlink:href="#id8">August</textPath></text><line stroke="#e1ed5e" stroke-width="0.3" x1="26.63291911575756" x2="22.317208475507996" y1="142.92168965132927" y2="145.44649492493687" /><path d="M 25.769776987707644 143.4266507060508 a86.0,86.0 0 0,1 -11.730757126820373,-40.83630448921669" fill="none" id="id9" stroke="none" /><text fill="#e1ed5e" style="font-size:6.75px; font-family:Arial;" text-anchor="middle"><textPath startOffset="21.46611528233685" xlink:href="#id9">September</textPath></text><line stroke="#e1ed5e" stroke-width="0.3" x1="15.007084014347285" x2="10.007500721073583" y1="101.09737516637583" y2="101.16192664675087" /><path d="M 14.007167355692545 101.11028546245083 a86.0,86.0 0 0,1 10.666146001902534,-42.60595125391555" fill="none" id="id10" stroke="none" /><text fill="#e1ed5e" style="font-size:6.75px; font-family:Arial;" text-anchor="middle"><textPath startOffset="22.20632615414155" xlink:href="#id10">October</textPath></text><line stroke="#e1ed5e" stroke-width="0.3" x1="26.266209847984243" x2="21.928928074336255" y1="57.711370442889674" y2="55.22380399835377" /><path d="M 25.398753493254645 57.213857153982495 a86.0,86.0 0 0,1 29.58750427330803,-30.492523968695096" fill="none" id="id11" stroke="none" /><text fill="#e1ed5e" style="font-size:6.75px; font-family:Arial;" text-anchor="middle"><textPath startOffset="21.46611528233685" xlink:href="#id11">November</textPath></text><path d="M 83.84228863543731 86.58626213691792 l -31.891681478171297 -26.475696075332007 a62.44926815009506,62.44926815009506 0 0,0 0.6937500692816071,-0.8211812619933451 l 31.431220795402567 27.020736286954467" fill="red" stroke="none" /><path d="M 84.07557802195018 86.31012108654704 l -16.058179875041674 -13.804867665701597 a42.176390442347035,42.176390442347035 0 0,0 0.478015432866489,-0.5464542730892142 l 15.818172578597341 14.079237494993754" fill="red" stroke="none" /><path d="M 84.31358615837235 86.03803664274999 l -10.45403452517652 -9.30479384578038 a34.99521440943493,34.99521440943493 0 0,0 0.4043719678311621,-0.4465176266624933 l 10.292318916729313 9.483364259712427" fill="red" stroke="none" /><path d="M 84.5562425177563 85.77008943001954 l -25.21044148284205 -23.228953714342396 a55.28047039383889,55.28047039383889 0 0,0 0.6508161303905577,-0.6942452710582293 l 24.806858030481038 23.659468402278677" fill="red" stroke="none" /><path d="M 85.05521093208273 85.24692304244772 l -21.880966804160142 -21.600277240474227 a51.74652313921213,51.74652313921213 0 0,0 0.6312193663847565,-0.6285087098246463 l 21.505911637608072 21.973721800948983" fill="red" stroke="none" /><path d="M 85.57189188830299 84.74124197986013 l -35.044620568651546 -37.062196999421786 a72.0071747622303,72.0071747622303 0 0,0 0.907949151773552,-0.8438397847002983 l 34.40146353308314 37.65994137019673" fill="red" stroke="none" /><path d="M 85.83668400450813 84.49514656593479 l -17.58436698085305 -19.249943505865694 a47.072404704904685,47.072404704904685 0 0,0 0.6029504596692886,-0.5413348759927689 l 17.25040553358779 19.549777390627742" fill="red" stroke="none" /><path d="M 86.10567301691215 84.25364557470407 l -26.704533219452635 -30.26408154546969 a61.36145099299192,61.36145099299192 0 0,0 0.7980091804865805,-0.6920256976049137 l 26.17963024031928 30.719272236494284" fill="red" stroke="none" /><path d="M 87.22198572758235 83.33499621200491 l -31.194392822180365 -40.68352589556812 a72.2663576123744,72.2663576123744 0 0,0 0.9936756530687983,-0.7484159008347024 l 30.489471015353175 41.21445838590867" fill="red" stroke="none" /><path d="M 87.51073957382395 83.11751280151077 l -18.42299494373119 -24.903474319704255 a51.97724609917599,51.97724609917599 0 0,0 0.7238566221302928,-0.5259126201559657 l 17.991593005247115 25.216906174676886" fill="red" stroke="none" /><line stroke="#e1ed5e" stroke-width="0.3" x1="56.762969772571076" x2="54.21961505331055" y1="26.818313649435495" y2="22.513508569990535" /><path d="M 56.25429882871897 25.957352633546506 a86.0,86.0 0 0,1 42.265352541879196,-11.944610805530505" fill="none" id="id12" stroke="none" /><text fill="#e1ed5e" style="font-size:6.75px; font-family:Arial;" text-anchor="middle"><textPath startOffset="22.20632615414155" xlink:href="#id12">December</textPath></text><path d="M 89.63071344664047 81.73862282372117 l -30.34788134201104 -53.445731761349215 a82.46088305137565,82.46088305137565 0 0,0 1.2403526928465143,-0.6902549306677229 l 29.42340456009248 53.96020208957712" fill="red" stroke="none" /><path d="M 89.94658935756843 81.56283822128135 l -14.36741720942892 -26.348709393662908 a51.01128394423495,51.01128394423495 0 0,0 0.7745333604081162,-0.4137288973410932 l 13.911738802492499 26.59211701750575" fill="red" stroke="none" /><path d="M 90.26544431104013 81.39251694778311 l -23.821984042998857 -45.53542847908295 a72.39029257085983,72.39029257085983 0 0,0 1.109086544526437,-0.5681172052615392 l 23.034637010883653 45.938738209657" fill="red" stroke="none" /><path d="M 91.56875222667455 80.76684994638697 l -16.94944544348488 -38.66464802178325 a63.21656911083678,63.21656911083678 0 0,0 1.0003758424905977,-0.42830872826966704 l 16.281385843203974 38.950676278015706" fill="red" stroke="none" /><path d="M 92.23578459929587 80.48803036053334 l -23.29264620211241 -58.53590891839998 a84.0,84.0 0 0,0 1.3480673400012946,-0.5230291844377941 l 22.28159569711144 58.92818080672833" fill="red" stroke="none" /></svg>