<?xml version="1.0" encoding="utf-8" ?>
<svg baseProfile="full" height="200mm" version="1.1" viewBox="0,0,200,200" width="200mm" xmlns="http://www.w3.org/2000/svg" xmlns:ev="http://www.w3.org/2001/xml-events" xmlns:xlink="http://www.w3.org/1999/xlink"><defs /><rect fill="#1a1a1a" height="200" width="200" x="0" y="0" /><rect fill="#1a1a1a" height="200" width="180" x="10" y="0" /><text alignment-baseline="middle" fill="#e1ed5e" style="dominant-baseline: central; font-size:9.0px; font-family:Arial;" text-anchor="middle" x="100.0" y="100.0">2025</text><line stroke="#e1ed5e" stroke-width="0.3" x1="100.0" x2="100.0" y1="15.0" y2="10.0" /><path d="M 100.0 14.0 a86.0,86.0 0 0,1 42.46469731375804,11.215312516191453" fill="none" id="id1" stroke="none" /><text fill="#e1ed5e" style="font-size:6.75px; font-family:Arial;" text-anchor="middle"><textPath startOffset="22.20632615414155" xlink:href="#id1">January</textPath></text><line stroke="#e1ed5e" stroke-width="0.3" x1="143.23703022742887" x2="145.7803849466894" y1="26.81831364943548" y2="22.513508569990506" /><path d="M 143.74570117128098 25.957352633546492 a86.0,86.0 0 0,1 28.547481713284135,27.462654790039103" fill="none" id="id2" stroke="none" /><text fill="#e1ed5e" style="font-size:6.75px; font-family:Arial;" text-anchor="middle"><textPath startOffset="19.985693538727396" xlink:href="#id2">February</textPath></text><line stroke="#e1ed5e" stroke-width="0.3" x1="172.23445277983987" x2="176.4835382374775" y1="55.19839476539836" y2="52.563006222186495" /><path d="M 173.08426987136738 54.67131705675599 a86.0,86.0 0 0,1 12.851231095245387,41.99856678651699" fill="none" id="id3" stroke="none" /><text fill="#e1ed5e" style="font-size:6.75px; font-family:Arial;" text-anchor="middle"><textPath startOffset="22.20632615414155" xlink:href="#id3">March</textPath></text><line stroke="#e1ed5e" stroke-width="0.3" x1="184.98032266829074" x2="189.97916517819016" y1="98.17113171792111" y2="98.06355123074" /><path d="M 185.9800911702706 98.14961562048488 a86.0,86.0 0 0,1 -9.607161424134198,41.387399972396054" fill="none" id="id4" stroke="none" /><text fill="#e1ed5e" style="font-size:6.75px; font-family:Arial;" text-anchor="middle"><textPath startOffset="21.466115282336823" xlink:href="#id4">April</textPath></text><line stroke="#e1ed5e" stroke-width="0.3" x1="174.80103733775053" x2="179.2010983576182" y1="140.37084112569926" y2="142.7455964860345" /><path d="M 175.68104954172406 140.8457921977663 a86.0,86.0 0 0,1 -30.038265399797805,32.042727171017184" fill="none" id="id5" stroke="none" /><text fill="#e1ed5e" style="font-size:6.75px; font-family:Arial;" text-anchor="middle"><textPath startOffset="22.206326154141568" xlink:href="#id5">May</textPath></text><line stroke="#e1ed5e" stroke-width="0.3" x1="143.8653032363475" x2="146.44561519142675" y1="172.8068346515853" y2="177.08958963109032" /><path d="M 144.38136562736335 173.6633856474863 a86.0,86.0 0 0,1 -40.68145358897372,12.25698825130547" fill="none" id="id6" stroke="none" /><text fill="#e1ed5e" style="font-size:6.75px; font-family:Arial;" text-anchor="middle"><textPath startOffset="21.466115282336833" xlink:href="#id6">June</textPath></text><line stroke="#e1ed5e" stroke-width="0.3" x1="102.19456741930631" x2="102.32365962044197" y1="184.97166512339345" y2="189.96999836594603" /><path d="M 102.22038585953345 185.97133177190398 a86.0,86.0 0 0,1 -42.740103519485714,-10.115201625700543" fill="none" id="id7" stroke="none" /><text fill="#e1ed5e" style="font-size:6.75px; font-family:Arial;" text-anchor="middle"><textPath startOffset="22.20632615414155" xlink:href="#id7">July</textPath></text><line stroke="#e1ed5e" stroke-width="0.3" x1="58.666819895761336" x2="56.23545636021788" y1="174.27360380694188" y2="178.64263932499728" /><path d="M 58.180547188652646 175.14741091055294 a86.0,86.0 0 0,1 -31.652253787137756,-30.449443065178592" fill="none" id="id8" stroke="none" /><text fill="#e1ed5e" style="font-size:6.75px; font-family:Arial;" text-anchor="middle"><textPath startOffset="22.20632615414155" xlink:href="#id8">August</textPath></text><line stroke="#e1ed5e" stroke-width="0.3" x1="26.63291911575756" x2="22.317208475507996" y1="142.92168965132927" y2="145.44649492493687" /><path d="M 25.769776987707644 143.4266507060508 a86.0,86.0 0 0,1 -11.730757126820373,-40.83630448921669" fill="none" id="id9" stroke="none" /><text fill="#e1ed5e" style="font-size:6.75px; font-family:Arial;" text-anchor="middle"><textPath startOffset="21.46611528233685" xlink:href="#id9">September</textPath></text><line stroke="#e1ed5e" stroke-width="0.3" x1="15.007084014347285" x2="10.007500721073583" y1="101.09737516637583" y2="101.16192664675087" /><path d="M 14.007167355692545 101.11028546245083 a86.0,86.0 0 0,1 10.666146001902534,-42.60595125391555" fill="none" id="id10" stroke="none" /><text fill="#e1ed5e" style="font-size:6.75px; font-family:Arial;" text-anchor="middle"><textPath startOffset="22.20632615414155" xlink:href="#id10">October</textPath></text><line stroke="#e1ed5e" stroke-width="0.3" x1="26.266209847984243" x2="21.928928074336255" y1="57.711370442889674" y2="55.22380399835377" /><path d="M 25.398753493254645 57.213857153982495 a86.0,86.0 0 0,1 29.58750427330803,-30.492523968695096" fill="none" id="id11" stroke="none" /><text fill="#e1ed5e" style="font-size:6.75px; font-family:Arial;" text-anchor="middle"><textPath startOffset="21.46611528233685" xlink:href="#id11">November</textPath></text><path d="M 83.84228863543731 86.58626213691792 l -30.33503167461445 -25.183403377535388 a60.42610749713345,60.42610749713345 0 0,0 0.671274740350826,-0.7945775616229708 l 29.897046320776496 25.701839888787475" fill="red" stroke="none" /><path d="M 84.07557802195018 86.31012108654704 l -15.27437164075106 -13.13104478951831 a41.14275964916715,41.14275964916715 0 0,0 0.46630055006490323,-0.5330621369247447 l 15.046079227108313 13.392022482645997" fill="red" stroke="none" /><path d="M 84.31358615837235 86.03803664274999 l -9.943767582960536 -8.850621947629287 a34.31210060823588,34.31210060823588 0 0,0 0.3964785436385956,-0.43780151051920835 l 9.789945398705896 9.020476245418052" fill="red" stroke="none" /><path d="M 84.5562425177563 85.77008943001954 l -23.979906529433947 -22.095136224630792 a53.607222542642,53.607222542642 0 0,0 0.6311170090925299,-0.6732316219390052 l 23.59602219837096 22.504637263447847" fill="red" stroke="none" /><path d="M 85.05521093208273 85.24692304244772 l -20.81294526692501 -20.545956308974514 a50.24576911852902,50.24576911852902 0 0,0 0.6129127257726624,-0.6102806837451719 l 20.456196740985032 20.901172843369796" fill="red" stroke="none" /><path d="M 85.57189188830299 84.74124197986013 l -33.33407414414725 -35.253171604570035 a69.51748764341338,69.51748764341338 0 0,0 0.8765563174459222,-0.8146635665074472 l 32.72230994290648 35.82173975715213" fill="red" stroke="none" /><path d="M 85.83668400450813 84.49514656593479 l -16.726064748493428 -18.31034360432408 a45.79979687173277,45.79979687173277 0 0,0 0.5866496251825007,-0.5266998258423404 l 16.408404135714957 18.5955424389357" fill="red" stroke="none" /><path d="M 86.10567301691215 84.25364557470407 l -25.40107085988432 -28.786875753582258 a59.39138726955626,59.39138726955626 0 0,0 0.7723883890612803,-0.6698075997523646 l 24.901788672176266 29.219848346754304" fill="red" stroke="none" /><path d="M 87.22198572758235 83.33499621200491 l -29.671778045911548 -38.69774152616498 a69.76401964186005,69.76401964186005 0 0,0 0.9592680476601104,-0.722500805785347 l 29.001263844493046 39.20275892145619" fill="red" stroke="none" /><path d="M 87.51073957382395 83.11751280151077 l -17.523758837923562 -23.68792259552864 a50.46523036905465,50.46523036905465 0 0,0 0.7027996658435908,-0.5106138459033268 l 17.11341385572619 23.986055676248636" fill="red" stroke="none" /><line stroke="#e1ed5e" stroke-width="0.3" x1="56.762969772571076" x2="54.21961505331055" y1="26.818313649435495" y2="22.513508569990535" /><path d="M 56.25429882871897 25.957352633546506 a86.0,86.0 0 0,1 42.265352541879196,-11.944610805530505" fill="none" id="id12" stroke="none" /><text fill="#e1ed5e" style="font-size:6.75px; font-family:Arial;" text-anchor="middle"><textPath startOffset="22.20632615414155" xlink:href="#id12">December</textPath></text><path d="M 89.63071344664047 81.73862282372117 l -28.866585237829675 -50.83701738847423 a79.46094491409558,79.46094491409558 0 0,0 1.1952284932350452,-0.6651433624388745 l 27.987232655522583 51.32637614847329" fill="red" stroke="none" /><path d="M 89.94658935756843 81.56283822128135 l -13.666135993134796 -25.06261498281488 a49.546417336675916,49.546417336675916 0 0,0 0.7522914568845221,-0.40184804276468766 l 13.23269948972197 25.294141752081316" fill="red" stroke="none" /><path d="M 90.26544431104013 81.39251694778311 l -22.659220429978006 -43.3128201840215 a69.881905269616,69.881905269616 0 0,0 1.0706557203721168,-0.548431444468388 l 21.910304222017125 43.69644415380239" fill="red" stroke="none" /><path d="M 91.56875222667455 80.76684994638697 l -16.12213406643951 -36.77740614684795 a61.15595609304377,61.15595609304377 0 0,0 0.9677675008372003,-0.41434753813359004 l 15.486682807812004 37.04947321294433" fill="red" stroke="none" /><path d="M 92.23578459929587 80.48803036053334 l -22.155719848459498 -55.678740312184686 a80.9249367521996,80.9249367521996 0 0,0 1.2987174312775085,-0.503882186549798 l 21.194019252182315 56.05186520262504" fill="red" stroke="none" /><path d="M 92.57280143429618 80.3572730644239 l -22.28159569711144 -58.92818080672833 a84.0,84.0 0 0,0 1.3568706969097222,-0.4997469287747105 l 21.26394267442915 59.30299100330936" fill="red" stroke="none" /><path d="M 94.28887869178378 79.79150937346287 l -16.216748331073006 -57.38207769635992 a80.62957124769929,80.62957124769929 0 0,0 1.3388429373837618,-0.3659563498719451 l 15.226607504465521 57.65272058705816" fill="red" stroke="none" /></svg>